<svg fill="none" height="800" viewBox="0 0 1300 800" width="1300" xmlns="http://www.w3.org/2000/svg"><path d="m0 0h1300v800h-1300z" fill="#fff"/><path d="m742.968 69.864v-1.722h1.988c.401 0 .737-.0793 1.008-.238.28-.1587.49-.378.63-.658.149-.28.224-.602.224-.966s-.075-.686-.224-.966c-.14-.28-.35-.4947-.63-.644-.271-.1587-.607-.238-1.008-.238h-1.988v-1.722h1.82c.859 0 1.587.14 2.184.42.607.28 1.069.6813 1.386 1.204.317.5133.476 1.1247.476 1.834v.224c0 .7093-.159 1.3253-.476 1.848-.317.5133-.779.9147-1.386 1.204-.597.28-1.325.42-2.184.42zm-1.708 3.136v-10.29h1.988v10.29zm9.116 0v-7.602h1.54v3.22h-.042c0-1.092.233-1.918.7-2.478.466-.56 1.152-.84 2.058-.84h.28v1.694h-.532c-.654 0-1.162.1773-1.526.532-.355.3453-.532.8493-.532 1.512v3.962zm6.201 0v-7.602h1.946v7.602zm-1.064-6.146v-1.456h3.01v1.456zm1.778-2.366c-.382 0-.667-.098-.854-.294-.177-.2053-.266-.4573-.266-.756 0-.3173.089-.574.266-.77.187-.196.472-.294.854-.294.383 0 .663.098.84.294.178.196.266.4527.266.77 0 .2987-.088.5507-.266.756-.177.196-.457.294-.84.294zm3.475 8.512v-7.602h1.54v3.262h-.14c0-.7653.098-1.4047.294-1.918.196-.5227.485-.9147.868-1.176.392-.2707.877-.406 1.456-.406h.084c.588 0 1.073.1353 1.456.406.392.2613.681.6533.868 1.176.196.5133.294 1.1527.294 1.918h-.49c0-.7653.098-1.4047.294-1.918.205-.5227.499-.9147.882-1.176.392-.2707.877-.406 1.456-.406h.084c.588 0 1.078.1353 1.47.406.392.2613.686.6533.882 1.176.205.5133.308 1.1527.308 1.918v4.34h-1.946v-4.522c0-.476-.121-.854-.364-1.134-.243-.2893-.588-.434-1.036-.434s-.807.1493-1.078.448c-.271.2893-.406.6813-.406 1.176v4.466h-1.946v-4.522c0-.476-.121-.854-.364-1.134-.243-.2893-.588-.434-1.036-.434s-.807.1493-1.078.448c-.271.2893-.406.6813-.406 1.176v4.466zm18.292 0v-2.254h-.322v-2.506c0-.4387-.108-.7653-.322-.98-.215-.2147-.546-.322-.994-.322-.234 0-.514.0047-.84.014-.327.0093-.658.0233-.994.042-.327.0093-.621.0233-.882.042v-1.652c.214-.0187.457-.0373.728-.056.27-.0187.546-.028.826-.028.289-.0093.56-.014.812-.014.784 0 1.432.1027 1.946.308.522.2053.914.5273 1.176.966.27.4387.406 1.0127.406 1.722v4.718zm-2.45.196c-.551 0-1.036-.098-1.456-.294-.411-.196-.733-.476-.966-.84-.224-.364-.336-.8027-.336-1.316 0-.56.135-1.0173.406-1.372.28-.3547.667-.6207 1.162-.798.504-.1773 1.092-.266 1.764-.266h1.764v1.162h-1.792c-.448 0-.794.112-1.036.336-.234.2147-.35.4947-.35.84s.116.6253.35.84c.242.2147.588.322 1.036.322.27 0 .518-.0467.742-.14.233-.1027.424-.2707.574-.504.158-.2427.247-.5693.266-.98l.476.546c-.047.532-.178.98-.392 1.344-.206.364-.495.644-.868.84-.364.1867-.812.28-1.344.28zm6.074-.196v-7.602h1.54v3.22h-.042c0-1.092.234-1.918.7-2.478.467-.56 1.153-.84 2.058-.84h.28v1.694h-.532c-.653 0-1.162.1773-1.526.532-.354.3453-.532.8493-.532 1.512v3.962zm5.846 2.996v-1.666h1.428c.271 0 .495-.0373.672-.112.187-.0653.341-.1773.462-.336.122-.1493.215-.3593.28-.63l2.044-7.854h1.862l-2.254 8.274c-.149.5693-.359 1.022-.63 1.358-.27.3453-.62.5927-1.05.742-.42.1493-.942.224-1.568.224zm2.366-3.164v-1.54h1.624v1.54zm-.658 0-2.464-7.434h1.96l2.338 7.434zm14.159.434c-.924 0-1.717-.1633-2.38-.49-.662-.3267-1.204-.7513-1.624-1.274-.41-.5227-.714-1.092-.91-1.708s-.294-1.2087-.294-1.778v-.308c0-.6347.098-1.26.294-1.876.206-.616.518-1.176.938-1.68s.952-.9053 1.596-1.204c.654-.308 1.424-.462 2.31-.462.924 0 1.727.168 2.408.504.691.3267 1.242.7933 1.652 1.4.411.5973.658 1.2973.742 2.1h-2.002c-.074-.4667-.242-.8587-.504-1.176-.252-.3267-.574-.5693-.966-.728-.392-.168-.835-.252-1.33-.252-.504 0-.952.0887-1.344.266-.392.168-.718.4107-.98.728-.261.3173-.462.6907-.602 1.12-.13.4293-.196.9053-.196 1.428 0 .504.066.9707.196 1.4.14.4293.346.8073.616 1.134.271.3173.602.5647.994.742.402.1773.864.266 1.386.266.766 0 1.41-.1867 1.932-.56.532-.3827.854-.9147.966-1.596h2.002c-.093.728-.34 1.3953-.742 2.002-.401.6067-.952 1.092-1.652 1.456s-1.535.546-2.506.546zm10.078 0c-.672 0-1.265-.1073-1.778-.322s-.947-.504-1.302-.868c-.355-.3733-.625-.7933-.812-1.26-.177-.4667-.266-.952-.266-1.456v-.294c0-.5227.093-1.0173.28-1.484.196-.476.471-.896.826-1.26.364-.3733.803-.6627 1.316-.868.513-.2147 1.092-.322 1.736-.322s1.223.1073 1.736.322c.513.2053.947.4947 1.302.868.364.364.639.784.826 1.26.187.4667.28.9613.28 1.484v.294c0 .504-.093.9893-.28 1.456-.177.4667-.443.8867-.798 1.26-.355.364-.789.6533-1.302.868s-1.101.322-1.764.322zm0-1.666c.476 0 .877-.1027 1.204-.308.327-.2147.574-.4993.742-.854.168-.364.252-.7747.252-1.232 0-.4667-.089-.8773-.266-1.232-.168-.364-.42-.6487-.756-.854-.327-.2147-.719-.322-1.176-.322s-.854.1073-1.19.322c-.327.2053-.579.49-.756.854-.177.3547-.266.7653-.266 1.232 0 .4573.084.868.252 1.232.177.3547.429.6393.756.854.327.2053.728.308 1.204.308zm5.946 1.4v-10.22h1.946v10.22zm-.952-8.764v-1.456h2.898v1.456zm8.773 9.03c-.672 0-1.264-.1073-1.778-.322-.513-.2147-.947-.504-1.302-.868-.354-.3733-.625-.7933-.812-1.26-.177-.4667-.266-.952-.266-1.456v-.294c0-.5227.094-1.0173.28-1.484.196-.476.472-.896.826-1.26.364-.3733.803-.6627 1.316-.868.514-.2147 1.092-.322 1.736-.322s1.223.1073 1.736.322c.514.2053.948.4947 1.302.868.364.364.64.784.826 1.26.187.4667.28.9613.28 1.484v.294c0 .504-.093.9893-.28 1.456-.177.4667-.443.8867-.798 1.26-.354.364-.788.6533-1.302.868-.513.2147-1.101.322-1.764.322zm0-1.666c.476 0 .878-.1027 1.204-.308.327-.2147.574-.4993.742-.854.168-.364.252-.7747.252-1.232 0-.4667-.088-.8773-.266-1.232-.168-.364-.42-.6487-.756-.854-.326-.2147-.718-.322-1.176-.322-.457 0-.854.1073-1.19.322-.326.2053-.578.49-.756.854-.177.3547-.266.7653-.266 1.232 0 .4573.084.868.252 1.232.178.3547.43.6393.756.854.327.2053.728.308 1.204.308zm8.438 1.638c-.877 0-1.558-.2893-2.044-.868-.476-.5787-.714-1.4373-.714-2.576v-4.41h1.946v4.578c0 .4667.131.84.392 1.12.262.2707.616.406 1.064.406s.812-.1447 1.092-.434c.29-.2893.434-.6813.434-1.176v-4.494h1.946v7.616h-1.54v-3.234h.154c0 .7653-.098 1.4047-.294 1.918s-.49.9007-.882 1.162-.882.392-1.47.392zm6.352-.238v-7.602h1.54v3.22h-.042c0-1.092.233-1.918.7-2.478.466-.56 1.152-.84 2.058-.84h.28v1.694h-.532c-.654 0-1.162.1773-1.526.532-.355.3453-.532.8493-.532 1.512v3.962zm8.596.238c-1.046 0-1.867-.2193-2.464-.658-.588-.448-.896-1.064-.924-1.848h1.75c.028.2613.172.4993.434.714.261.2147.672.322 1.232.322.466 0 .835-.084 1.106-.252.28-.168.42-.3967.42-.686 0-.252-.108-.4527-.322-.602-.206-.1493-.56-.2473-1.064-.294l-.672-.07c-.85-.0933-1.503-.336-1.96-.728-.458-.392-.686-.9147-.686-1.568 0-.5227.13-.9613.392-1.316.261-.3547.62-.6207 1.078-.798.466-.1867.998-.28 1.596-.28.933 0 1.689.2053 2.268.616.578.4107.882 1.0127.91 1.806h-1.75c-.019-.2613-.15-.4853-.392-.672-.243-.1867-.593-.28-1.05-.28-.411 0-.728.0793-.952.238s-.336.364-.336.616c0 .2427.088.4293.266.56.186.1307.485.2193.896.266l.672.07c.896.0933 1.596.3407 2.1.742.513.4013.77.9427.77 1.624 0 .504-.14.9427-.42 1.316-.271.364-.654.6487-1.148.854-.495.2053-1.078.308-1.75.308z" fill="#2c245e"/><path d="m947.472 73v-9.268h1.372v9.268zm-3.108-8.988v-1.232h7.588v1.232zm9.237 8.988v-10.22h1.344v6.104h-.336c0-.7373.093-1.372.28-1.904.196-.5413.494-.9567.896-1.246.401-.2893.914-.434 1.54-.434h.056c.896 0 1.572.2987 2.03.896.457.588.686 1.4327.686 2.534v4.27h-1.344v-4.55c0-.6067-.173-1.078-.518-1.414-.336-.336-.775-.504-1.316-.504-.598 0-1.078.2007-1.442.602-.355.392-.532.91-.532 1.554v4.312zm12.133.252c-.654 0-1.218-.112-1.694-.336s-.864-.518-1.162-.882c-.299-.3733-.523-.7887-.672-1.246-.14-.4573-.21-.924-.21-1.4v-.252c0-.4853.07-.9567.21-1.414.149-.4573.373-.868.672-1.232.298-.3733.676-.6673 1.134-.882.466-.224 1.012-.336 1.638-.336.812 0 1.479.1773 2.002.532.532.3453.924.7933 1.176 1.344.261.5507.392 1.1387.392 1.764v.602h-6.636v-1.008h5.656l-.308.546c0-.532-.084-.9893-.252-1.372-.168-.392-.42-.6953-.756-.91s-.761-.322-1.274-.322c-.532 0-.976.1213-1.33.364-.346.2427-.607.574-.784.994-.168.42-.252.9053-.252 1.456 0 .532.084 1.0127.252 1.442.177.42.448.756.812 1.008.364.2427.826.364 1.386.364.588 0 1.064-.1307 1.428-.392.373-.2613.597-.5647.672-.91h1.26c-.103.5133-.308.9567-.616 1.33s-.696.658-1.162.854c-.467.196-.994.294-1.582.294zm8.663-.252v-10.22h1.344v10.22zm-1.036-9.156v-1.064h2.38v1.064zm8.402 9.408c-.653 0-1.227-.112-1.722-.336-.494-.224-.914-.518-1.26-.882-.336-.3733-.592-.7887-.77-1.246-.168-.4573-.252-.924-.252-1.4v-.252c0-.476.089-.9427.266-1.4.178-.4667.439-.882.784-1.246.346-.3733.766-.6673 1.26-.882.495-.224 1.06-.336 1.694-.336.635 0 1.2.112 1.694.336.495.2147.915.5087 1.26.882.346.364.607.7793.784 1.246.178.4573.266.924.266 1.4v.252c0 .476-.088.9427-.266 1.4-.168.4573-.424.8727-.77 1.246-.336.364-.751.658-1.246.882-.494.224-1.068.336-1.722.336zm0-1.204c.56 0 1.036-.1213 1.428-.364.402-.252.705-.588.91-1.008.215-.42.322-.8913.322-1.414 0-.532-.107-1.008-.322-1.428-.214-.42-.522-.7513-.924-.994-.392-.2427-.863-.364-1.414-.364-.541 0-1.012.1213-1.414.364-.401.2427-.709.574-.924.994-.214.42-.322.896-.322 1.428 0 .5227.103.994.308 1.414.215.42.518.756.91 1.008.402.2427.882.364 1.442.364zm8.845 3.864c-.345 0-.695-.014-1.05-.042-.345-.028-.676-.0653-.994-.112v-1.134c.336.0467.686.084 1.05.112.374.0373.724.056 1.05.056.682 0 1.223-.0933 1.624-.28.411-.1773.705-.462.882-.854.187-.3827.28-.8773.28-1.484v-1.428l.448-1.064c-.028.756-.186 1.386-.476 1.89-.289.4947-.667.868-1.134 1.12-.457.2427-.966.364-1.526.364-.522 0-1.003-.098-1.442-.294-.429-.2053-.802-.4853-1.12-.84-.308-.3547-.55-.7607-.728-1.218-.168-.4667-.252-.9567-.252-1.47v-.252c0-.5227.089-1.008.266-1.456.178-.4573.425-.854.742-1.19.318-.336.696-.5973 1.134-.784.448-.1867.938-.28 1.47-.28.626 0 1.176.1353 1.652.406.476.2613.85.6487 1.12 1.162.28.504.434 1.1247.462 1.862l-.392.014v-3.192h1.064v6.594c0 .896-.14 1.6193-.42 2.17-.27.56-.709.9707-1.316 1.232-.597.2613-1.395.392-2.394.392zm.406-4.088c.448 0 .854-.098 1.218-.294.374-.196.668-.476.882-.84.224-.3733.336-.8167.336-1.33v-.644c0-.504-.116-.9287-.35-1.274-.224-.3453-.518-.6067-.882-.784s-.76-.266-1.19-.266c-.485 0-.914.112-1.288.336-.373.224-.662.5413-.868.952-.205.4013-.308.8773-.308 1.428s.103 1.0313.308 1.442c.215.4107.504.728.868.952.374.2147.798.322 1.274.322zm9.656 1.428c-.65 0-1.226-.112-1.721-.336-.494-.224-.914-.518-1.26-.882-.336-.3733-.592-.7887-.77-1.246-.168-.4573-.252-.924-.252-1.4v-.252c0-.476.089-.9427.266-1.4.178-.4667.439-.882.784-1.246.346-.3733.766-.6673 1.26-.882.495-.224 1.063-.336 1.693-.336.64 0 1.2.112 1.7.336.49.2147.91.5087 1.26.882.34.364.6.7793.78 1.246.18.4573.27.924.27 1.4v.252c0 .476-.09.9427-.27 1.4-.17.4573-.43.8727-.77 1.246-.34.364-.75.658-1.25.882-.49.224-1.07.336-1.72.336zm0-1.204c.56 0 1.04-.1213 1.43-.364.4-.252.7-.588.91-1.008s.32-.8913.32-1.414c0-.532-.11-1.008-.32-1.428-.22-.42-.52-.7513-.92-.994s-.87-.364-1.42-.364c-.54 0-1.011.1213-1.413.364-.401.2427-.709.574-.924.994-.214.42-.322.896-.322 1.428 0 .5227.103.994.308 1.414.215.42.518.756.91 1.008.402.2427.881.364 1.441.364zm6.02.952v-7.476h1.06v3.206h-.17c0-.728.1-1.344.28-1.848.2-.5133.49-.9053.87-1.176.39-.2707.87-.406 1.46-.406h.05c.59 0 1.08.1353 1.46.406.39.2707.68.6627.87 1.176.19.504.28 1.12.28 1.848h-.39c0-.728.09-1.344.29-1.848.2-.5133.49-.9053.87-1.176.39-.2707.88-.406 1.47-.406h.05c.59 0 1.08.1353 1.47.406.4.2707.69.6627.87 1.176.2.504.3 1.12.3 1.848v4.27h-1.35v-4.564c0-.6067-.15-1.0733-.45-1.4-.29-.336-.71-.504-1.24-.504-.55 0-1 .1773-1.33.532-.34.3453-.51.8307-.51 1.456v4.48h-1.34v-4.564c0-.6067-.15-1.0733-.45-1.4-.3-.336-.71-.504-1.24-.504-.55 0-1 .1773-1.33.532-.34.3453-.51.8307-.51 1.456v4.48zm18.07 0v-2.24h-.22v-2.59c0-.5133-.14-.9007-.41-1.162-.26-.2613-.65-.392-1.16-.392-.29 0-.59.0047-.9.014s-.6.0187-.88.028-.52.0233-.73.042v-1.176c.21-.0187.42-.0327.65-.042.23-.0187.47-.028.71-.028.24-.0093.48-.014.7-.014.76 0 1.39.0933 1.88.28.48.1773.84.4713 1.07.882.24.4107.35.966.35 1.666v4.732zm-2.45.196c-.56 0-1.05-.0933-1.46-.28-.4-.196-.71-.476-.93-.84s-.33-.8027-.33-1.316c0-.532.12-.9753.35-1.33.25-.3547.6-.6207 1.05-.798.46-.1867 1.01-.28 1.66-.28h2.03v1.008h-2.09c-.54 0-.96.1307-1.25.392s-.43.5973-.43 1.008.14.742.43.994.71.378 1.25.378c.32 0 .62-.056.91-.168.29-.1213.53-.3173.71-.588.2-.28.31-.6627.33-1.148l.36.532c-.05.532-.18.98-.39 1.344-.21.3547-.5.6253-.87.812-.36.1867-.81.28-1.33.28zm5.98-.196v-7.476h1.06v3.08h-.05c0-1.092.24-1.89.71-2.394.49-.5133 1.21-.77 2.17-.77h.25v1.204h-.47c-.75 0-1.32.2007-1.72.602-.41.392-.61.9613-.61 1.708v4.046zm10.89 0-2.81-3.486h-1.23l3.43-3.99h1.41l-3.11 3.598.1-.714 3.77 4.592zm-5.15 0v-10.22h1.35v10.22zm11.21 0v-7.476h1.07v3.08h-.06c0-1.092.24-1.89.72-2.394.48-.5133 1.2-.77 2.17-.77h.25v1.204h-.48c-.75 0-1.32.2007-1.72.602-.4.392-.6.9613-.6 1.708v4.046zm8.84.252c-.65 0-1.22-.112-1.69-.336-.48-.224-.87-.518-1.16-.882-.3-.3733-.53-.7887-.68-1.246-.14-.4573-.21-.924-.21-1.4v-.252c0-.4853.07-.9567.21-1.414.15-.4573.38-.868.68-1.232.29-.3733.67-.6673 1.13-.882.47-.224 1.01-.336 1.64-.336.81 0 1.48.1773 2 .532.53.3453.92.7933 1.18 1.344s.39 1.1387.39 1.764v.602h-6.64v-1.008h5.66l-.31.546c0-.532-.08-.9893-.25-1.372-.17-.392-.42-.6953-.76-.91-.33-.2147-.76-.322-1.27-.322-.53 0-.98.1213-1.33.364s-.61.574-.79.994c-.16.42-.25.9053-.25 1.456 0 .532.09 1.0127.25 1.442.18.42.45.756.82 1.008.36.2427.82.364 1.38.364.59 0 1.07-.1307 1.43-.392.37-.2613.6-.5647.67-.91h1.26c-.1.5133-.31.9567-.61 1.33-.31.3733-.7.658-1.17.854-.46.196-.99.294-1.58.294zm5.4 2.548v-10.276h1.06v3.234l-.25-.028c.04-.8027.21-1.456.5-1.96.3-.5133.69-.8913 1.16-1.134.48-.2427 1-.364 1.56-.364.54 0 1.03.1027 1.47.308.45.2053.83.4853 1.15.84.31.3547.56.7653.72 1.232.17.4667.26.9613.26 1.484v.252c0 .5227-.09 1.0173-.27 1.484s-.43.8773-.76 1.232c-.31.3547-.7.6347-1.14.84s-.93.308-1.46.308-1.04-.1167-1.53-.35c-.48-.2333-.88-.6113-1.2-1.134s-.5-1.2087-.55-2.058l.62 1.12v4.97zm3.79-3.724c.5 0 .94-.1167 1.32-.35.37-.2427.66-.574.86-.994.21-.4293.31-.9193.31-1.47 0-.56-.1-1.05-.31-1.47-.2-.42-.49-.7467-.86-.98-.38-.2427-.82-.364-1.32-.364-.45 0-.86.1027-1.25.308-.38.196-.69.4853-.92.868-.22.3733-.34.826-.34 1.358v.644c0 .5133.12.952.35 1.316.24.364.54.644.93.84.38.196.79.294 1.23.294zm5.86.924v-7.476h1.06v3.08h-.05c0-1.092.23-1.89.71-2.394.49-.5133 1.21-.77 2.17-.77h.25v1.204h-.47c-.75 0-1.32.2007-1.73.602-.4.392-.6.9613-.6 1.708v4.046zm8.84.252c-.66 0-1.22-.112-1.7-.336-.47-.224-.86-.518-1.16-.882-.3-.3733-.52-.7887-.67-1.246-.14-.4573-.21-.924-.21-1.4v-.252c0-.4853.07-.9567.21-1.414.15-.4573.37-.868.67-1.232.3-.3733.68-.6673 1.13-.882.47-.224 1.02-.336 1.64-.336.81 0 1.48.1773 2 .532.54.3453.93.7933 1.18 1.344.26.5507.39 1.1387.39 1.764v.602h-6.63v-1.008h5.65l-.31.546c0-.532-.08-.9893-.25-1.372-.17-.392-.42-.6953-.75-.91-.34-.2147-.76-.322-1.28-.322-.53 0-.97.1213-1.33.364-.34.2427-.6.574-.78.994-.17.42-.25.9053-.25 1.456 0 .532.08 1.0127.25 1.442.18.42.45.756.81 1.008.36.2427.83.364 1.39.364.58 0 1.06-.1307 1.42-.392.38-.2613.6-.5647.68-.91h1.26c-.11.5133-.31.9567-.62 1.33s-.7.658-1.16.854c-.47.196-1 .294-1.58.294zm7.84-.028c-.98 0-1.74-.21-2.28-.63-.53-.42-.81-.994-.83-1.722h1.26c.02.2893.17.5647.44.826.28.252.75.378 1.41.378.6 0 1.05-.1167 1.37-.35.32-.2427.48-.5367.48-.882 0-.308-.12-.546-.35-.714-.24-.1773-.61-.294-1.14-.35l-.81-.084c-.71-.0747-1.29-.2847-1.73-.63-.45-.3547-.68-.8493-.68-1.484 0-.476.13-.882.37-1.218.24-.3453.58-.6067 1.01-.784.43-.1867.92-.28 1.48-.28.84 0 1.52.1867 2.04.56.53.3733.8.9287.82 1.666h-1.26c-.01-.2987-.15-.5507-.42-.756-.27-.2147-.66-.322-1.18-.322s-.92.1073-1.19.322-.41.4853-.41.812c0 .28.1.504.28.672.2.168.52.2753.96.322l.81.084c.8.084 1.44.308 1.93.672.49.3547.73.8587.73 1.512 0 .4667-.14.882-.41 1.246-.26.3547-.62.6347-1.09.84-.47.196-1 .294-1.61.294zm8.23.028c-.65 0-1.21-.112-1.69-.336s-.86-.518-1.16-.882c-.3-.3733-.52-.7887-.67-1.246-.14-.4573-.21-.924-.21-1.4v-.252c0-.4853.07-.9567.21-1.414.15-.4573.37-.868.67-1.232.3-.3733.67-.6673 1.13-.882.47-.224 1.01-.336 1.64-.336.81 0 1.48.1773 2 .532.53.3453.93.7933 1.18 1.344.26.5507.39 1.1387.39 1.764v.602h-6.64v-1.008h5.66l-.31.546c0-.532-.08-.9893-.25-1.372-.17-.392-.42-.6953-.76-.91-.33-.2147-.76-.322-1.27-.322-.53 0-.98.1213-1.33.364s-.61.574-.78.994-.26.9053-.26 1.456c0 .532.09 1.0127.26 1.442.17.42.44.756.81 1.008.36.2427.82.364 1.38.364.59 0 1.07-.1307 1.43-.392.38-.2613.6-.5647.67-.91h1.26c-.1.5133-.3.9567-.61 1.33s-.7.658-1.16.854c-.47.196-1 .294-1.59.294zm5.4-.252v-7.476h1.06v3.206h-.17c0-.7373.1-1.358.3-1.862.2-.5133.51-.9007.92-1.162.41-.2707.93-.406 1.56-.406h.05c.95 0 1.64.294 2.09.882.46.588.68 1.4373.68 2.548v4.27h-1.34v-4.55c0-.5787-.16-1.0407-.49-1.386-.33-.3547-.77-.532-1.34-.532-.59 0-1.07.182-1.43.546-.37.364-.55.8493-.55 1.456v4.466zm11.87.084c-.56 0-1.05-.0793-1.46-.238-.4-.1587-.71-.4293-.94-.812-.21-.392-.32-.9193-.32-1.582v-7.196h1.29v7.364c0 .4013.1.714.32.938.22.2147.54.322.94.322h1.31v1.204zm-4.01-6.552v-1.008h5.15v1.008zm9.45 6.692c-.98 0-1.74-.21-2.28-.63-.53-.42-.81-.994-.83-1.722h1.26c.02.2893.17.5647.44.826.28.252.75.378 1.41.378.6 0 1.05-.1167 1.37-.35.32-.2427.48-.5367.48-.882 0-.308-.12-.546-.35-.714-.24-.1773-.61-.294-1.14-.35l-.81-.084c-.71-.0747-1.29-.2847-1.73-.63-.45-.3547-.68-.8493-.68-1.484 0-.476.13-.882.37-1.218.24-.3453.58-.6067 1.01-.784.43-.1867.92-.28 1.48-.28.84 0 1.52.1867 2.04.56.53.3733.8.9287.82 1.666h-1.26c-.01-.2987-.15-.5507-.42-.756-.27-.2147-.66-.322-1.18-.322s-.92.1073-1.19.322-.41.4853-.41.812c0 .28.1.504.28.672.2.168.52.2753.96.322l.81.084c.8.084 1.44.308 1.93.672.49.3547.73.8587.73 1.512 0 .4667-.14.882-.41 1.246-.26.3547-.62.6347-1.09.84-.47.196-1 .294-1.61.294zm11.15-.14c-.56 0-1.04-.0793-1.45-.238-.4-.1587-.72-.4293-.94-.812-.22-.392-.32-.9193-.32-1.582v-7.196h1.29v7.364c0 .4013.1.714.32.938.22.2147.53.322.94.322h1.31v1.204zm-4-6.552v-1.008h5.15v1.008zm9.24 6.468 1.51-7.224h1.82l1.76 7.224h-1.15l-1.76-7.196h.45l-1.53 7.196zm-.69 0v-1.064h1.55v1.064zm-.31 0-2.11-7.476h1.29l2.05 7.476zm5.22 0v-1.064h1.56v1.064zm.63 0 1.8-7.476h1.21l-1.83 7.476zm8.14.252c-.66 0-1.23-.112-1.73-.336-.49-.224-.91-.518-1.26-.882-.33-.3733-.59-.7887-.77-1.246-.16-.4573-.25-.924-.25-1.4v-.252c0-.476.09-.9427.27-1.4.18-.4667.44-.882.78-1.246.35-.3733.77-.6673 1.26-.882.5-.224 1.06-.336 1.7-.336.63 0 1.2.112 1.69.336.5.2147.92.5087 1.26.882.35.364.61.7793.78 1.246.18.4573.27.924.27 1.4v.252c0 .476-.09.9427-.27 1.4-.16.4573-.42.8727-.77 1.246-.33.364-.75.658-1.24.882-.5.224-1.07.336-1.72.336zm0-1.204c.56 0 1.03-.1213 1.42-.364.41-.252.71-.588.91-1.008.22-.42.33-.8913.33-1.414 0-.532-.11-1.008-.33-1.428-.21-.42-.52-.7513-.92-.994-.39-.2427-.86-.364-1.41-.364-.54 0-1.02.1213-1.42.364s-.71.574-.92.994c-.22.42-.32.896-.32 1.428 0 .5227.1.994.3 1.414.22.42.52.756.91 1.008.41.2427.89.364 1.45.364zm12.32 1.204c-.53 0-1.02-.098-1.47-.294s-.84-.4713-1.17-.826-.59-.7653-.77-1.232-.27-.9707-.27-1.512v-.252c0-.532.09-1.0313.27-1.498.17-.4667.42-.8773.74-1.232s.71-.63 1.15-.826c.44-.2053.94-.308 1.48-.308.57 0 1.09.1213 1.55.364.47.2333.85.602 1.15 1.106s.47 1.1573.51 1.96l-.56-.896v-5.026h1.34v10.22h-1.06v-3.318h.39c-.04.8493-.22 1.54-.53 2.072-.32.5227-.72.9053-1.21 1.148-.47.2333-.99.35-1.54.35zm.18-1.176c.46 0 .88-.1027 1.25-.308s.67-.4993.9-.882c.22-.392.33-.8493.33-1.372v-.644c0-.5133-.12-.9473-.35-1.302-.22-.364-.53-.6393-.91-.826-.37-.196-.78-.294-1.23-.294-.5 0-.93.1167-1.32.35-.37.2333-.66.56-.88.98-.2.42-.31.9147-.31 1.484s.11 1.0687.33 1.498c.21.42.51.7467.89.98.38.224.82.336 1.3.336zm6.72.924v-7.476h1.34v7.476zm-1.15-6.412v-1.064h2.49v1.064zm1.52-2.268c-.3 0-.52-.0793-.67-.238-.14-.1587-.21-.3593-.21-.602s.07-.4433.21-.602c.15-.1587.37-.238.67-.238s.52.0793.66.238c.15.1587.23.3593.23.602s-.08.4433-.23.602c-.14.1587-.36.238-.66.238zm6.02 8.904c-.98 0-1.74-.21-2.28-.63s-.81-.994-.83-1.722h1.26c.02.2893.16.5647.43.826.28.252.76.378 1.42.378.6 0 1.05-.1167 1.37-.35.32-.2427.48-.5367.48-.882 0-.308-.12-.546-.35-.714-.24-.1773-.62-.294-1.14-.35l-.81-.084c-.71-.0747-1.29-.2847-1.74-.63-.44-.3547-.67-.8493-.67-1.484 0-.476.12-.882.37-1.218.24-.3453.57-.6067 1-.784.43-.1867.93-.28 1.49-.28.84 0 1.52.1867 2.04.56s.8.9287.81 1.666h-1.26c-.01-.2987-.15-.5507-.42-.756-.26-.2147-.65-.322-1.17-.322s-.92.1073-1.19.322-.41.4853-.41.812c0 .28.1.504.28.672.2.168.52.2753.95.322l.82.084c.8.084 1.44.308 1.93.672.48.3547.73.8587.73 1.512 0 .4667-.14.882-.41 1.246-.26.3547-.63.6347-1.09.84-.47.196-1.01.294-1.61.294zm7.97-.14c-.56 0-1.05-.0793-1.46-.238-.4-.1587-.71-.4293-.94-.812-.21-.392-.32-.9193-.32-1.582v-7.196h1.29v7.364c0 .4013.11.714.32.938.22.2147.54.322.94.322h1.31v1.204zm-4.01-6.552v-1.008h5.15v1.008zm7.42 6.468v-7.476h1.34v7.476zm-1.15-6.412v-1.064h2.49v1.064zm1.53-2.268c-.3 0-.53-.0793-.68-.238-.14-.1587-.21-.3593-.21-.602s.07-.4433.21-.602c.15-.1587.38-.238.68-.238s.51.0793.65.238c.15.1587.23.3593.23.602s-.08.4433-.23.602c-.14.1587-.35.238-.65.238zm3.56 8.68v-7.476h1.07v3.206h-.17c0-.7373.1-1.358.29-1.862.21-.5133.51-.9007.93-1.162.41-.2707.92-.406 1.55-.406h.06c.94 0 1.63.294 2.08.882.46.588.69 1.4373.69 2.548v4.27h-1.35v-4.55c0-.5787-.16-1.0407-.49-1.386-.32-.3547-.77-.532-1.34-.532-.59 0-1.06.182-1.43.546-.36.364-.54.8493-.54 1.456v4.466zm12.16.252c-.64 0-1.2-.112-1.68-.336-.46-.224-.85-.5227-1.16-.896-.31-.3827-.54-.8027-.7-1.26-.15-.4573-.22-.9147-.22-1.372v-.252c0-.476.07-.9427.22-1.4.16-.4573.39-.868.7-1.232.32-.3733.71-.672 1.18-.896.46-.224 1.01-.336 1.63-.336.63 0 1.19.1167 1.68.35.51.2333.91.5647 1.21.994.31.42.48.9193.52 1.498h-1.29c-.07-.4667-.28-.854-.65-1.162-.36-.3173-.85-.476-1.47-.476-.53 0-.97.1213-1.33.364-.35.2427-.62.574-.79.994-.18.42-.27.896-.27 1.428 0 .5133.09.9847.27 1.414.17.42.44.756.79 1.008.37.2427.82.364 1.36.364.42 0 .79-.0747 1.09-.224.31-.1493.56-.35.75-.602.18-.252.3-.5367.33-.854h1.29c-.03.588-.2 1.0967-.52 1.526-.31.4293-.72.7653-1.23 1.008-.5.2333-1.07.35-1.71.35zm8.2-.168c-.56 0-1.05-.0793-1.46-.238-.4-.1587-.71-.4293-.94-.812-.21-.392-.32-.9193-.32-1.582v-7.196h1.29v7.364c0 .4013.11.714.32.938.23.2147.54.322.94.322h1.32v1.204zm-4.01-6.552v-1.008h5.16v1.008zm-254.944 26.72c-.653 0-1.218-.112-1.694-.336s-.863-.518-1.162-.882c-.299-.3733-.523-.7887-.672-1.246-.14-.4573-.21-.924-.21-1.4v-.252c0-.4853.07-.9567.21-1.414.149-.4573.373-.868.672-1.232.299-.3733.677-.6673 1.134-.882.467-.224 1.013-.336 1.638-.336.812 0 1.479.1773 2.002.532.532.3453.924.7933 1.176 1.344.261.5507.392 1.1387.392 1.764v.602h-6.636v-1.008h5.656l-.308.546c0-.532-.084-.9893-.252-1.372-.168-.392-.42-.6953-.756-.91s-.761-.322-1.274-.322c-.532 0-.975.1213-1.33.364-.345.2427-.607.574-.784.994-.168.42-.252.9053-.252 1.456 0 .532.084 1.0127.252 1.442.177.42.448.756.812 1.008.364.2427.826.364 1.386.364.588 0 1.064-.1307 1.428-.392.373-.2613.597-.5647.672-.91h1.26c-.103.5133-.308.9567-.616 1.33s-.695.658-1.162.854-.994.294-1.582.294zm5.394-.252v-7.476h1.064v3.206h-.168c0-.7373.098-1.358.294-1.862.206-.5133.514-.9007.924-1.162.411-.2707.929-.406 1.554-.406h.056c.943 0 1.638.294 2.086.882.458.588.686 1.4373.686 2.548v4.27h-1.344v-4.55c0-.5787-.163-1.0407-.49-1.386-.326-.3547-.774-.532-1.344-.532-.588 0-1.064.182-1.428.546s-.546.8493-.546 1.456v4.466zm11.867.084c-.56 0-1.045-.0793-1.456-.238-.401-.1587-.714-.4293-.938-.812-.214-.392-.322-.9193-.322-1.582v-7.196h1.288v7.364c0 .4013.108.714.322.938.224.2147.537.322.938.322h1.316v1.204zm-4.004-6.552v-1.008h5.152v1.008zm7.417 6.468v-7.476h1.344v7.476zm-1.148-6.412v-1.064h2.492v1.064zm1.526-2.268c-.298 0-.522-.0793-.672-.238-.14-.1587-.21-.3593-.21-.602s.07-.4433.21-.602c.15-.1587.374-.238.672-.238.299 0 .518.0793.658.238.15.1587.224.3593.224.602s-.074.4433-.224.602c-.14.1587-.359.238-.658.238zm6.477 8.764c-.56 0-1.045-.0793-1.456-.238-.401-.1587-.714-.4293-.938-.812-.215-.392-.322-.9193-.322-1.582v-7.196h1.288v7.364c0 .4013.107.714.322.938.224.2147.537.322.938.322h1.316v1.204zm-4.004-6.552v-1.008h5.152v1.008zm7.417 6.468v-7.476h1.344v7.476zm-1.148-6.412v-1.064h2.492v1.064zm1.526-2.268c-.299 0-.523-.0793-.672-.238-.14-.1587-.21-.3593-.21-.602s.07-.4433.21-.602c.149-.1587.373-.238.672-.238s.518.0793.658.238c.149.1587.224.3593.224.602s-.075.4433-.224.602c-.14.1587-.359.238-.658.238zm6.743 8.932c-.654 0-1.218-.112-1.694-.336s-.864-.518-1.162-.882c-.299-.3733-.523-.7887-.672-1.246-.14-.4573-.21-.924-.21-1.4v-.252c0-.4853.07-.9567.21-1.414.149-.4573.373-.868.672-1.232.298-.3733.676-.6673 1.134-.882.466-.224 1.012-.336 1.638-.336.812 0 1.479.1773 2.002.532.532.3453.924.7933 1.176 1.344.261.5507.392 1.1387.392 1.764v.602h-6.636v-1.008h5.656l-.308.546c0-.532-.084-.9893-.252-1.372-.168-.392-.42-.6953-.756-.91s-.761-.322-1.274-.322c-.532 0-.976.1213-1.33.364-.346.2427-.607.574-.784.994-.168.42-.252.9053-.252 1.456 0 .532.084 1.0127.252 1.442.177.42.448.756.812 1.008.364.2427.826.364 1.386.364.588 0 1.064-.1307 1.428-.392.373-.2613.597-.5647.672-.91h1.26c-.103.5133-.308.9567-.616 1.33s-.696.658-1.162.854c-.467.196-.994.294-1.582.294zm7.844-.028c-.98 0-1.741-.21-2.282-.63-.532-.42-.808-.994-.826-1.722h1.26c.018.2893.163.5647.434.826.28.252.751.378 1.414.378.597 0 1.054-.1167 1.372-.35.317-.2427.476-.5367.476-.882 0-.308-.117-.546-.35-.714-.234-.1773-.612-.294-1.134-.35l-.812-.084c-.71-.0747-1.288-.2847-1.736-.63-.448-.3547-.672-.8493-.672-1.484 0-.476.121-.882.364-1.218.242-.3453.578-.6067 1.008-.784.429-.1867.924-.28 1.484-.28.84 0 1.521.1867 2.044.56.522.3733.793.9287.812 1.666h-1.26c-.01-.2987-.15-.5507-.42-.756-.262-.2147-.654-.322-1.176-.322-.523 0-.92.1073-1.19.322-.271.2147-.406.4853-.406.812 0 .28.093.504.28.672.196.168.513.2753.952.322l.812.084c.802.084 1.446.308 1.932.672.485.3547.728.8587.728 1.512 0 .4667-.136.882-.406 1.246-.262.3547-.626.6347-1.092.84-.467.196-1.004.294-1.61.294zm11.447.028c-.64 0-1.2-.112-1.68-.336-.47-.224-.85-.5227-1.16-.896-.31-.3827-.54-.8027-.7-1.26-.15-.4573-.23-.9147-.23-1.372v-.252c0-.476.08-.9427.23-1.4.16-.4573.39-.868.7-1.232.32-.3733.71-.672 1.17-.896.47-.224 1.02-.336 1.64-.336.63 0 1.19.1167 1.68.35.51.2333.91.5647 1.21.994.3.42.48.9193.51 1.498h-1.28c-.07-.4667-.28-.854-.65-1.162-.36-.3173-.85-.476-1.47-.476-.53 0-.97.1213-1.33.364-.35.2427-.62.574-.8.994-.17.42-.26.896-.26 1.428 0 .5133.09.9847.26 1.414.18.42.45.756.8 1.008.37.2427.82.364 1.36.364.42 0 .78-.0747 1.09-.224s.56-.35.74-.602c.19-.252.3-.5367.34-.854h1.29c-.03.588-.2 1.0967-.52 1.526-.31.4293-.72.7653-1.23 1.008-.51.2333-1.08.35-1.71.35zm8.73 0c-.65 0-1.23-.112-1.72-.336-.5-.224-.92-.518-1.26-.882-.34-.3733-.6-.7887-.77-1.246s-.26-.924-.26-1.4v-.252c0-.476.09-.9427.27-1.4.18-.4667.44-.882.78-1.246.35-.3733.77-.6673 1.26-.882.5-.224 1.06-.336 1.7-.336.63 0 1.2.112 1.69.336.5.2147.92.5087 1.26.882.35.364.61.7793.79 1.246.17.4573.26.924.26 1.4v.252c0 .476-.09.9427-.26 1.4s-.43.8727-.77 1.246c-.34.364-.75.658-1.25.882-.49.224-1.07.336-1.72.336zm0-1.204c.56 0 1.03-.1213 1.43-.364.4-.252.7-.588.91-1.008s.32-.8913.32-1.414c0-.532-.11-1.008-.32-1.428-.22-.42-.53-.7513-.93-.994-.39-.2427-.86-.364-1.41-.364-.54 0-1.01.1213-1.42.364-.4.2427-.7.574-.92.994-.21.42-.32.896-.32 1.428 0 .5227.1.994.31 1.414s.51.756.91 1.008c.4.2427.88.364 1.44.364zm6.02.952v-7.476h1.06v3.206h-.17c0-.728.09-1.344.28-1.848.2-.5133.49-.9053.87-1.176s.87-.406 1.46-.406h.05c.59 0 1.07.1353 1.46.406s.68.6627.87 1.176c.18.504.28 1.12.28 1.848h-.4c0-.728.1-1.344.3-1.848.19-.5133.48-.9053.87-1.176s.88-.406 1.47-.406h.05c.59 0 1.08.1353 1.47.406s.68.6627.87 1.176c.2.504.29 1.12.29 1.848v4.27h-1.34v-4.564c0-.6067-.15-1.0733-.45-1.4-.3-.336-.71-.504-1.24-.504-.56 0-1 .1773-1.33.532-.34.3453-.51.8307-.51 1.456v4.48h-1.34v-4.564c0-.6067-.15-1.0733-.45-1.4-.3-.336-.71-.504-1.25-.504-.55 0-.99.1773-1.33.532-.33.3453-.5.8307-.5 1.456v4.48zm13.91 0v-7.476h1.34v7.476zm-1.15-6.412v-1.064h2.49v1.064zm1.53-2.268c-.3 0-.53-.0793-.68-.238-.14-.1587-.21-.3593-.21-.602s.07-.4433.21-.602c.15-.1587.38-.238.68-.238.29 0 .51.0793.65.238.15.1587.23.3593.23.602s-.08.4433-.23.602c-.14.1587-.36.238-.65.238zm3.56 8.68v-7.476h1.06v3.206h-.16c0-.7373.09-1.358.29-1.862.21-.5133.51-.9007.92-1.162.42-.2707.93-.406 1.56-.406h.05c.95 0 1.64.294 2.09.882.46.588.69 1.4373.69 2.548v4.27h-1.35v-4.55c0-.5787-.16-1.0407-.49-1.386-.32-.3547-.77-.532-1.34-.532-.59 0-1.07.182-1.43.546s-.55.8493-.55 1.456v4.466zm11.78 2.912c-.34 0-.69-.014-1.05-.042-.34-.028-.67-.0653-.99-.112v-1.134c.34.0467.69.084 1.05.112.37.0373.72.056 1.05.056.68 0 1.22-.0933 1.62-.28.41-.1773.71-.462.89-.854.18-.3827.28-.8773.28-1.484v-1.428l.44-1.064c-.02.756-.18 1.386-.47 1.89-.29.4947-.67.868-1.14 1.12-.45.2427-.96.364-1.52.364-.52 0-1.01-.098-1.44-.294-.43-.2053-.81-.4853-1.12-.84s-.55-.7607-.73-1.218c-.17-.4667-.25-.9567-.25-1.47v-.252c0-.5227.08-1.008.26-1.456.18-.4573.43-.854.74-1.19.32-.336.7-.5973 1.14-.784.45-.1867.94-.28 1.47-.28.62 0 1.17.1353 1.65.406.48.2613.85.6487 1.12 1.162.28.504.43 1.1247.46 1.862l-.39.014v-3.192h1.06v6.594c0 .896-.14 1.6193-.42 2.17-.27.56-.71.9707-1.31 1.232s-1.4.392-2.4.392zm.41-4.088c.45 0 .85-.098 1.22-.294s.67-.476.88-.84c.22-.3733.34-.8167.34-1.33v-.644c0-.504-.12-.9287-.35-1.274s-.52-.6067-.89-.784c-.36-.1773-.76-.266-1.19-.266-.48 0-.91.112-1.28.336-.38.224-.67.5413-.87.952-.21.4013-.31.8773-.31 1.428s.1 1.0313.31 1.442.5.728.87.952c.37.2147.79.322 1.27.322zm12.31 1.26c-.56 0-1.04-.0793-1.46-.238-.4-.1587-.71-.4293-.93-.812-.22-.392-.33-.9193-.33-1.582v-7.196h1.29v7.364c0 .4013.11.714.32.938.23.2147.54.322.94.322h1.32v1.204zm-4-6.552v-1.008h5.15v1.008zm10.44 6.72c-.65 0-1.23-.112-1.72-.336-.5-.224-.92-.518-1.26-.882-.34-.3733-.6-.7887-.77-1.246s-.26-.924-.26-1.4v-.252c0-.476.09-.9427.27-1.4.18-.4667.44-.882.78-1.246.35-.3733.77-.6673 1.26-.882.5-.224 1.06-.336 1.7-.336.63 0 1.2.112 1.69.336.5.2147.92.5087 1.26.882.35.364.61.7793.79 1.246.17.4573.26.924.26 1.4v.252c0 .476-.09.9427-.26 1.4s-.43.8727-.77 1.246c-.34.364-.75.658-1.25.882-.49.224-1.07.336-1.72.336zm0-1.204c.56 0 1.03-.1213 1.43-.364.4-.252.7-.588.91-1.008s.32-.8913.32-1.414c0-.532-.11-1.008-.32-1.428-.22-.42-.53-.7513-.93-.994-.39-.2427-.86-.364-1.41-.364-.54 0-1.01.1213-1.42.364-.4.2427-.7.574-.92.994-.21.42-.32.896-.32 1.428 0 .5227.1.994.31 1.414s.51.756.91 1.008c.4.2427.88.364 1.44.364zm8.84 3.864c-.34 0-.69-.014-1.05-.042-.34-.028-.67-.0653-.99-.112v-1.134c.34.0467.69.084 1.05.112.37.0373.72.056 1.05.056.68 0 1.22-.0933 1.62-.28.41-.1773.71-.462.89-.854.18-.3827.28-.8773.28-1.484v-1.428l.44-1.064c-.02.756-.18 1.386-.47 1.89-.29.4947-.67.868-1.14 1.12-.45.2427-.96.364-1.52.364-.52 0-1.01-.098-1.44-.294-.43-.2053-.81-.4853-1.12-.84s-.55-.7607-.73-1.218c-.17-.4667-.25-.9567-.25-1.47v-.252c0-.5227.08-1.008.26-1.456.18-.4573.43-.854.74-1.19.32-.336.7-.5973 1.14-.784.45-.1867.94-.28 1.47-.28.62 0 1.17.1353 1.65.406.48.2613.85.6487 1.12 1.162.28.504.43 1.1247.46 1.862l-.39.014v-3.192h1.06v6.594c0 .896-.14 1.6193-.42 2.17-.27.56-.71.9707-1.31 1.232s-1.4.392-2.4.392zm.41-4.088c.45 0 .85-.098 1.22-.294s.67-.476.88-.84c.22-.3733.34-.8167.34-1.33v-.644c0-.504-.12-.9287-.35-1.274s-.52-.6067-.89-.784c-.36-.1773-.76-.266-1.19-.266-.48 0-.91.112-1.28.336-.38.224-.67.5413-.87.952-.21.4013-.31.8773-.31 1.428s.1 1.0313.31 1.442.5.728.87.952c.37.2147.79.322 1.27.322zm9.39 1.428c-.65 0-1.22-.112-1.69-.336-.48-.224-.87-.518-1.16-.882-.3-.3733-.53-.7887-.68-1.246-.14-.4573-.21-.924-.21-1.4v-.252c0-.4853.07-.9567.21-1.414.15-.4573.38-.868.68-1.232.29-.3733.67-.6673 1.13-.882.47-.224 1.01-.336 1.64-.336.81 0 1.48.1773 2 .532.53.3453.92.7933 1.18 1.344s.39 1.1387.39 1.764v.602h-6.64v-1.008h5.66l-.31.546c0-.532-.08-.9893-.25-1.372-.17-.392-.42-.6953-.76-.91-.33-.2147-.76-.322-1.27-.322-.53 0-.98.1213-1.33.364s-.61.574-.79.994c-.16.42-.25.9053-.25 1.456 0 .532.09 1.0127.25 1.442.18.42.45.756.82 1.008.36.2427.82.364 1.38.364.59 0 1.07-.1307 1.43-.392.37-.2613.6-.5647.67-.91h1.26c-.1.5133-.31.9567-.61 1.33-.31.3733-.7.658-1.17.854-.46.196-.99.294-1.58.294zm8.31-.168c-.56 0-1.05-.0793-1.46-.238-.4-.1587-.71-.4293-.94-.812-.21-.392-.32-.9193-.32-1.582v-7.196h1.29v7.364c0 .4013.11.714.32.938.23.2147.54.322.94.322h1.32v1.204zm-4.01-6.552v-1.008h5.16v1.008zm7.06 6.468v-10.22h1.34v6.104h-.34c0-.7373.1-1.372.28-1.904.2-.5413.5-.9567.9-1.246s.92-.434 1.54-.434h.06c.89 0 1.57.2987 2.03.896.45.588.68 1.4327.68 2.534v4.27h-1.34v-4.55c0-.6067-.17-1.078-.52-1.414-.34-.336-.77-.504-1.32-.504-.59 0-1.07.2007-1.44.602-.35.392-.53.91-.53 1.554v4.312zm12.13.252c-.65 0-1.22-.112-1.69-.336-.48-.224-.87-.518-1.17-.882-.3-.3733-.52-.7887-.67-1.246-.14-.4573-.21-.924-.21-1.4v-.252c0-.4853.07-.9567.21-1.414.15-.4573.37-.868.67-1.232.3-.3733.68-.6673 1.14-.882.46-.224 1.01-.336 1.64-.336.81 0 1.47.1773 2 .532.53.3453.92.7933 1.17 1.344.26.5507.4 1.1387.4 1.764v.602h-6.64v-1.008h5.66l-.31.546c0-.532-.09-.9893-.25-1.372-.17-.392-.42-.6953-.76-.91s-.76-.322-1.27-.322c-.54 0-.98.1213-1.33.364s-.61.574-.79.994c-.17.42-.25.9053-.25 1.456 0 .532.08 1.0127.25 1.442.18.42.45.756.81 1.008.37.2427.83.364 1.39.364.59 0 1.06-.1307 1.43-.392s.59-.5647.67-.91h1.26c-.1.5133-.31.9567-.62 1.33-.3.3733-.69.658-1.16.854s-.99.294-1.58.294zm5.39-.252v-7.476h1.07v3.08h-.06c0-1.092.24-1.89.72-2.394.48-.5133 1.2-.77 2.17-.77h.25v1.204h-.48c-.74 0-1.32.2007-1.72.602-.4.392-.6.9613-.6 1.708v4.046zm11.84.084c-.56 0-1.04-.0793-1.45-.238-.4-.1587-.72-.4293-.94-.812-.22-.392-.32-.9193-.32-1.582v-7.196h1.29v7.364c0 .4013.1.714.32.938.22.2147.53.322.94.322h1.31v1.204zm-4-6.552v-1.008h5.15v1.008zm10.44 6.72c-.65 0-1.23-.112-1.72-.336s-.91-.518-1.26-.882c-.34-.3733-.59-.7887-.77-1.246-.17-.4573-.25-.924-.25-1.4v-.252c0-.476.09-.9427.26-1.4.18-.4667.44-.882.79-1.246.34-.3733.76-.6673 1.26-.882.49-.224 1.06-.336 1.69-.336.64 0 1.2.112 1.7.336.49.2147.91.5087 1.26.882.34.364.6.7793.78 1.246.18.4573.27.924.27 1.4v.252c0 .476-.09.9427-.27 1.4-.17.4573-.42.8727-.77 1.246-.34.364-.75.658-1.25.882-.49.224-1.06.336-1.72.336zm0-1.204c.56 0 1.04-.1213 1.43-.364.4-.252.7-.588.91-1.008s.32-.8913.32-1.414c0-.532-.11-1.008-.32-1.428s-.52-.7513-.92-.994-.87-.364-1.42-.364c-.54 0-1.01.1213-1.41.364s-.71.574-.93.994c-.21.42-.32.896-.32 1.428 0 .5227.1.994.31 1.414s.52.756.91 1.008c.4.2427.88.364 1.44.364zm9.4.952v-7.854c0-.8307.22-1.442.66-1.834s1.08-.588 1.93-.588h.92v1.12h-1.14c-.35 0-.62.098-.8.294-.19.1867-.28.448-.28.784v8.078zm-1.04-6.384v-1.008h4.69v1.008zm9.54 6.636c-.66 0-1.23-.112-1.72-.336-.5-.224-.92-.518-1.26-.882-.34-.3733-.6-.7887-.77-1.246s-.26-.924-.26-1.4v-.252c0-.476.09-.9427.27-1.4.18-.4667.44-.882.78-1.246.35-.3733.77-.6673 1.26-.882.5-.224 1.06-.336 1.7-.336.63 0 1.2.112 1.69.336.5.2147.92.5087 1.26.882.35.364.61.7793.79 1.246.17.4573.26.924.26 1.4v.252c0 .476-.09.9427-.26 1.4s-.43.8727-.77 1.246c-.34.364-.76.658-1.25.882s-1.07.336-1.72.336zm0-1.204c.56 0 1.03-.1213 1.43-.364.4-.252.7-.588.91-1.008s.32-.8913.32-1.414c0-.532-.11-1.008-.32-1.428-.22-.42-.53-.7513-.93-.994-.39-.2427-.86-.364-1.41-.364-.54 0-1.01.1213-1.42.364-.4.2427-.71.574-.92.994s-.32.896-.32 1.428c0 .5227.1.994.31 1.414s.51.756.91 1.008c.4.2427.88.364 1.44.364zm6.02.952v-7.476h1.06v3.08h-.06c0-1.092.24-1.89.72-2.394.48-.5133 1.21-.77 2.17-.77h.25v1.204h-.48c-.74 0-1.32.2007-1.72.602-.4.392-.6.9613-.6 1.708v4.046zm5.74 0v-7.476h1.06v3.206h-.17c0-.728.1-1.344.28-1.848.2-.5133.49-.9053.87-1.176s.87-.406 1.46-.406h.05c.59 0 1.08.1353 1.46.406.39.2707.68.6627.87 1.176.18.504.28 1.12.28 1.848h-.39c0-.728.09-1.344.29-1.848.2-.5133.48-.9053.87-1.176s.88-.406 1.47-.406h.05c.59 0 1.08.1353 1.47.406.4.2707.68.6627.87 1.176.2.504.3 1.12.3 1.848v4.27h-1.35v-4.564c0-.6067-.15-1.0733-.45-1.4-.3-.336-.71-.504-1.24-.504-.55 0-1 .1773-1.33.532-.34.3453-.51.8307-.51 1.456v4.48h-1.34v-4.564c0-.6067-.15-1.0733-.45-1.4-.3-.336-.71-.504-1.24-.504-.56 0-1 .1773-1.33.532-.34.3453-.51.8307-.51 1.456v4.48zm21.25 0v-2.24h-.22v-2.59c0-.5133-.14-.9007-.41-1.162-.26-.2613-.64-.392-1.16-.392-.29 0-.59.0047-.89.014-.31.0093-.61.0187-.89.028s-.52.0233-.72.042v-1.176c.2-.0187.42-.0327.64-.042.23-.0187.47-.028.71-.028.25-.0093.48-.014.7-.014.77 0 1.39.0933 1.88.28.49.1773.84.4713 1.08.882.23.4107.35.966.35 1.666v4.732zm-2.45.196c-.56 0-1.04-.0933-1.45-.28-.4-.196-.72-.476-.94-.84-.21-.364-.32-.8027-.32-1.316 0-.532.11-.9753.35-1.33s.59-.6207 1.05-.798c.46-.1867 1.01-.28 1.65-.28h2.03v1.008h-2.09c-.54 0-.95.1307-1.24.392s-.44.5973-.44 1.008.15.742.44.994.7.378 1.24.378c.32 0 .62-.056.91-.168.29-.1213.53-.3173.72-.588.19-.28.3-.6627.32-1.148l.36.532c-.04.532-.17.98-.39 1.344-.2.3547-.49.6253-.87.812-.36.1867-.8.28-1.33.28zm13.12.056c-.62 0-1.17-.1353-1.65-.406s-.86-.6627-1.14-1.176c-.28-.5227-.43-1.148-.46-1.876h.36v3.206h-1.06v-10.22h1.34v4.97l-.47 1.022c.04-.812.2-1.4747.49-1.988s.67-.8913 1.13-1.134c.48-.252 1-.378 1.57-.378.53 0 1.02.1027 1.46.308.43.196.81.4713 1.13.826.32.3453.56.7513.73 1.218.17.4573.25.952.25 1.484v.252c0 .532-.09 1.0313-.27 1.498-.16.4667-.41.882-.74 1.246-.32.3547-.72.6347-1.17.84s-.95.308-1.5.308zm-.16-1.176c.51 0 .95-.1213 1.32-.364s.66-.574.87-.994c.2-.4293.31-.924.31-1.484s-.11-1.05-.33-1.47c-.2-.42-.49-.742-.86-.966-.38-.2333-.81-.35-1.31-.35-.44 0-.86.1027-1.24.308-.38.196-.69.4853-.93.868-.22.3733-.33.826-.33 1.358v.644c0 .5133.11.952.35 1.316.23.364.54.644.92.84s.8.294 1.23.294zm9.31 1.176c-.66 0-1.23-.112-1.73-.336-.49-.224-.91-.518-1.26-.882-.33-.3733-.59-.7887-.77-1.246-.16-.4573-.25-.924-.25-1.4v-.252c0-.476.09-.9427.27-1.4.18-.4667.44-.882.78-1.246.35-.3733.77-.6673 1.26-.882.5-.224 1.06-.336 1.7-.336.63 0 1.2.112 1.69.336.49.2147.91.5087 1.26.882.35.364.61.7793.78 1.246.18.4573.27.924.27 1.4v.252c0 .476-.09.9427-.27 1.4-.16.4573-.42.8727-.77 1.246-.33.364-.75.658-1.24.882-.5.224-1.07.336-1.72.336zm0-1.204c.56 0 1.03-.1213 1.42-.364.41-.252.71-.588.91-1.008.22-.42.33-.8913.33-1.414 0-.532-.11-1.008-.33-1.428-.21-.42-.52-.7513-.92-.994-.39-.2427-.86-.364-1.41-.364s-1.02.1213-1.42.364-.71.574-.92.994c-.22.42-.32.896-.32 1.428 0 .5227.1.994.3 1.414.22.42.52.756.91 1.008.41.2427.89.364 1.45.364zm6.01.952v-7.476h1.07v3.206h-.17c0-.7373.1-1.358.29-1.862.21-.5133.52-.9007.93-1.162.41-.2707.93-.406 1.55-.406h.06c.94 0 1.64.294 2.08.882.46.588.69 1.4373.69 2.548v4.27h-1.34v-4.55c0-.5787-.17-1.0407-.49-1.386-.33-.3547-.78-.532-1.35-.532-.59 0-1.06.182-1.43.546-.36.364-.54.8493-.54 1.456v4.466zm12.08.252c-.53 0-1.02-.098-1.47-.294s-.84-.4713-1.18-.826c-.32-.3547-.58-.7653-.77-1.232-.17-.4667-.26-.9707-.26-1.512v-.252c0-.532.09-1.0313.26-1.498.18-.4667.43-.8773.75-1.232s.71-.63 1.14-.826c.45-.2053.95-.308 1.49-.308.57 0 1.09.1213 1.55.364.47.2333.85.602 1.15 1.106s.47 1.1573.5 1.96l-.56-.896v-5.026h1.35v10.22h-1.07v-3.318h.4c-.04.8493-.22 1.54-.54 2.072-.31.5227-.71.9053-1.2 1.148-.48.2333-.99.35-1.54.35zm.18-1.176c.46 0 .87-.1027 1.25-.308.37-.2053.67-.4993.89-.882.23-.392.34-.8493.34-1.372v-.644c0-.5133-.12-.9473-.35-1.302-.22-.364-.53-.6393-.91-.826-.37-.196-.78-.294-1.23-.294-.5 0-.94.1167-1.32.35-.37.2333-.67.56-.88.98s-.31.9147-.31 1.484.11 1.0687.32 1.498c.22.42.52.7467.9.98.38.224.82.336 1.3.336zm6.08.924v-1.708h1.63v1.708z" fill="#a19db6"/><path d="m1238.78 741.266c-.81 0-1.49-.131-2.05-.392-.56-.271-1.01-.635-1.37-1.092-.35-.467-.62-.999-.78-1.596-.16-.607-.24-1.241-.24-1.904v-.784c0-.943.16-1.792.47-2.548.32-.756.81-1.353 1.46-1.792.65-.448 1.49-.672 2.51-.672 1 0 1.84.224 2.49.672.65.439 1.13 1.036 1.44 1.792.32.756.48 1.605.48 2.548v.784c0 .663-.09 1.297-.26 1.904-.15.597-.41 1.129-.77 1.596-.34.457-.79.821-1.35 1.092-.56.261-1.24.392-2.03.392zm0-1.82c.83 0 1.44-.285 1.83-.854.39-.579.59-1.475.59-2.688 0-1.288-.2-2.207-.6-2.758-.4-.56-1.01-.84-1.82-.84-.82 0-1.44.28-1.85.84-.4.551-.6 1.461-.6 2.73 0 1.223.2 2.123.6 2.702s1.02.868 1.85.868zm7.86 1.554v-8.988l.62.476h-2.7v-1.708h4.06v10.22z" fill="#2c245e"/><path d="m56.8147 66.74v7.9534c.0055.2093-.0511.4153-.1623.5909s-.2717.3126-.4603.3927c-.1887.0802-.3966.0998-.5964.0563-.1997-.0435-.3819-.1481-.5225-.2999l-3.0919-3.1746c-.2261-.232-.3952-.5157-.4934-.8277-.0982-.3121-.1227-.6436-.0714-.9672.0512-.3237.1768-.6302.3663-.8944.1894-.2642.4374-.4784.7235-.6251z" fill="#2c2260"/><path d="m63.6294 51.1824v10.7477c-.0001.3961-.1079.7843-.3111 1.1211-.2033.3368-.4941.6089-.8398.7858l-5.6638 2.903-4.3084 2.2095c-.2852.1469-.5323.361-.7212.6248-.1888.2637-.314.5696-.3652.8925s-.027.6537.0705.9651c.0976.3115.2658.5949.4909.8268l-.2902-.2975c-.5363-.5498-.9616-1.2025-1.2517-1.9207-.2902-.7183-.4395-1.4882-.4394-2.2656v-10.1966c.0001-.3961.1079-.7843.3112-1.1211.2032-.3368.494-.6089.8397-.7858l10.8152-5.5446c.1754-.0894.3702-.1314.5659-.1221.1956.0093.3858.0697.5523.1754.1666.1057.3041.2532.3995.4286.0953.1754.1455.3729.1456.5737z" fill="#69daff"/><path d="m72.481 63.053-4.3085 2.22v-7.9638c-.0054-.2093.0512-.4153.1624-.5909.1111-.1756.2716-.3126.4603-.3927.1886-.0802.3966-.0998.5963-.0563.1998.0435.382.1481.5226.2999l2.8016 2.8719.2902.2976c.2261.2319.3953.5156.4935.8276.0982.3121.1226.6436.0714.9673-.0513.3236-.1768.6302-.3663.8943-.1895.2642-.4375.4785-.7235.6251z" fill="#2c2260"/><path d="m74.9873 64.2225v10.1992c.0003.3965-.1072.7853-.3105 1.1226s-.4944.6098-.8405.7869l-10.8152 5.542c-.1751.0901-.3698.1327-.5656.1238-.1957-.0089-.386-.0689-.5527-.1745-.1667-.1055-.3043-.253-.3997-.4285-.0954-.1754-.1454-.373-.1453-.5738v-10.7478c.0002-.396.1079-.7842.3112-1.121s.4941-.6089.8398-.7858l5.6638-2.8926 4.3084-2.2096c.286-.1467.534-.3609.7235-.6251s.315-.5707.3663-.8944.0268-.6552-.0714-.9672c-.0982-.3121-.2673-.5957-.4934-.8277l.2902.295c1.0802 1.109 1.6881 2.6113 1.6911 4.1785z" fill="#ff86a1"/><g fill="#2c2260"><path d="m92.5036 58.4036c-.8198-.4964-1.7562-.754-2.7082-.7452h-6.7718v16.7814h2.8773v-5.749h3.8945c.9521.0091 1.8885-.2486 2.7082-.7452.8024-.4871 1.4718-1.1742 1.9459-1.9974.4777-.8428.7293-1.8002.7293-2.7749s-.2516-1.9321-.7293-2.7749c-.475-.8218-1.1442-1.5078-1.9459-1.9948zm-1.4513 7.0013c-.3817.2322-.8181.353-1.262.3492h-3.8945v-5.1591h3.8945c.444-.0049.8808.116 1.262.3493.3775.2279.6933.549.9187.934.2243.3924.3425.8389.3425 1.2937s-.1182.9013-.3425 1.2937c-.225.3867-.5408.7096-.9187.9392z"/><path d="m101.741 62.2148c-.553.1926-1.078.4597-1.562.7943v-1.1307h-2.8799v12.5615h2.8799v-5.9327c-.007-.651.16-1.2915.482-1.8526.316-.5486.762-1.0062 1.297-1.3298.548-.3302 1.172-.5011 1.807-.4942h1.192v-2.9522h-1.192c-.688-.0021-1.372.1115-2.024.3364z"/><path d="m116.612 63.643c-.568-.5817-1.24-1.0471-1.978-1.3713-.76-.3265-1.575-.4946-2.398-.4946s-1.639.1681-2.398.4946c-1.486.6541-2.671 1.8684-3.309 3.392-.32.778-.484 1.6137-.484 2.458 0 .8442.164 1.6799.484 2.4579.625 1.5288 1.804 2.7494 3.289 3.4049.76.3231 1.575.4895 2.398.4895s1.637-.1664 2.397-.4895c1.494-.6438 2.681-1.8614 3.309-3.392.316-.7791.478-1.6144.478-2.4579s-.162-1.6788-.478-2.458c-.304-.7581-.749-1.4487-1.31-2.0336zm-4.379 7.8965c-.588.0061-1.167-.1541-1.673-.4631-.496-.3014-.91-.7258-1.204-1.2342-.297-.5179-.451-1.1093-.444-1.7102-.006-.6033.147-1.197.444-1.718.291-.5099.706-.934 1.204-1.2315.509-.2984 1.085-.4554 1.671-.4554s1.162.157 1.671.4554c.496.3006.91.7252 1.204 1.2341.295.5199.451 1.111.451 1.7128 0 .6019-.156 1.1929-.451 1.7128-.298.5058-.711.9295-1.204 1.2342-.504.3095-1.081.4698-1.669.4631z"/><path d="m128.296 67.2523c-.724-.3783-1.506-.6269-2.312-.7348l-1.716-.2251c-.415-.0377-.818-.1628-1.184-.3674-.28-.1708-.424-.3545-.424-.546 0-.2458.219-.4683.654-.6597 1.098-.4175 2.306-.4175 3.404 0 .435.1914.654.4139.654.6597v.1242h2.966v-.1242c-.002-.7249-.263-1.4242-.732-1.9663-.527-.6128-1.188-1.0896-1.928-1.392-1.71-.6933-3.614-.6933-5.323 0-.741.3024-1.402.7792-1.929 1.392-.469.5421-.73 1.2414-.732 1.9663-.001.6437.206 1.2697.588 1.7801.423.5611.962 1.0189 1.578 1.3403.694.3735 1.451.6105 2.231.6985l1.716.2251c.456.0449.899.1849 1.3.4114.313.1915.47.4011.47.621 0 .2768-.24.5174-.712.7374-1.193.455-2.505.455-3.698 0-.472-.2148-.712-.4606-.712-.7374v-.1216h-2.968v.1138c.002.7475.272 1.4683.757 2.0259.547.6334 1.233 1.124 2.002 1.4308 1.779.7038 3.751.7038 5.53 0 .768-.3074 1.454-.7979 2.001-1.4308.486-.5576.755-1.2784.758-2.0259-.006-.6558-.22-1.2919-.611-1.8111-.435-.5805-.991-1.0535-1.628-1.3842z"/><path d="m143.52 65.63c-.634-1.5263-1.819-2.7419-3.308-3.392-.76-.3264-1.575-.4946-2.398-.4946-.824 0-1.639.1682-2.398.4946-1.486.6542-2.671 1.8684-3.309 3.392-.32.778-.484 1.6137-.484 2.458 0 .8442.164 1.6799.484 2.4579.632 1.5278 1.819 2.744 3.309 3.392.761.3286 1.579.4949 2.405.489.839.0044 1.67-.1719 2.438-.5175.746-.3363 1.423-.8148 1.994-1.41.571-.5931 1.021-1.2967 1.323-2.0699l.066-.1708h-3.284l-.035.044c-.312.3658-.693.6617-1.121.8694-.533.2546-1.123.3594-1.709.3035-.586-.056-1.147-.2705-1.625-.6218-.503-.3706-.896-.8753-1.139-1.4592h9.125l.017-.0984c.081-.3983.122-.804.121-1.2108.006-.8427-.154-1.678-.472-2.4554zm-5.709-.9392c.684-.0067 1.352.2089 1.908.6158.501.3559.895.8478 1.139 1.4204h-6.091c.242-.5708.632-1.0622 1.129-1.4204.558-.4088 1.229-.6245 1.915-.6158z"/></g><path d="m53.926 745.07v-1.596h2.562c.4667 0 .8213-.126 1.064-.378.2427-.261.364-.616.364-1.064s-.1213-.793-.364-1.036c-.2427-.252-.5973-.378-1.064-.378h-2.562v-1.218h2.422c.6813 0 1.288.084 1.82.252.5413.159.9613.429 1.26.812.308.383.462.896.462 1.54v.196c0 .607-.1353 1.125-.406 1.554-.2613.42-.658.747-1.19.98-.5227.224-1.1713.336-1.946.336zm-1.666 0v-10.36h1.946v10.36zm1.666-4.774v-1.218h2.184c.476 0 .826-.126 1.05-.378s.336-.588.336-1.008-.112-.756-.336-1.008-.574-.378-1.05-.378h-2.184v-1.596h2.002c1.1573 0 2.0347.243 2.632.728.6067.485.91 1.181.91 2.086v.196c0 .635-.154 1.143-.462 1.526-.2987.373-.714.644-1.246.812-.532.159-1.1433.238-1.834.238zm7.8187 4.704v-7.602h1.54v3.22h-.042c0-1.092.2333-1.918.7-2.478.4666-.56 1.1526-.84 2.058-.84h.28v1.694h-.532c-.6534 0-1.162.177-1.526.532-.3547.345-.532.849-.532 1.512v3.962zm10.4028 0v-2.254h-.322v-2.506c0-.439-.1073-.765-.322-.98-.2146-.215-.546-.322-.994-.322-.2333 0-.5133.005-.84.014-.3266.009-.658.023-.994.042-.3266.009-.6206.023-.882.042v-1.652c.2147-.019.4574-.037.728-.056.2707-.019.546-.028.826-.028.2894-.009.56-.014.812-.014.784 0 1.4327.103 1.946.308.5227.205.9147.527 1.176.966.2707.439.406 1.013.406 1.722v4.718zm-2.45.196c-.5506 0-1.036-.098-1.456-.294-.4106-.196-.7326-.476-.966-.84-.224-.364-.336-.803-.336-1.316 0-.56.1354-1.017.406-1.372.28-.355.6674-.621 1.162-.798.504-.177 1.092-.266 1.764-.266h1.764v1.162h-1.792c-.448 0-.7933.112-1.036.336-.2333.215-.35.495-.35.84s.1167.625.35.84c.2427.215.588.322 1.036.322.2707 0 .518-.047.742-.14.2334-.103.4247-.271.574-.504.1587-.243.2474-.569.266-.98l.476.546c-.0466.532-.1773.98-.392 1.344-.2053.364-.4946.644-.868.84-.364.187-.812.28-1.344.28zm6.0745-.196v-7.602h1.54v3.262h-.14c0-.775.1027-1.419.308-1.932.2053-.523.5087-.915.91-1.176.4107-.261.9193-.392 1.526-.392h.084c.9053 0 1.5913.294 2.058.882.4667.579.7 1.447.7 2.604v4.354h-1.946v-4.522c0-.467-.1353-.845-.406-1.134-.2613-.289-.6253-.434-1.092-.434-.476 0-.8633.149-1.162.448-.2893.289-.434.681-.434 1.176v4.466zm12.2281.252c-.532 0-1.022-.098-1.47-.294s-.8353-.471-1.162-.826c-.3266-.355-.5786-.765-.756-1.232-.1773-.476-.266-.989-.266-1.54v-.294c0-.541.084-1.05.252-1.526.1774-.476.42-.891.728-1.246.3174-.355.6954-.63 1.134-.826.448-.205.9427-.308 1.484-.308.5974 0 1.12.131 1.568.392.4574.252.8214.635 1.092 1.148.2707.513.42 1.157.448 1.932l-.574-.672v-5.18h1.946v10.22h-1.54v-3.234h.336c-.028.775-.1866 1.423-.476 1.946-.2893.513-.672.901-1.148 1.162-.4666.252-.9986.378-1.596.378zm.434-1.638c.3827 0 .7327-.084 1.05-.252.3174-.177.5694-.429.756-.756.196-.336.294-.728.294-1.176v-.56c0-.448-.098-.821-.294-1.12-.196-.308-.4526-.541-.77-.7-.3173-.168-.6626-.252-1.036-.252-.42 0-.7933.103-1.12.308-.3173.196-.5693.476-.756.84-.1773.364-.266.789-.266 1.274s.0934.91.28 1.274c.1867.355.4387.63.756.826.3267.196.6954.294 1.106.294zm14.1409 1.652c-.878 0-1.652-.145-2.324-.434-.663-.299-1.223-.695-1.6803-1.19-.448-.504-.7887-1.069-1.022-1.694-.224-.635-.336-1.293-.336-1.974v-.308c0-.644.112-1.274.336-1.89s.5507-1.171.98-1.666c.4387-.495.9753-.887 1.6103-1.176.644-.299 1.381-.448 2.212-.448.896 0 1.689.168 2.38.504.69.327 1.246.789 1.666 1.386.42.588.667 1.274.742 2.058h-2.002c-.066-.439-.229-.812-.49-1.12-.262-.317-.593-.56-.994-.728-.392-.168-.826-.252-1.302-.252s-.91.084-1.302.252c-.383.168-.71.406-.98.714-.271.308-.481.677-.6303 1.106-.14.429-.21.905-.21 1.428 0 .569.0793 1.078.238 1.526s.3827.831.6723 1.148c.289.308.639.546 1.05.714.41.159.872.238 1.386.238.681 0 1.278-.14 1.792-.42.513-.289.886-.663 1.12-1.12l-.35 1.61v-2.632h1.834v2.268c-.439.663-1.036 1.181-1.792 1.554-.756.364-1.624.546-2.604.546zm-.322-3.976v-1.484h5.572v1.484zm9.646 3.948c-.877 0-1.559-.289-2.044-.868-.476-.579-.714-1.437-.714-2.576v-4.41h1.946v4.578c0 .467.131.84.392 1.12.261.271.616.406 1.064.406s.812-.145 1.092-.434c.289-.289.434-.681.434-1.176v-4.494h1.946v7.616h-1.54v-3.234h.154c0 .765-.098 1.405-.294 1.918s-.49.901-.882 1.162-.882.392-1.47.392zm6.716-.238v-7.602h1.946v7.602zm-1.064-6.146v-1.456h3.01v1.456zm1.778-2.366c-.383 0-.668-.098-.854-.294-.178-.205-.266-.457-.266-.756 0-.317.088-.574.266-.77.186-.196.471-.294.854-.294.382 0 .662.098.84.294.177.196.266.453.266.77 0 .299-.089.551-.266.756-.178.196-.458.294-.84.294zm6.624 8.764c-.532 0-1.022-.098-1.47-.294s-.835-.471-1.162-.826c-.326-.355-.578-.765-.756-1.232-.177-.476-.266-.989-.266-1.54v-.294c0-.541.084-1.05.252-1.526.178-.476.42-.891.728-1.246.318-.355.696-.63 1.134-.826.448-.205.943-.308 1.484-.308.598 0 1.12.131 1.568.392.458.252.822.635 1.092 1.148.271.513.42 1.157.448 1.932l-.574-.672v-5.18h1.946v10.22h-1.54v-3.234h.336c-.028.775-.186 1.423-.476 1.946-.289.513-.672.901-1.148 1.162-.466.252-.998.378-1.596.378zm.434-1.638c.383 0 .733-.084 1.05-.252.318-.177.57-.429.756-.756.196-.336.294-.728.294-1.176v-.56c0-.448-.098-.821-.294-1.12-.196-.308-.452-.541-.77-.7-.317-.168-.662-.252-1.036-.252-.42 0-.793.103-1.12.308-.317.196-.569.476-.756.84-.177.364-.266.789-.266 1.274s.094.91.28 1.274c.187.355.439.63.756.826.327.196.696.294 1.106.294zm9.607 1.652c-.653 0-1.227-.112-1.722-.336-.485-.224-.891-.523-1.218-.896-.317-.383-.56-.807-.728-1.274-.158-.467-.238-.943-.238-1.428v-.266c0-.504.08-.989.238-1.456.168-.476.411-.896.728-1.26.327-.373.728-.667 1.204-.882.476-.224 1.027-.336 1.652-.336.822 0 1.508.182 2.058.546.56.355.98.826 1.26 1.414.28.579.42 1.204.42 1.876v.7h-6.734v-1.19h5.516l-.602.588c0-.485-.07-.901-.21-1.246s-.354-.611-.644-.798c-.28-.187-.634-.28-1.064-.28-.429 0-.793.098-1.092.294-.298.196-.527.481-.686.854-.149.364-.224.803-.224 1.316 0 .476.075.901.224 1.274.15.364.378.653.686.868.308.205.7.308 1.176.308s.864-.093 1.162-.28c.299-.196.49-.434.574-.714h1.792c-.112.523-.326.98-.644 1.372-.317.392-.723.695-1.218.91-.485.215-1.04.322-1.666.322zm5.378-.266v-10.22h1.946v10.22zm-.952-8.764v-1.456h2.898v1.456zm5.484 8.764v-7.602h1.946v7.602zm-1.064-6.146v-1.456h3.01v1.456zm1.778-2.366c-.383 0-.668-.098-.854-.294-.178-.205-.266-.457-.266-.756 0-.317.088-.574.266-.77.186-.196.471-.294.854-.294.382 0 .662.098.84.294.177.196.266.453.266.77 0 .299-.089.551-.266.756-.178.196-.458.294-.84.294zm3.474 8.512v-7.602h1.54v3.262h-.14c0-.775.103-1.419.308-1.932.206-.523.509-.915.91-1.176.411-.261.92-.392 1.526-.392h.084c.906 0 1.592.294 2.058.882.467.579.7 1.447.7 2.604v4.354h-1.946v-4.522c0-.467-.135-.845-.406-1.134-.261-.289-.625-.434-1.092-.434-.476 0-.863.149-1.162.448-.289.289-.434.681-.434 1.176v4.466zm12.48.266c-.653 0-1.227-.112-1.722-.336-.485-.224-.891-.523-1.218-.896-.317-.383-.56-.807-.728-1.274-.158-.467-.238-.943-.238-1.428v-.266c0-.504.08-.989.238-1.456.168-.476.411-.896.728-1.26.327-.373.728-.667 1.204-.882.476-.224 1.027-.336 1.652-.336.822 0 1.508.182 2.058.546.56.355.98.826 1.26 1.414.28.579.42 1.204.42 1.876v.7h-6.734v-1.19h5.516l-.602.588c0-.485-.07-.901-.21-1.246s-.354-.611-.644-.798c-.28-.187-.634-.28-1.064-.28-.429 0-.793.098-1.092.294-.298.196-.527.481-.686.854-.149.364-.224.803-.224 1.316 0 .476.075.901.224 1.274.15.364.378.653.686.868.308.205.7.308 1.176.308s.864-.093 1.162-.28c.299-.196.49-.434.574-.714h1.792c-.112.523-.326.98-.644 1.372-.317.392-.723.695-1.218.91-.485.215-1.04.322-1.666.322zm8.038-.028c-1.045 0-1.867-.219-2.464-.658-.588-.448-.896-1.064-.924-1.848h1.75c.028.261.173.499.434.714s.672.322 1.232.322c.467 0 .835-.084 1.106-.252.28-.168.42-.397.42-.686 0-.252-.107-.453-.322-.602-.205-.149-.56-.247-1.064-.294l-.672-.07c-.849-.093-1.503-.336-1.96-.728s-.686-.915-.686-1.568c0-.523.131-.961.392-1.316s.621-.621 1.078-.798c.467-.187.999-.28 1.596-.28.933 0 1.689.205 2.268.616s.882 1.013.91 1.806h-1.75c-.019-.261-.149-.485-.392-.672s-.593-.28-1.05-.28c-.411 0-.728.079-.952.238s-.336.364-.336.616c0 .243.089.429.266.56.187.131.485.219.896.266l.672.07c.896.093 1.596.341 2.1.742.513.401.77.943.77 1.624 0 .504-.14.943-.42 1.316-.271.364-.653.649-1.148.854s-1.078.308-1.75.308z" fill="#2c245e"/><rect fill="#6edbff" height="531" rx="16" width="384" x="50" y="140"/><path d="m83.8 189v-14.6h3.88l3.66 8.72h.36l3.64-8.72h3.94v14.6h-2.82v-12.46l.36.04-3.94 9.44h-2.9l-3.96-9.44.38-.04v12.46zm25.442 0v-3.22h-.46v-3.58c0-.627-.153-1.093-.46-1.4s-.78-.46-1.42-.46c-.333 0-.733.007-1.2.02s-.94.033-1.42.06c-.467.013-.887.033-1.26.06v-2.36c.307-.027.653-.053 1.04-.08s.78-.04 1.18-.04c.413-.013.8-.02 1.16-.02 1.12 0 2.047.147 2.78.44.747.293 1.307.753 1.68 1.38.387.627.58 1.447.58 2.46v6.74zm-3.5.28c-.787 0-1.48-.14-2.08-.42-.587-.28-1.047-.68-1.38-1.2-.32-.52-.48-1.147-.48-1.88 0-.8.193-1.453.58-1.96.4-.507.953-.887 1.66-1.14.72-.253 1.56-.38 2.52-.38h2.52v1.66h-2.56c-.64 0-1.133.16-1.48.48-.333.307-.5.707-.5 1.2s.167.893.5 1.2c.347.307.84.46 1.48.46.387 0 .74-.067 1.06-.2.333-.147.607-.387.82-.72.227-.347.353-.813.38-1.4l.68.78c-.067.76-.253 1.4-.56 1.92-.293.52-.707.92-1.24 1.2-.52.267-1.16.4-1.92.4zm13.498.1c-.947 0-1.767-.16-2.46-.48-.68-.32-1.253-.747-1.72-1.28-.453-.533-.793-1.133-1.02-1.8s-.34-1.347-.34-2.04v-.38c0-.733.113-1.433.34-2.1.24-.68.593-1.28 1.06-1.8.467-.533 1.04-.953 1.72-1.26.693-.32 1.493-.48 2.4-.48.947 0 1.793.187 2.54.56.747.36 1.34.867 1.78 1.52.453.653.707 1.413.76 2.28h-2.7c-.067-.56-.307-1.027-.72-1.4-.4-.373-.953-.56-1.66-.56-.613 0-1.127.147-1.54.44-.4.293-.7.7-.9 1.22-.2.507-.3 1.093-.3 1.76 0 .64.093 1.22.28 1.74.2.52.5.927.9 1.22.413.293.94.44 1.58.44.48 0 .893-.087 1.24-.26s.62-.413.82-.72c.213-.307.347-.653.4-1.04h2.7c-.053.88-.313 1.653-.78 2.32-.453.653-1.06 1.167-1.82 1.54-.747.373-1.6.56-2.56.56zm13.967-.38v-3.22h-.46v-3.58c0-.627-.153-1.093-.46-1.4s-.78-.46-1.42-.46c-.333 0-.733.007-1.2.02s-.94.033-1.42.06c-.467.013-.887.033-1.26.06v-2.36c.307-.027.653-.053 1.04-.08s.78-.04 1.18-.04c.413-.013.8-.02 1.16-.02 1.12 0 2.047.147 2.78.44.747.293 1.307.753 1.68 1.38.387.627.58 1.447.58 2.46v6.74zm-3.5.28c-.787 0-1.48-.14-2.08-.42-.587-.28-1.047-.68-1.38-1.2-.32-.52-.48-1.147-.48-1.88 0-.8.193-1.453.58-1.96.4-.507.953-.887 1.66-1.14.72-.253 1.56-.38 2.52-.38h2.52v1.66h-2.56c-.64 0-1.133.16-1.48.48-.333.307-.5.707-.5 1.2s.167.893.5 1.2c.347.307.84.46 1.48.46.387 0 .74-.067 1.06-.2.333-.147.607-.387.82-.72.227-.347.353-.813.38-1.4l.68.78c-.067.76-.253 1.4-.56 1.92-.293.52-.707.92-1.24 1.2-.52.267-1.16.4-1.92.4zm12.261-.28 2.06-10.5h3.2l2.38 10.5h-2.2l-2.42-10.44h1.16l-2.14 10.44zm-.82 0-.02-2.28h2.22v2.28zm-1.12 0-2.96-10.86h2.7l2.82 10.86zm8.08 0v-2.28h2.22l-.02 2.28zm.88 0 2.5-10.86h2.52l-2.62 10.86z" fill="#fff"/><path d="m84.4 219 2.26-14.6h2.26l-2.26 14.6zm4.94 0 2.26-14.6h2.26l-2.26 14.6zm-6.66-3.86v-1.88h12.12v1.88zm.76-5v-1.88h12.12v1.88zm19.918 9.28c-1.08 0-2-.18-2.76-.54-.7464-.373-1.3531-.88-1.8197-1.52-.4667-.64-.8067-1.38-1.02-2.22-.2134-.853-.32-1.753-.32-2.7v-.88c0-2.387.6-4.193 1.8-5.42 1.2137-1.24 2.9867-1.86 5.3197-1.86.507 0 .98.013 1.42.04s.88.067 1.32.12v2.38c-.44-.053-.893-.093-1.36-.12-.453-.027-.946-.04-1.48-.04-1.12 0-2 .193-2.64.58s-1.1.953-1.38 1.7c-.266.747-.4 1.673-.4 2.78v1.3l-.6397.92c.0133-1.027.2133-1.873.6-2.54.3997-.68.9467-1.187 1.6397-1.52.694-.347 1.487-.52 2.38-.52 1.04 0 1.927.207 2.66.62.734.413 1.294.987 1.68 1.72.4.733.6 1.587.6 2.56 0 1.013-.226 1.913-.68 2.7-.453.773-1.1 1.38-1.94 1.82-.826.427-1.82.64-2.98.64zm-.06-2.38c.627 0 1.16-.113 1.6-.34.44-.24.774-.567 1-.98.227-.413.34-.887.34-1.42 0-.547-.113-1.027-.34-1.44-.213-.413-.533-.733-.96-.96-.426-.227-.94-.34-1.54-.34-.573 0-1.1.107-1.58.32-.466.2-.84.507-1.12.92-.266.4-.4.9-.4 1.5 0 .52.107.987.32 1.4.227.413.56.74 1 .98.454.24 1.014.36 1.68.36zm8.295 1.96v-14.6h2.78v14.6zm2.38 0v-2.4h6.62v2.4zm0-6.22v-2.4h6.1v2.4zm0-5.98v-2.4h6.46v2.4zm11.974 12.28v-2.64h3.02c.76 0 1.433-.113 2.02-.34.6-.24 1.107-.573 1.52-1s.727-.927.94-1.5c.227-.587.34-1.233.34-1.94 0-.733-.113-1.387-.34-1.96-.213-.587-.527-1.087-.94-1.5s-.92-.727-1.52-.94c-.587-.213-1.26-.32-2.02-.32h-3.02v-2.64h2.84c1.32 0 2.473.193 3.46.58s1.807.92 2.46 1.6c.653.667 1.14 1.433 1.46 2.3.333.853.5 1.74.5 2.66v.44c0 .88-.167 1.747-.5 2.6-.32.853-.807 1.627-1.46 2.32s-1.473 1.247-2.46 1.66-2.14.62-3.46.62zm-2.44 0v-14.78h2.84v14.78zm18.083.02v-2.28h3.66c.667 0 1.173-.18 1.52-.54.347-.373.52-.88.52-1.52s-.173-1.133-.52-1.48c-.347-.36-.853-.54-1.52-.54h-3.66v-1.74h3.46c.973 0 1.84.12 2.6.36.773.227 1.373.613 1.8 1.16.44.547.66 1.28.66 2.2v.28c0 .867-.193 1.607-.58 2.22-.373.6-.94 1.067-1.7 1.4-.747.32-1.673.48-2.78.48zm-2.38 0v-14.8h2.78v14.8zm2.38-6.82v-1.74h3.12c.68 0 1.18-.18 1.5-.54s.48-.84.48-1.44-.16-1.08-.48-1.44-.82-.54-1.5-.54h-3.12v-2.28h2.86c1.653 0 2.907.347 3.76 1.04.867.693 1.3 1.687 1.3 2.98v.28c0 .907-.22 1.633-.66 2.18-.427.533-1.02.92-1.78 1.16-.76.227-1.633.34-2.62.34zm11.39 6.72v-14.6h2.84v14.6zm2.44-6.08v-2.4l5.84-.02v2.4zm0-6.12v-2.4h6.12v2.4zm8.751 12.2v-14.6h2.84v14.6zm2.44-6.08v-2.4l5.84-.02v2.4zm0-6.12v-2.4h6.12v2.4z" fill="#fff"/><rect fill="#ff88a3" height="531" rx="16" width="384" x="458" y="140"/><path d="m501.38 189v-14.6h2.84v14.6zm-9.58 0v-14.6h2.84v14.6zm2.32-6.06v-2.5h7.78v2.5zm13.996 6.06v-10.86h2.78v10.86zm-1.52-8.78v-2.08h4.3v2.08zm2.54-3.38c-.547 0-.954-.14-1.22-.42-.254-.293-.38-.653-.38-1.08 0-.453.126-.82.38-1.1.266-.28.673-.42 1.22-.42.546 0 .946.14 1.2.42.253.28.38.647.38 1.1 0 .427-.127.787-.38 1.08-.254.28-.654.42-1.2.42zm5.104 12.16v-14.6h2.78v14.6zm-1.36-12.52v-2.08h4.14v2.08zm7.453 12.52v-14.6h2.78v14.6zm-1.36-12.52v-2.08h4.14v2.08zm7.834 12.52v-10.86h2.78v10.86zm-1.52-8.78v-2.08h4.3v2.08zm2.54-3.38c-.547 0-.953-.14-1.22-.42-.253-.293-.38-.653-.38-1.08 0-.453.127-.82.38-1.1.267-.28.673-.42 1.22-.42s.947.14 1.2.42.38.647.38 1.1c0 .427-.127.787-.38 1.08-.253.28-.653.42-1.2.42zm9.824 12.54c-.933 0-1.753-.16-2.46-.48-.693-.32-1.273-.747-1.74-1.28-.453-.547-.8-1.153-1.04-1.82-.227-.667-.34-1.347-.34-2.04v-.38c0-.72.113-1.413.34-2.08.24-.68.587-1.28 1.04-1.8.467-.533 1.04-.953 1.72-1.26.68-.32 1.467-.48 2.36-.48 1.173 0 2.153.26 2.94.78.8.507 1.4 1.18 1.8 2.02.4.827.6 1.72.6 2.68v1h-9.62v-1.7h7.88l-.86.84c0-.693-.1-1.287-.3-1.78s-.507-.873-.92-1.14c-.4-.267-.907-.4-1.52-.4s-1.133.14-1.56.42-.753.687-.98 1.22c-.213.52-.32 1.147-.32 1.88 0 .68.107 1.287.32 1.82.213.52.54.933.98 1.24.44.293 1 .44 1.68.44s1.233-.133 1.66-.4c.427-.28.7-.62.82-1.02h2.56c-.16.747-.467 1.4-.92 1.96s-1.033.993-1.74 1.3c-.693.307-1.487.46-2.38.46zm7.542-.38v-10.86h2.2v4.6h-.06c0-1.56.334-2.74 1-3.54.667-.8 1.647-1.2 2.94-1.2h.4v2.42h-.76c-.933 0-1.66.253-2.18.76-.506.493-.76 1.213-.76 2.16v5.66z" fill="#fff"/><path d="m492.4 219 2.26-14.6h2.26l-2.26 14.6zm4.94 0 2.26-14.6h2.26l-2.26 14.6zm-6.66-3.86v-1.88h12.12v1.88zm.76-5v-1.88h12.12v1.88zm14.598 8.86v-14.6h2.84v14.6zm2.44-6.08v-2.4l5.84-.02v2.4zm0-6.12v-2.4h6.12v2.4zm8.752 12.2v-14.6h2.84v14.6zm2.44-6.08v-2.4l5.84-.02v2.4zm0-6.12v-2.4h6.12v2.4zm13.511 12.6c-1.12 0-2.107-.18-2.96-.54s-1.52-.873-2-1.54-.72-1.46-.72-2.38c0-.613.107-1.153.32-1.62.213-.48.507-.887.88-1.22.373-.347.813-.607 1.32-.78v-.24c-.387-.173-.74-.4-1.06-.68-.307-.28-.553-.62-.74-1.02-.173-.4-.26-.86-.26-1.38 0-.88.227-1.613.68-2.2.467-.6 1.093-1.047 1.88-1.34.8-.307 1.687-.46 2.66-.46.987 0 1.873.153 2.66.46.8.293 1.427.74 1.88 1.34.467.587.7 1.32.7 2.2 0 .52-.093.98-.28 1.38-.173.4-.413.74-.72 1.02s-.66.507-1.06.68v.24c.507.173.947.433 1.32.78.387.347.68.76.88 1.24.213.467.32 1 .32 1.6 0 .92-.24 1.713-.72 2.38-.467.667-1.127 1.18-1.98 1.54s-1.853.54-3 .54zm0-2.34c.613 0 1.14-.093 1.58-.28s.78-.46 1.02-.82.36-.793.36-1.3-.12-.933-.36-1.28c-.227-.36-.567-.633-1.02-.82-.44-.187-.967-.28-1.58-.28-.6 0-1.12.093-1.56.28s-.78.46-1.02.82c-.24.347-.36.773-.36 1.28s.12.94.36 1.3.58.633 1.02.82.96.28 1.56.28zm0-6.9c.773 0 1.38-.16 1.82-.48.453-.333.68-.813.68-1.44 0-.653-.227-1.133-.68-1.44s-1.06-.46-1.82-.46-1.367.16-1.82.48c-.44.307-.66.78-.66 1.42 0 .627.227 1.107.68 1.44.453.32 1.053.48 1.8.48zm13.145 9.24c-1.12 0-2.107-.18-2.96-.54-.854-.36-1.52-.873-2-1.54s-.72-1.46-.72-2.38c0-.613.106-1.153.32-1.62.213-.48.506-.887.88-1.22.373-.347.813-.607 1.32-.78v-.24c-.387-.173-.74-.4-1.06-.68-.307-.28-.554-.62-.74-1.02-.174-.4-.26-.86-.26-1.38 0-.88.226-1.613.68-2.2.466-.6 1.093-1.047 1.88-1.34.8-.307 1.686-.46 2.66-.46.986 0 1.873.153 2.66.46.8.293 1.426.74 1.88 1.34.466.587.7 1.32.7 2.2 0 .52-.094.98-.28 1.38-.174.4-.414.74-.72 1.02-.307.28-.66.507-1.06.68v.24c.506.173.946.433 1.32.78.386.347.68.76.88 1.24.213.467.32 1 .32 1.6 0 .92-.24 1.713-.72 2.38-.467.667-1.127 1.18-1.98 1.54-.854.36-1.854.54-3 .54zm0-2.34c.613 0 1.14-.093 1.58-.28s.78-.46 1.02-.82.36-.793.36-1.3-.12-.933-.36-1.28c-.227-.36-.567-.633-1.02-.82-.44-.187-.967-.28-1.58-.28-.6 0-1.12.093-1.56.28s-.78.46-1.02.82c-.24.347-.36.773-.36 1.28s.12.94.36 1.3.58.633 1.02.82.96.28 1.56.28zm0-6.9c.773 0 1.38-.16 1.82-.48.453-.333.68-.813.68-1.44 0-.653-.227-1.133-.68-1.44-.454-.307-1.06-.46-1.82-.46s-1.367.16-1.82.48c-.44.307-.66.78-.66 1.42 0 .627.226 1.107.68 1.44.453.32 1.053.48 1.8.48zm6.944 8.84 4.98-14.6h4.64l5.12 14.6h-2.92l-4.34-12.66 1.02.44h-2.5l1.04-.44-4.2 12.66zm3.48-3.88.9-2.4h5.92l.88 2.4zm17.749 4.26c-1.12 0-2.087-.213-2.9-.64-.8-.427-1.413-.993-1.84-1.7-.427-.72-.64-1.52-.64-2.4h2.74c0 .707.233 1.28.7 1.72.48.427 1.127.64 1.94.64.547 0 1.013-.1 1.4-.3.4-.213.707-.5.92-.86.213-.373.32-.8.32-1.28 0-.72-.233-1.307-.7-1.76-.467-.467-1.107-.7-1.92-.7-.4 0-.753.053-1.06.16-.293.107-.553.247-.78.42l-1.3-2.24 4.8-3.28-.18-.34h-6.28v-2.42h9.54v2.92l-4.94 3.28-1.54-.28c.253-.08.527-.14.82-.18.293-.053.613-.08.96-.08 1.107 0 2.053.193 2.84.58.8.373 1.413.893 1.84 1.56s.64 1.433.64 2.3v.26c0 .84-.213 1.613-.64 2.32-.427.693-1.04 1.253-1.84 1.68-.8.413-1.767.62-2.9.62z" fill="#fff"/><rect fill="#2c245e" height="531" rx="16" width="384" x="866" y="140"/><path d="m902.18 189.1v-2.28h3.66c.667 0 1.173-.18 1.52-.54.347-.373.52-.88.52-1.52s-.173-1.133-.52-1.48c-.347-.36-.853-.54-1.52-.54h-3.66v-1.74h3.46c.973 0 1.84.12 2.6.36.773.227 1.373.613 1.8 1.16.44.547.66 1.28.66 2.2v.28c0 .867-.193 1.607-.58 2.22-.373.6-.94 1.067-1.7 1.4-.747.32-1.673.48-2.78.48zm-2.38 0v-14.8h2.78v14.8zm2.38-6.82v-1.74h3.12c.68 0 1.18-.18 1.5-.54s.48-.84.48-1.44-.16-1.08-.48-1.44-.82-.54-1.5-.54h-3.12v-2.28h2.86c1.653 0 2.907.347 3.76 1.04.867.693 1.3 1.687 1.3 2.98v.28c0 .907-.22 1.633-.66 2.18-.427.533-1.02.92-1.78 1.16-.76.227-1.633.34-2.62.34zm15.932 7.1c-.933 0-1.753-.16-2.46-.48-.693-.32-1.273-.747-1.74-1.28-.453-.547-.8-1.153-1.04-1.82-.227-.667-.34-1.347-.34-2.04v-.38c0-.72.113-1.413.34-2.08.24-.68.587-1.28 1.04-1.8.467-.533 1.04-.953 1.72-1.26.68-.32 1.467-.48 2.36-.48 1.173 0 2.153.26 2.94.78.8.507 1.4 1.18 1.8 2.02.4.827.6 1.72.6 2.68v1h-9.62v-1.7h7.88l-.86.84c0-.693-.1-1.287-.3-1.78s-.507-.873-.92-1.14c-.4-.267-.907-.4-1.52-.4s-1.133.14-1.56.42-.753.687-.98 1.22c-.213.52-.32 1.147-.32 1.88 0 .68.107 1.287.32 1.82.213.52.54.933.98 1.24.44.293 1 .44 1.68.44s1.233-.133 1.66-.4c.427-.28.7-.62.82-1.02h2.56c-.16.747-.467 1.4-.92 1.96s-1.033.993-1.74 1.3c-.693.307-1.487.46-2.38.46zm7.542-.38v-10.86h2.2v4.6h-.06c0-1.56.334-2.74 1-3.54.667-.8 1.647-1.2 2.94-1.2h.4v2.42h-.76c-.933 0-1.66.253-2.18.76-.506.493-.76 1.213-.76 2.16v5.66zm8.34 0v-10.86h2.2v4.6h-.06c0-1.56.333-2.74 1-3.54s1.647-1.2 2.94-1.2h.4v2.42h-.76c-.933 0-1.66.253-2.18.76-.507.493-.76 1.213-.76 2.16v5.66zm8.352 4.28v-2.38h2.04c.387 0 .707-.053.96-.16.267-.093.487-.253.66-.48.173-.213.307-.513.4-.9l2.92-11.22h2.66l-3.22 11.82c-.213.813-.513 1.46-.9 1.94-.387.493-.887.847-1.5 1.06-.6.213-1.347.32-2.24.32zm3.38-4.52v-2.2h2.32v2.2zm-.94 0-3.52-10.62h2.8l3.34 10.62z" fill="#fff"/><path d="m900.4 219 2.26-14.6h2.26l-2.26 14.6zm4.94 0 2.26-14.6h2.26l-2.26 14.6zm-6.66-3.86v-1.88h12.12v1.88zm.76-5v-1.88h12.12v1.88zm14.098 8.86v-2.8c0-.613.094-1.147.28-1.6.2-.453.52-.853.96-1.2.454-.36 1.047-.7 1.78-1.02l2.48-1.1c.614-.28 1.08-.62 1.4-1.02.334-.413.5-.94.5-1.58 0-.707-.213-1.267-.64-1.68-.413-.427-1.006-.64-1.78-.64-.773 0-1.373.213-1.8.64-.413.427-.62 1.02-.62 1.78h-2.74c0-.907.194-1.72.58-2.44.387-.733.96-1.307 1.72-1.72.76-.427 1.714-.64 2.86-.64 1.147 0 2.1.207 2.86.62s1.334.967 1.72 1.66c.387.68.58 1.44.58 2.28v.26c0 1.093-.306 2.007-.92 2.74-.613.72-1.513 1.347-2.7 1.88l-2.48 1.1c-.466.2-.793.413-.98.64-.186.213-.28.507-.28.88v1.28l-.68-.74h8.1v2.42zm19.619.38c-1.32 0-2.453-.233-3.4-.7-.946-.467-1.72-1.073-2.32-1.82-.586-.747-1.02-1.56-1.3-2.44s-.42-1.727-.42-2.54v-.44c0-.907.14-1.8.42-2.68.294-.88.74-1.68 1.34-2.4s1.36-1.293 2.28-1.72c.934-.44 2.034-.66 3.3-.66 1.32 0 2.467.24 3.44.72.987.467 1.774 1.133 2.36 2 .587.853.94 1.853 1.06 3h-2.86c-.106-.667-.346-1.227-.72-1.68-.36-.467-.82-.813-1.38-1.04-.56-.24-1.193-.36-1.9-.36-.72 0-1.36.127-1.92.38-.56.24-1.026.587-1.4 1.04-.373.453-.66.987-.86 1.6-.186.613-.28 1.293-.28 2.04 0 .72.094 1.387.28 2 .2.613.494 1.153.88 1.62.387.453.86.807 1.42 1.06.574.253 1.234.38 1.98.38 1.094 0 2.014-.267 2.76-.8.76-.547 1.22-1.307 1.38-2.28h2.86c-.133 1.04-.486 1.993-1.06 2.86-.573.867-1.36 1.56-2.36 2.08s-2.193.78-3.58.78zm8.897-.38v-2.8c0-.613.093-1.147.28-1.6.2-.453.52-.853.96-1.2.453-.36 1.047-.7 1.78-1.02l2.48-1.1c.613-.28 1.08-.62 1.4-1.02.333-.413.5-.94.5-1.58 0-.707-.213-1.267-.64-1.68-.413-.427-1.007-.64-1.78-.64s-1.373.213-1.8.64c-.413.427-.62 1.02-.62 1.78h-2.74c0-.907.193-1.72.58-2.44.387-.733.96-1.307 1.72-1.72.76-.427 1.713-.64 2.86-.64s2.1.207 2.86.62 1.333.967 1.72 1.66c.387.68.58 1.44.58 2.28v.26c0 1.093-.307 2.007-.92 2.74-.613.72-1.513 1.347-2.7 1.88l-2.48 1.1c-.467.2-.793.413-.98.64-.187.213-.28.507-.28.88v1.28l-.68-.74h8.1v2.42zm11.999-3.02v-3.08l5.72-8.9 2.14 1.46-5.04 7.88.24.4h8.96v2.24zm7.64 3.02v-10.46h2.62v10.46zm11.302.38c-1.147 0-2.133-.227-2.96-.68-.813-.453-1.44-1.053-1.88-1.8-.427-.76-.64-1.587-.64-2.48h2.74c0 .507.113.953.34 1.34.24.387.567.693.98.92.413.213.893.32 1.44.32.573 0 1.067-.12 1.48-.36s.727-.567.94-.98c.227-.413.34-.887.34-1.42 0-.52-.113-.987-.34-1.4-.213-.427-.527-.76-.94-1-.4-.253-.887-.38-1.46-.38-.48 0-.933.093-1.36.28s-.76.433-1 .74h-2.62l.74-8.08h8.46v2.42h-7.22l1-.78-.48 5.04-.68-.2c.387-.44.86-.807 1.42-1.1s1.267-.44 2.12-.44c1.08 0 2 .22 2.76.66s1.34 1.027 1.74 1.76c.4.72.6 1.507.6 2.36v.26c0 .867-.213 1.68-.64 2.44s-1.053 1.38-1.88 1.86c-.813.467-1.813.7-3 .7zm8.075-.38v-14.6h2.78v14.6zm2.38 0v-2.4h6.62v2.4zm0-6.22v-2.4h6.1v2.4zm0-5.98v-2.4h6.46v2.4z" fill="#fff"/></svg>