<svg fill="none" height="800" viewBox="0 0 1300 800" width="1300" xmlns="http://www.w3.org/2000/svg" xmlns:xlink="http://www.w3.org/1999/xlink"><clipPath id="a"><path d="m136.294 313.151h592.366v196.691h-592.366z"/></clipPath><path d="m0 0h1300v800h-1300z" fill="#fff"/><path d="m741.26 73v-10.22h1.946v10.22zm1.666 0v-1.68h4.634v1.68zm0-4.354v-1.68h4.27v1.68zm0-4.186v-1.68h4.522v1.68zm5.652 8.54 2.478-4.06-.042.322-2.338-3.864h2.114l1.526 2.674h.21l1.442-2.674h1.988l-2.212 3.85.042-.28 2.618 4.032h-2.114l-1.806-2.87h-.21l-1.708 2.87zm12.281.266c-.663 0-1.237-.112-1.722-.336-.476-.224-.877-.5227-1.204-.896-.317-.3733-.555-.7933-.714-1.26s-.238-.9427-.238-1.428v-.266c0-.5133.079-1.0033.238-1.47.168-.476.415-.896.742-1.26.327-.3733.728-.6673 1.204-.882.485-.224 1.045-.336 1.68-.336.663 0 1.255.1307 1.778.392.523.252.938.6067 1.246 1.064.317.4573.495.9893.532 1.596h-1.89c-.047-.392-.215-.7187-.504-.98-.28-.2613-.667-.392-1.162-.392-.429 0-.789.1027-1.078.308-.28.2053-.49.49-.63.854-.14.3547-.21.7653-.21 1.232 0 .448.065.854.196 1.218.14.364.35.6487.63.854.289.2053.658.308 1.106.308.336 0 .625-.0607.868-.182s.434-.2893.574-.504c.149-.2147.243-.4573.28-.728h1.89c-.037.616-.219 1.1573-.546 1.624-.317.4573-.742.8167-1.274 1.078-.523.2613-1.12.392-1.792.392zm5.269-.266v-10.22h1.946v10.22zm-.952-8.764v-1.456h2.898v1.456zm7.709 9.002c-.877 0-1.558-.2893-2.044-.868-.476-.5787-.714-1.4373-.714-2.576v-4.41h1.946v4.578c0 .4667.131.84.392 1.12.262.2707.616.406 1.064.406s.812-.1447 1.092-.434c.29-.2893.434-.6813.434-1.176v-4.494h1.946v7.616h-1.54v-3.234h.154c0 .7653-.098 1.4047-.294 1.918s-.49.9007-.882 1.162-.882.392-1.47.392zm9.11 0c-1.045 0-1.867-.2193-2.464-.658-.588-.448-.896-1.064-.924-1.848h1.75c.028.2613.173.4993.434.714s.672.322 1.232.322c.467 0 .835-.084 1.106-.252.28-.168.42-.3967.42-.686 0-.252-.107-.4527-.322-.602-.205-.1493-.56-.2473-1.064-.294l-.672-.07c-.849-.0933-1.503-.336-1.96-.728s-.686-.9147-.686-1.568c0-.5227.131-.9613.392-1.316s.621-.6207 1.078-.798c.467-.1867.999-.28 1.596-.28.933 0 1.689.2053 2.268.616s.882 1.0127.91 1.806h-1.75c-.019-.2613-.149-.4853-.392-.672s-.593-.28-1.05-.28c-.411 0-.728.0793-.952.238s-.336.364-.336.616c0 .2427.089.4293.266.56.187.1307.485.2193.896.266l.672.07c.896.0933 1.596.3407 2.1.742.513.4013.77.9427.77 1.624 0 .504-.14.9427-.42 1.316-.271.364-.653.6487-1.148.854s-1.078.308-1.75.308zm5.289-.238v-7.602h1.946v7.602zm-1.064-6.146v-1.456h3.01v1.456zm1.778-2.366c-.382 0-.667-.098-.854-.294-.177-.2053-.266-.4573-.266-.756 0-.3173.089-.574.266-.77.187-.196.472-.294.854-.294.383 0 .663.098.84.294.178.196.266.4527.266.77 0 .2987-.088.5507-.266.756-.177.196-.457.294-.84.294zm7.129 8.778c-.672 0-1.264-.1073-1.778-.322-.513-.2147-.947-.504-1.302-.868-.354-.3733-.625-.7933-.812-1.26-.177-.4667-.266-.952-.266-1.456v-.294c0-.5227.094-1.0173.28-1.484.196-.476.472-.896.826-1.26.364-.3733.803-.6627 1.316-.868.514-.2147 1.092-.322 1.736-.322s1.223.1073 1.736.322c.514.2053.948.4947 1.302.868.364.364.64.784.826 1.26.187.4667.28.9613.28 1.484v.294c0 .504-.093.9893-.28 1.456-.177.4667-.443.8867-.798 1.26-.354.364-.788.6533-1.302.868-.513.2147-1.101.322-1.764.322zm0-1.666c.476 0 .878-.1027 1.204-.308.327-.2147.574-.4993.742-.854.168-.364.252-.7747.252-1.232 0-.4667-.088-.8773-.266-1.232-.168-.364-.42-.6487-.756-.854-.326-.2147-.718-.322-1.176-.322-.457 0-.854.1073-1.19.322-.326.2053-.578.49-.756.854-.177.3547-.266.7653-.266 1.232 0 .4573.084.868.252 1.232.178.3547.43.6393.756.854.327.2053.728.308 1.204.308zm5.848 1.4v-7.602h1.54v3.262h-.14c0-.7747.103-1.4187.308-1.932.205-.5227.509-.9147.91-1.176.411-.2613.919-.392 1.526-.392h.084c.905 0 1.591.294 2.058.882.467.5787.7 1.4467.7 2.604v4.354h-1.946v-4.522c0-.4667-.135-.8447-.406-1.134-.261-.2893-.625-.434-1.092-.434-.476 0-.863.1493-1.162.448-.289.2893-.434.6813-.434 1.176v4.466zm11.638 0v-1.708l5.642-6.832.028.294-.42-.56.28.224h-5.362v-1.638h7.672v1.708l-5.656 6.818-.042-.322.462.63-.336-.252h5.642v1.638zm13.112.266c-.672 0-1.265-.1073-1.778-.322s-.947-.504-1.302-.868c-.355-.3733-.625-.7933-.812-1.26-.177-.4667-.266-.952-.266-1.456v-.294c0-.5227.093-1.0173.28-1.484.196-.476.471-.896.826-1.26.364-.3733.803-.6627 1.316-.868.513-.2147 1.092-.322 1.736-.322s1.223.1073 1.736.322c.513.2053.947.4947 1.302.868.364.364.639.784.826 1.26.187.4667.28.9613.28 1.484v.294c0 .504-.093.9893-.28 1.456-.177.4667-.443.8867-.798 1.26-.355.364-.789.6533-1.302.868s-1.101.322-1.764.322zm0-1.666c.476 0 .877-.1027 1.204-.308.327-.2147.574-.4993.742-.854.168-.364.252-.7747.252-1.232 0-.4667-.089-.8773-.266-1.232-.168-.364-.42-.6487-.756-.854-.327-.2147-.719-.322-1.176-.322s-.854.1073-1.19.322c-.327.2053-.579.49-.756.854-.177.3547-.266.7653-.266 1.232 0 .4573.084.868.252 1.232.177.3547.429.6393.756.854.327.2053.728.308 1.204.308zm5.848 1.4v-7.602h1.54v3.262h-.14c0-.7747.102-1.4187.308-1.932.205-.5227.508-.9147.91-1.176.41-.2613.919-.392 1.526-.392h.084c.905 0 1.591.294 2.058.882.466.5787.7 1.4467.7 2.604v4.354h-1.946v-4.522c0-.4667-.136-.8447-.406-1.134-.262-.2893-.626-.434-1.092-.434-.476 0-.864.1493-1.162.448-.29.2893-.434.6813-.434 1.176v4.466zm12.48.266c-.653 0-1.227-.112-1.722-.336-.485-.224-.891-.5227-1.218-.896-.317-.3827-.56-.8073-.728-1.274-.159-.4667-.238-.9427-.238-1.428v-.266c0-.504.079-.9893.238-1.456.168-.476.411-.896.728-1.26.327-.3733.728-.6673 1.204-.882.476-.224 1.027-.336 1.652-.336.821 0 1.507.182 2.058.546.56.3547.98.826 1.26 1.414.28.5787.42 1.204.42 1.876v.7h-6.734v-1.19h5.516l-.602.588c0-.4853-.07-.9007-.21-1.246s-.355-.6113-.644-.798c-.28-.1867-.635-.28-1.064-.28s-.793.098-1.092.294-.527.4807-.686.854c-.149.364-.224.8027-.224 1.316 0 .476.075.9007.224 1.274.149.364.378.6533.686.868.308.2053.7.308 1.176.308s.863-.0933 1.162-.28c.299-.196.49-.434.574-.714h1.792c-.112.5227-.327.98-.644 1.372s-.723.6953-1.218.91c-.485.2147-1.041.322-1.666.322z" fill="#2c245e"/><path d="m947.472 73v-9.268h1.372v9.268zm-3.108-8.988v-1.232h7.588v1.232zm9.237 8.988v-10.22h1.344v6.104h-.336c0-.7373.093-1.372.28-1.904.196-.5413.494-.9567.896-1.246.401-.2893.914-.434 1.54-.434h.056c.896 0 1.572.2987 2.03.896.457.588.686 1.4327.686 2.534v4.27h-1.344v-4.55c0-.6067-.173-1.078-.518-1.414-.336-.336-.775-.504-1.316-.504-.598 0-1.078.2007-1.442.602-.355.392-.532.91-.532 1.554v4.312zm12.133.252c-.654 0-1.218-.112-1.694-.336s-.864-.518-1.162-.882c-.299-.3733-.523-.7887-.672-1.246-.14-.4573-.21-.924-.21-1.4v-.252c0-.4853.07-.9567.21-1.414.149-.4573.373-.868.672-1.232.298-.3733.676-.6673 1.134-.882.466-.224 1.012-.336 1.638-.336.812 0 1.479.1773 2.002.532.532.3453.924.7933 1.176 1.344.261.5507.392 1.1387.392 1.764v.602h-6.636v-1.008h5.656l-.308.546c0-.532-.084-.9893-.252-1.372-.168-.392-.42-.6953-.756-.91s-.761-.322-1.274-.322c-.532 0-.976.1213-1.33.364-.346.2427-.607.574-.784.994-.168.42-.252.9053-.252 1.456 0 .532.084 1.0127.252 1.442.177.42.448.756.812 1.008.364.2427.826.364 1.386.364.588 0 1.064-.1307 1.428-.392.373-.2613.597-.5647.672-.91h1.26c-.103.5133-.308.9567-.616 1.33s-.696.658-1.162.854c-.467.196-.994.294-1.582.294zm8.663-.252v-10.22h1.344v10.22zm-1.036-9.156v-1.064h2.38v1.064zm8.402 9.408c-.653 0-1.227-.112-1.722-.336-.494-.224-.914-.518-1.26-.882-.336-.3733-.592-.7887-.77-1.246-.168-.4573-.252-.924-.252-1.4v-.252c0-.476.089-.9427.266-1.4.178-.4667.439-.882.784-1.246.346-.3733.766-.6673 1.26-.882.495-.224 1.06-.336 1.694-.336.635 0 1.2.112 1.694.336.495.2147.915.5087 1.26.882.346.364.607.7793.784 1.246.178.4573.266.924.266 1.4v.252c0 .476-.088.9427-.266 1.4-.168.4573-.424.8727-.77 1.246-.336.364-.751.658-1.246.882-.494.224-1.068.336-1.722.336zm0-1.204c.56 0 1.036-.1213 1.428-.364.402-.252.705-.588.91-1.008.215-.42.322-.8913.322-1.414 0-.532-.107-1.008-.322-1.428-.214-.42-.522-.7513-.924-.994-.392-.2427-.863-.364-1.414-.364-.541 0-1.012.1213-1.414.364-.401.2427-.709.574-.924.994-.214.42-.322.896-.322 1.428 0 .5227.103.994.308 1.414.215.42.518.756.91 1.008.402.2427.882.364 1.442.364zm8.845 3.864c-.345 0-.695-.014-1.05-.042-.345-.028-.676-.0653-.994-.112v-1.134c.336.0467.686.084 1.05.112.374.0373.724.056 1.05.056.682 0 1.223-.0933 1.624-.28.411-.1773.705-.462.882-.854.187-.3827.28-.8773.28-1.484v-1.428l.448-1.064c-.028.756-.186 1.386-.476 1.89-.289.4947-.667.868-1.134 1.12-.457.2427-.966.364-1.526.364-.522 0-1.003-.098-1.442-.294-.429-.2053-.802-.4853-1.12-.84-.308-.3547-.55-.7607-.728-1.218-.168-.4667-.252-.9567-.252-1.47v-.252c0-.5227.089-1.008.266-1.456.178-.4573.425-.854.742-1.19.318-.336.696-.5973 1.134-.784.448-.1867.938-.28 1.47-.28.626 0 1.176.1353 1.652.406.476.2613.85.6487 1.12 1.162.28.504.434 1.1247.462 1.862l-.392.014v-3.192h1.064v6.594c0 .896-.14 1.6193-.42 2.17-.27.56-.709.9707-1.316 1.232-.597.2613-1.395.392-2.394.392zm.406-4.088c.448 0 .854-.098 1.218-.294.374-.196.668-.476.882-.84.224-.3733.336-.8167.336-1.33v-.644c0-.504-.116-.9287-.35-1.274-.224-.3453-.518-.6067-.882-.784s-.76-.266-1.19-.266c-.485 0-.914.112-1.288.336-.373.224-.662.5413-.868.952-.205.4013-.308.8773-.308 1.428s.103 1.0313.308 1.442c.215.4107.504.728.868.952.374.2147.798.322 1.274.322zm9.656 1.428c-.65 0-1.226-.112-1.721-.336-.494-.224-.914-.518-1.26-.882-.336-.3733-.592-.7887-.77-1.246-.168-.4573-.252-.924-.252-1.4v-.252c0-.476.089-.9427.266-1.4.178-.4667.439-.882.784-1.246.346-.3733.766-.6673 1.26-.882.495-.224 1.063-.336 1.693-.336.64 0 1.2.112 1.7.336.49.2147.91.5087 1.26.882.34.364.6.7793.78 1.246.18.4573.27.924.27 1.4v.252c0 .476-.09.9427-.27 1.4-.17.4573-.43.8727-.77 1.246-.34.364-.75.658-1.25.882-.49.224-1.07.336-1.72.336zm0-1.204c.56 0 1.04-.1213 1.43-.364.4-.252.7-.588.91-1.008s.32-.8913.32-1.414c0-.532-.11-1.008-.32-1.428-.22-.42-.52-.7513-.92-.994s-.87-.364-1.42-.364c-.54 0-1.011.1213-1.413.364-.401.2427-.709.574-.924.994-.214.42-.322.896-.322 1.428 0 .5227.103.994.308 1.414.215.42.518.756.91 1.008.402.2427.881.364 1.441.364zm13.73.952v-2.24h-.23v-2.59c0-.5133-.13-.9007-.4-1.162s-.65-.392-1.17-.392c-.29 0-.58.0047-.89.014s-.6.0187-.88.028-.53.0233-.73.042v-1.176c.2-.0187.42-.0327.64-.042.24-.0187.47-.028.72-.028.24-.0093.47-.014.7-.014.76 0 1.39.0933 1.87.28.49.1773.85.4713 1.08.882s.35.966.35 1.666v4.732zm-2.45.196c-.56 0-1.05-.0933-1.46-.28-.4-.196-.71-.476-.94-.84-.21-.364-.32-.8027-.32-1.316 0-.532.12-.9753.35-1.33.24-.3547.59-.6207 1.05-.798.46-.1867 1.01-.28 1.65-.28h2.03v1.008h-2.08c-.55 0-.96.1307-1.25.392s-.43.5973-.43 1.008.14.742.43.994.7.378 1.25.378c.31 0 .62-.056.91-.168.29-.1213.52-.3173.71-.588.2-.28.3-.6627.32-1.148l.37.532c-.05.532-.18.98-.4 1.344-.2.3547-.49.6253-.86.812s-.81.28-1.33.28zm5.98-.196v-7.476h1.06v3.206h-.17c0-.7373.1-1.358.3-1.862.2-.5133.51-.9007.92-1.162.41-.2707.93-.406 1.55-.406h.06c.94 0 1.64.294 2.09.882s.68 1.4373.68 2.548v4.27h-1.34v-4.55c0-.5787-.16-1.0407-.49-1.386-.33-.3547-.78-.532-1.35-.532-.58 0-1.06.182-1.42.546-.37.364-.55.8493-.55 1.456v4.466zm12.07.252c-.53 0-1.02-.098-1.47-.294-.44-.196-.84-.4713-1.17-.826s-.59-.7653-.77-1.232-.27-.9707-.27-1.512v-.252c0-.532.09-1.0313.27-1.498s.42-.8773.74-1.232c.33-.3547.71-.63 1.15-.826.45-.2053.94-.308 1.48-.308.57 0 1.09.1213 1.56.364.46.2333.85.602 1.14 1.106.3.504.47 1.1573.51 1.96l-.56-.896v-5.026h1.34v10.22h-1.06v-3.318h.39c-.04.8493-.21 1.54-.53 2.072-.32.5227-.72.9053-1.21 1.148-.47.2333-.99.35-1.54.35zm.19-1.176c.45 0 .87-.1027 1.24-.308.38-.2053.67-.4993.9-.882.22-.392.33-.8493.33-1.372v-.644c0-.5133-.11-.9473-.35-1.302-.22-.364-.52-.6393-.91-.826-.37-.196-.78-.294-1.23-.294-.49 0-.93.1167-1.31.35s-.67.56-.89.98c-.2.42-.3.9147-.3 1.484s.1 1.0687.32 1.498c.21.42.51.7467.89.98.39.224.82.336 1.31.336zm12.44 1.008c-.56 0-1.04-.0793-1.45-.238s-.72-.4293-.94-.812c-.22-.392-.32-.9193-.32-1.582v-7.196h1.28v7.364c0 .4013.11.714.33.938.22.2147.53.322.93.322h1.32v1.204zm-4-6.552v-1.008h5.15v1.008zm7.05 6.468v-10.22h1.34v6.104h-.33c0-.7373.09-1.372.28-1.904.19-.5413.49-.9567.89-1.246.41-.2893.92-.434 1.54-.434h.06c.9 0 1.57.2987 2.03.896.46.588.69 1.4327.69 2.534v4.27h-1.35v-4.55c0-.6067-.17-1.078-.52-1.414-.33-.336-.77-.504-1.31-.504-.6 0-1.08.2007-1.44.602-.36.392-.54.91-.54 1.554v4.312zm12.13.252c-.65 0-1.21-.112-1.69-.336s-.86-.518-1.16-.882c-.3-.3733-.53-.7887-.67-1.246s-.21-.924-.21-1.4v-.252c0-.4853.07-.9567.21-1.414s.37-.868.67-1.232c.3-.3733.67-.6673 1.13-.882.47-.224 1.01-.336 1.64-.336.81 0 1.48.1773 2 .532.53.3453.93.7933 1.18 1.344.26.5507.39 1.1387.39 1.764v.602h-6.64v-1.008h5.66l-.31.546c0-.532-.08-.9893-.25-1.372-.17-.392-.42-.6953-.76-.91-.33-.2147-.76-.322-1.27-.322-.53 0-.98.1213-1.33.364s-.61.574-.78.994-.26.9053-.26 1.456c0 .532.09 1.0127.26 1.442.17.42.44.756.81 1.008.36.2427.82.364 1.38.364.59 0 1.07-.1307 1.43-.392.37-.2613.6-.5647.67-.91h1.26c-.1.5133-.3.9567-.61 1.33s-.7.658-1.16.854c-.47.196-1 .294-1.59.294zm8.95-.252v-7.476h1.34v7.476zm-1.15-6.412v-1.064h2.49v1.064zm1.53-2.268c-.3 0-.53-.0793-.68-.238-.14-.1587-.21-.3593-.21-.602s.07-.4433.21-.602c.15-.1587.38-.238.68-.238.29 0 .51.0793.65.238.15.1587.23.3593.23.602s-.08.4433-.23.602c-.14.1587-.36.238-.65.238zm6.77 8.932c-.65 0-1.21-.112-1.68-.336s-.86-.5227-1.17-.896c-.3-.3827-.54-.8027-.7-1.26-.15-.4573-.22-.9147-.22-1.372v-.252c0-.476.07-.9427.22-1.4.16-.4573.4-.868.7-1.232.32-.3733.71-.672 1.18-.896s1.01-.336 1.64-.336c.62 0 1.18.1167 1.68.35s.9.5647 1.2.994c.31.42.48.9193.52 1.498h-1.29c-.06-.4667-.28-.854-.64-1.162-.37-.3173-.86-.476-1.47-.476-.53 0-.98.1213-1.33.364-.36.2427-.62.574-.8.994s-.27.896-.27 1.428c0 .5133.09.9847.27 1.414.18.42.44.756.8 1.008.36.2427.81.364 1.36.364.42 0 .78-.0747 1.09-.224s.55-.35.74-.602.3-.5367.34-.854h1.28c-.02.588-.2 1.0967-.51 1.526s-.72.7653-1.24 1.008c-.5.2333-1.07.35-1.7.35zm8.72 0c-.65 0-1.22-.112-1.72-.336-.49-.224-.91-.518-1.26-.882-.33-.3733-.59-.7887-.77-1.246-.17-.4573-.25-.924-.25-1.4v-.252c0-.476.09-.9427.27-1.4.17-.4667.44-.882.78-1.246.35-.3733.77-.6673 1.26-.882.5-.224 1.06-.336 1.69-.336.64 0 1.2.112 1.7.336.49.2147.91.5087 1.26.882.34.364.61.7793.78 1.246.18.4573.27.924.27 1.4v.252c0 .476-.09.9427-.27 1.4-.17.4573-.42.8727-.77 1.246-.33.364-.75.658-1.24.882-.5.224-1.07.336-1.73.336zm0-1.204c.56 0 1.04-.1213 1.43-.364.4-.252.71-.588.91-1.008.22-.42.32-.8913.32-1.414 0-.532-.1-1.008-.32-1.428-.21-.42-.52-.7513-.92-.994-.39-.2427-.86-.364-1.42-.364-.54 0-1.01.1213-1.41.364s-.71.574-.92.994c-.22.42-.33.896-.33 1.428 0 .5227.11.994.31 1.414.22.42.52.756.91 1.008.4.2427.88.364 1.44.364zm6.02.952v-7.476h1.07v3.206h-.17c0-.7373.1-1.358.29-1.862.21-.5133.51-.9007.93-1.162.41-.2707.92-.406 1.55-.406h.06c.94 0 1.63.294 2.08.882.46.588.69 1.4373.69 2.548v4.27h-1.35v-4.55c0-.5787-.16-1.0407-.49-1.386-.32-.3547-.77-.532-1.34-.532-.59 0-1.06.182-1.43.546-.36.364-.54.8493-.54 1.456v4.466zm8.12-5.964v-.728h.13c.3 0 .53-.0513.71-.154s.3-.2613.38-.476c.08-.224.13-.504.13-.84v-1.05l.33.63c-.06.0373-.15.0653-.26.084s-.21.028-.31.028c-.26 0-.48-.0793-.66-.238-.17-.168-.25-.3967-.25-.686 0-.2707.08-.4947.24-.672s.39-.266.67-.266c.17 0 .34.042.5.126s.29.2333.39.448c.11.2147.16.5227.16.924v.294c0 .6813-.09 1.2087-.25 1.582-.17.3733-.41.6347-.72.784-.31.14-.67.21-1.09.21zm5.95 6.188c-.98 0-1.74-.21-2.28-.63-.53-.42-.81-.994-.83-1.722h1.26c.02.2893.17.5647.44.826.28.252.75.378 1.41.378.6 0 1.06-.1167 1.37-.35.32-.2427.48-.5367.48-.882 0-.308-.12-.546-.35-.714-.23-.1773-.61-.294-1.13-.35l-.82-.084c-.7-.0747-1.28-.2847-1.73-.63-.45-.3547-.67-.8493-.67-1.484 0-.476.12-.882.36-1.218.24-.3453.58-.6067 1.01-.784.43-.1867.92-.28 1.48-.28.84 0 1.52.1867 2.05.56.52.3733.79.9287.81 1.666h-1.26c-.01-.2987-.15-.5507-.42-.756-.26-.2147-.65-.322-1.18-.322-.52 0-.92.1073-1.19.322s-.4.4853-.4.812c0 .28.09.504.28.672s.51.2753.95.322l.81.084c.8.084 1.45.308 1.93.672.49.3547.73.8587.73 1.512 0 .4667-.13.882-.41 1.246-.26.3547-.62.6347-1.09.84-.46.196-1 .294-1.61.294zm11.42.028c-.65 0-1.22-.112-1.69-.336-.48-.224-.87-.518-1.16-.882-.3-.3733-.53-.7887-.68-1.246-.14-.4573-.21-.924-.21-1.4v-.252c0-.4853.07-.9567.21-1.414.15-.4573.38-.868.68-1.232.29-.3733.67-.6673 1.13-.882.47-.224 1.01-.336 1.64-.336.81 0 1.48.1773 2 .532.53.3453.92.7933 1.18 1.344s.39 1.1387.39 1.764v.602h-6.64v-1.008h5.66l-.31.546c0-.532-.08-.9893-.25-1.372-.17-.392-.42-.6953-.76-.91-.33-.2147-.76-.322-1.27-.322-.53 0-.98.1213-1.33.364s-.61.574-.79.994c-.16.42-.25.9053-.25 1.456 0 .532.09 1.0127.25 1.442.18.42.45.756.82 1.008.36.2427.82.364 1.38.364.59 0 1.07-.1307 1.43-.392.37-.2613.6-.5647.67-.91h1.26c-.1.5133-.31.9567-.61 1.33-.31.3733-.7.658-1.17.854-.46.196-.99.294-1.58.294zm4.47-.252 2.68-3.934-.05.28-2.5-3.822h1.48l1.81 2.814h.19l1.71-2.814h1.39l-2.37 3.724.04-.252 2.8 4.004h-1.48l-2.1-3.038h-.2l-2.01 3.038zm11.77.252c-.64 0-1.2-.112-1.68-.336-.46-.224-.85-.5227-1.16-.896-.31-.3827-.54-.8027-.7-1.26-.15-.4573-.22-.9147-.22-1.372v-.252c0-.476.07-.9427.22-1.4.16-.4573.39-.868.7-1.232.32-.3733.71-.672 1.18-.896s1.01-.336 1.64-.336c.62 0 1.18.1167 1.68.35s.9.5647 1.2.994c.31.42.48.9193.52 1.498h-1.29c-.06-.4667-.28-.854-.64-1.162-.37-.3173-.86-.476-1.47-.476-.54 0-.98.1213-1.33.364-.36.2427-.62.574-.8.994s-.27.896-.27 1.428c0 .5133.09.9847.27 1.414.18.42.44.756.8 1.008.36.2427.81.364 1.35.364.42 0 .79-.0747 1.1-.224.3-.1493.55-.35.74-.602s.3-.5367.33-.854h1.29c-.03.588-.2 1.0967-.52 1.526-.3.4293-.71.7653-1.23 1.008-.5.2333-1.07.35-1.71.35zm5.37-.252v-10.22h1.35v10.22zm-1.03-9.156v-1.064h2.38v1.064zm7.54 9.38c-.88 0-1.56-.2893-2.04-.868s-.71-1.414-.71-2.506v-4.34h1.34v4.606c0 .588.16 1.05.48 1.386.31.3267.74.49 1.28.49.56 0 1.02-.1773 1.38-.532.35-.364.53-.8587.53-1.484v-4.466h1.34v7.49h-1.06v-3.206h.17c0 .7373-.1 1.3627-.3 1.876-.19.504-.49.8913-.88 1.162-.38.2613-.87.392-1.47.392zm8.66 0c-.98 0-1.74-.21-2.29-.63-.53-.42-.8-.994-.82-1.722h1.26c.02.2893.16.5647.43.826.28.252.75.378 1.42.378.59 0 1.05-.1167 1.37-.35.32-.2427.47-.5367.47-.882 0-.308-.11-.546-.35-.714-.23-.1773-.61-.294-1.13-.35l-.81-.084c-.71-.0747-1.29-.2847-1.74-.63-.45-.3547-.67-.8493-.67-1.484 0-.476.12-.882.36-1.218.25-.3453.58-.6067 1.01-.784.43-.1867.93-.28 1.49-.28.84 0 1.52.1867 2.04.56s.79.9287.81 1.666h-1.26c-.01-.2987-.15-.5507-.42-.756-.26-.2147-.65-.322-1.17-.322-.53 0-.92.1073-1.19.322s-.41.4853-.41.812c0 .28.09.504.28.672.2.168.51.2753.95.322l.81.084c.81.084 1.45.308 1.94.672.48.3547.72.8587.72 1.512 0 .4667-.13.882-.4 1.246-.26.3547-.63.6347-1.09.84-.47.196-1.01.294-1.61.294zm5.42-.224v-7.476h1.34v7.476zm-1.15-6.412v-1.064h2.49v1.064zm1.52-2.268c-.3 0-.52-.0793-.67-.238-.14-.1587-.21-.3593-.21-.602s.07-.4433.21-.602c.15-.1587.37-.238.67-.238s.52.0793.66.238c.15.1587.23.3593.23.602s-.08.4433-.23.602c-.14.1587-.36.238-.66.238zm7.01 8.932c-.65 0-1.23-.112-1.72-.336s-.91-.518-1.26-.882c-.34-.3733-.59-.7887-.77-1.246-.17-.4573-.25-.924-.25-1.4v-.252c0-.476.09-.9427.26-1.4.18-.4667.44-.882.79-1.246.34-.3733.76-.6673 1.26-.882.49-.224 1.06-.336 1.69-.336.64 0 1.2.112 1.7.336.49.2147.91.5087 1.26.882.34.364.6.7793.78 1.246.18.4573.27.924.27 1.4v.252c0 .476-.09.9427-.27 1.4-.17.4573-.42.8727-.77 1.246-.34.364-.75.658-1.25.882-.49.224-1.06.336-1.72.336zm0-1.204c.56 0 1.04-.1213 1.43-.364.4-.252.7-.588.91-1.008s.32-.8913.32-1.414c0-.532-.11-1.008-.32-1.428s-.52-.7513-.92-.994-.87-.364-1.42-.364c-.54 0-1.01.1213-1.41.364s-.71.574-.93.994c-.21.42-.32.896-.32 1.428 0 .5227.1.994.31 1.414s.52.756.91 1.008c.4.2427.88.364 1.44.364zm6.02.952v-7.476h1.06v3.206h-.16c0-.7373.09-1.358.29-1.862.2-.5133.51-.9007.92-1.162.41-.2707.93-.406 1.56-.406h.05c.95 0 1.64.294 2.09.882.46.588.69 1.4373.69 2.548v4.27h-1.35v-4.55c0-.5787-.16-1.0407-.49-1.386-.33-.3547-.77-.532-1.34-.532-.59 0-1.07.182-1.43.546s-.55.8493-.55 1.456v4.466zm11.66 0v-1.498l4.08-4.886v.224l-.23-.336.19.084h-4.09v-1.064h5.32v1.498l-4.08 4.886v-.196l.26.35-.2-.126h4.24v1.064zm10.69.252c-.65 0-1.23-.112-1.72-.336-.5-.224-.92-.518-1.26-.882-.34-.3733-.59-.7887-.77-1.246-.17-.4573-.25-.924-.25-1.4v-.252c0-.476.09-.9427.26-1.4.18-.4667.44-.882.79-1.246.34-.3733.76-.6673 1.26-.882.49-.224 1.06-.336 1.69-.336.64 0 1.2.112 1.7.336.49.2147.91.5087 1.26.882.34.364.6.7793.78 1.246.18.4573.27.924.27 1.4v.252c0 .476-.09.9427-.27 1.4-.17.4573-.43.8727-.77 1.246-.34.364-.75.658-1.25.882-.49.224-1.07.336-1.72.336zm0-1.204c.56 0 1.04-.1213 1.43-.364.4-.252.7-.588.91-1.008s.32-.8913.32-1.414c0-.532-.11-1.008-.32-1.428-.22-.42-.52-.7513-.92-.994s-.87-.364-1.42-.364c-.54 0-1.01.1213-1.41.364s-.71.574-.93.994c-.21.42-.32.896-.32 1.428 0 .5227.1.994.31 1.414s.52.756.91 1.008c.4.2427.88.364 1.44.364zm6.02.952v-7.476h1.06v3.206h-.17c0-.7373.1-1.358.3-1.862.2-.5133.51-.9007.92-1.162.41-.2707.93-.406 1.56-.406h.05c.94 0 1.64.294 2.09.882.46.588.68 1.4373.68 2.548v4.27h-1.34v-4.55c0-.5787-.16-1.0407-.49-1.386-.33-.3547-.77-.532-1.34-.532-.59 0-1.07.182-1.43.546-.37.364-.55.8493-.55 1.456v4.466zm12.13.252c-.65 0-1.22-.112-1.69-.336-.48-.224-.87-.518-1.16-.882-.3-.3733-.53-.7887-.68-1.246-.14-.4573-.21-.924-.21-1.4v-.252c0-.4853.07-.9567.21-1.414.15-.4573.38-.868.68-1.232.29-.3733.67-.6673 1.13-.882.47-.224 1.01-.336 1.64-.336.81 0 1.48.1773 2 .532.53.3453.92.7933 1.18 1.344s.39 1.1387.39 1.764v.602h-6.64v-1.008h5.66l-.31.546c0-.532-.08-.9893-.25-1.372-.17-.392-.42-.6953-.76-.91-.33-.2147-.76-.322-1.27-.322-.53 0-.98.1213-1.33.364s-.61.574-.79.994c-.16.42-.25.9053-.25 1.456 0 .532.09 1.0127.25 1.442.18.42.45.756.82 1.008.36.2427.82.364 1.38.364.59 0 1.07-.1307 1.43-.392.37-.2613.6-.5647.67-.91h1.26c-.1.5133-.31.9567-.61 1.33-.31.3733-.7.658-1.17.854-.46.196-.99.294-1.58.294zm8.95-.252v-7.476h1.34v7.476zm-1.15-6.412v-1.064h2.49v1.064zm1.52-2.268c-.3 0-.52-.0793-.67-.238-.14-.1587-.21-.3593-.21-.602s.07-.4433.21-.602c.15-.1587.37-.238.67-.238s.52.0793.66.238c.15.1587.23.3593.23.602s-.08.4433-.23.602c-.14.1587-.36.238-.66.238zm6.02 8.904c-.98 0-1.74-.21-2.28-.63s-.81-.994-.83-1.722h1.26c.02.2893.16.5647.43.826.28.252.76.378 1.42.378.6 0 1.05-.1167 1.37-.35.32-.2427.48-.5367.48-.882 0-.308-.12-.546-.35-.714-.24-.1773-.62-.294-1.14-.35l-.81-.084c-.71-.0747-1.29-.2847-1.74-.63-.44-.3547-.67-.8493-.67-1.484 0-.476.12-.882.37-1.218.24-.3453.57-.6067 1-.784.43-.1867.93-.28 1.49-.28.84 0 1.52.1867 2.04.56s.8.9287.81 1.666h-1.26c-.01-.2987-.15-.5507-.42-.756-.26-.2147-.65-.322-1.17-.322s-.92.1073-1.19.322-.41.4853-.41.812c0 .28.1.504.28.672.2.168.52.2753.95.322l.82.084c.8.084 1.44.308 1.93.672.48.3547.73.8587.73 1.512 0 .4667-.14.882-.41 1.246-.26.3547-.63.6347-1.09.84-.47.196-1.01.294-1.61.294zm-277.114 20.028c-.653 0-1.218-.112-1.694-.336s-.863-.518-1.162-.882c-.299-.3733-.523-.7887-.672-1.246-.14-.4573-.21-.924-.21-1.4v-.252c0-.4853.07-.9567.21-1.414.149-.4573.373-.868.672-1.232.299-.3733.677-.6673 1.134-.882.467-.224 1.013-.336 1.638-.336.812 0 1.479.1773 2.002.532.532.3453.924.7933 1.176 1.344.261.5507.392 1.1387.392 1.764v.602h-6.636v-1.008h5.656l-.308.546c0-.532-.084-.9893-.252-1.372-.168-.392-.42-.6953-.756-.91s-.761-.322-1.274-.322c-.532 0-.975.1213-1.33.364-.345.2427-.607.574-.784.994-.168.42-.252.9053-.252 1.456 0 .532.084 1.0127.252 1.442.177.42.448.756.812 1.008.364.2427.826.364 1.386.364.588 0 1.064-.1307 1.428-.392.373-.2613.597-.5647.672-.91h1.26c-.103.5133-.308.9567-.616 1.33s-.695.658-1.162.854-.994.294-1.582.294zm11.12 2.548v-5.026l.532-1.064c-.028.812-.191 1.4793-.49 2.002-.298.5227-.686.91-1.162 1.162-.466.252-.98.378-1.54.378-.532 0-1.022-.1027-1.47-.308-.438-.2053-.821-.49-1.148-.854-.317-.364-.564-.7793-.742-1.246-.177-.476-.266-.98-.266-1.512v-.252c0-.532.089-1.0267.266-1.484.178-.4573.43-.8587.756-1.204.327-.3547.714-.63 1.162-.826s.948-.294 1.498-.294c.635 0 1.19.1353 1.666.406.486.2707.868.6627 1.148 1.176s.434 1.1387.462 1.876h-.392v-3.206h1.064v10.276zm-2.422-3.78c.458 0 .873-.1027 1.246-.308.374-.2053.672-.4993.896-.882.224-.392.336-.8493.336-1.372v-.644c0-.5133-.116-.9473-.35-1.302-.224-.364-.527-.6393-.91-.826-.373-.196-.779-.294-1.218-.294-.504 0-.947.1167-1.33.35-.373.2333-.667.5647-.882.994-.205.42-.308.91-.308 1.47s.108 1.0547.322 1.484c.215.42.514.7467.896.98.383.2333.817.35 1.302.35zm8.939 1.204c-.887 0-1.568-.2893-2.044-.868s-.714-1.414-.714-2.506v-4.34h1.344v4.606c0 .588.158 1.05.476 1.386.317.3267.746.49 1.288.49.56 0 1.017-.1773 1.372-.532.354-.364.532-.8587.532-1.484v-4.466h1.344v7.49h-1.064v-3.206h.168c0 .7373-.098 1.3627-.294 1.876-.196.504-.49.8913-.882 1.162-.383.2613-.873.392-1.47.392zm10.723-.224v-2.24h-.224v-2.59c0-.5133-.136-.9007-.406-1.162-.262-.2613-.649-.392-1.162-.392-.29 0-.588.0047-.896.014s-.602.0187-.882.028-.523.0233-.728.042v-1.176c.205-.0187.42-.0327.644-.042.233-.0187.471-.028.714-.028.242-.0093.476-.014.7-.014.765 0 1.39.0933 1.876.28.485.1773.844.4713 1.078.882.233.4107.35.966.35 1.666v4.732zm-2.45.196c-.56 0-1.046-.0933-1.456-.28-.402-.196-.714-.476-.938-.84-.215-.364-.322-.8027-.322-1.316 0-.532.116-.9753.35-1.33.242-.3547.592-.6207 1.05-.798.457-.1867 1.008-.28 1.652-.28h2.03v1.008h-2.086c-.542 0-.957.1307-1.246.392-.29.2613-.434.5973-.434 1.008s.144.742.434.994c.289.252.704.378 1.246.378.317 0 .62-.056.91-.168.289-.1213.527-.3173.714-.588.196-.28.303-.6627.322-1.148l.364.532c-.047.532-.178.98-.392 1.344-.206.3547-.495.6253-.868.812-.364.1867-.808.28-1.33.28zm6.064-.196v-10.22h1.344v10.22zm-1.036-9.156v-1.064h2.38v1.064zm11.056 9.24c-.56 0-1.046-.0793-1.456-.238-.402-.1587-.714-.4293-.938-.812-.215-.392-.322-.9193-.322-1.582v-7.196h1.288v7.364c0 .4013.107.714.322.938.224.2147.536.322.938.322h1.316v1.204zm-4.004-6.552v-1.008h5.152v1.008zm10.442 6.72c-.653 0-1.227-.112-1.722-.336s-.915-.518-1.26-.882c-.336-.3733-.593-.7887-.77-1.246-.168-.4573-.252-.924-.252-1.4v-.252c0-.476.089-.9427.266-1.4.177-.4667.439-.882.784-1.246.345-.3733.765-.6673 1.26-.882.495-.224 1.059-.336 1.694-.336s1.199.112 1.694.336c.495.2147.915.5087 1.26.882.348.364.608.7793.788 1.246.17.4573.26.924.26 1.4v.252c0 .476-.09.9427-.26 1.4s-.43.8727-.774 1.246c-.336.364-.751.658-1.246.882s-1.069.336-1.722.336zm0-1.204c.56 0 1.036-.1213 1.428-.364.401-.252.705-.588.91-1.008.215-.42.322-.8913.322-1.414 0-.532-.107-1.008-.322-1.428s-.523-.7513-.924-.994c-.392-.2427-.863-.364-1.414-.364-.541 0-1.013.1213-1.414.364s-.709.574-.924.994-.322.896-.322 1.428c0 .5227.103.994.308 1.414.215.42.518.756.91 1.008.401.2427.882.364 1.442.364zm12.112 1.036c-.56 0-1.04-.0793-1.45-.238-.4-.1587-.72-.4293-.94-.812-.22-.392-.32-.9193-.32-1.582v-7.196h1.28v7.364c0 .4013.11.714.33.938.22.2147.53.322.93.322h1.32v1.204zm-4-6.552v-1.008h5.15v1.008zm7.05 6.468v-10.22h1.35v6.104h-.34c0-.7373.09-1.372.28-1.904.2-.5413.49-.9567.9-1.246.4-.2893.91-.434 1.54-.434h.05c.9 0 1.57.2987 2.03.896.46.588.69 1.4327.69 2.534v4.27h-1.35v-4.55c0-.6067-.17-1.078-.51-1.414s-.78-.504-1.32-.504c-.6 0-1.08.2007-1.44.602-.36.392-.53.91-.53 1.554v4.312zm12.13.252c-.65 0-1.21-.112-1.69-.336s-.86-.518-1.16-.882c-.3-.3733-.52-.7887-.67-1.246-.14-.4573-.21-.924-.21-1.4v-.252c0-.4853.07-.9567.21-1.414.15-.4573.37-.868.67-1.232.3-.3733.68-.6673 1.13-.882.47-.224 1.02-.336 1.64-.336.81 0 1.48.1773 2 .532.53.3453.93.7933 1.18 1.344.26.5507.39 1.1387.39 1.764v.602h-6.64v-1.008h5.66l-.31.546c0-.532-.08-.9893-.25-1.372-.17-.392-.42-.6953-.76-.91-.33-.2147-.76-.322-1.27-.322-.53 0-.97.1213-1.33.364-.34.2427-.61.574-.78.994s-.26.9053-.26 1.456c0 .532.09 1.0127.26 1.442.17.42.44.756.81 1.008.36.2427.82.364 1.38.364.59 0 1.07-.1307 1.43-.392.38-.2613.6-.5647.67-.91h1.26c-.1.5133-.3.9567-.61 1.33s-.7.658-1.16.854c-.47.196-1 .294-1.59.294zm10.77-.252 1.51-7.224h1.82l1.76 7.224h-1.14l-1.77-7.196h.45l-1.53 7.196zm-.69 0v-1.064h1.56v1.064zm-.31 0-2.11-7.476h1.29l2.06 7.476zm5.23 0v-1.064h1.55v1.064zm.63 0 1.79-7.476h1.22l-1.84 7.476zm5.19 0v-7.476h1.34v7.476zm-1.15-6.412v-1.064h2.49v1.064zm1.52-2.268c-.3 0-.52-.0793-.67-.238-.14-.1587-.21-.3593-.21-.602s.07-.4433.21-.602c.15-.1587.37-.238.67-.238s.52.0793.66.238c.15.1587.23.3593.23.602s-.08.4433-.23.602c-.14.1587-.36.238-.66.238zm6.69 8.932c-.53 0-1.02-.098-1.47-.294s-.84-.4713-1.18-.826c-.32-.3547-.58-.7653-.77-1.232-.17-.4667-.26-.9707-.26-1.512v-.252c0-.532.09-1.0313.26-1.498.18-.4667.43-.8773.75-1.232s.71-.63 1.14-.826c.45-.2053.95-.308 1.49-.308.57 0 1.09.1213 1.55.364.47.2333.85.602 1.15 1.106s.47 1.1573.5 1.96l-.56-.896v-5.026h1.35v10.22h-1.07v-3.318h.4c-.04.8493-.22 1.54-.54 2.072-.31.5227-.71.9053-1.2 1.148-.48.2333-.99.35-1.54.35zm.18-1.176c.46 0 .87-.1027 1.25-.308.37-.2053.67-.4993.89-.882.23-.392.34-.8493.34-1.372v-.644c0-.5133-.12-.9473-.35-1.302-.22-.364-.53-.6393-.91-.826-.37-.196-.78-.294-1.23-.294-.5 0-.94.1167-1.32.35-.37.2333-.67.56-.88.98s-.31.9147-.31 1.484.11 1.0687.32 1.498c.22.42.52.7467.9.98.38.224.82.336 1.3.336zm9.26 1.008c-.56 0-1.04-.0793-1.45-.238-.4-.1587-.72-.4293-.94-.812-.22-.392-.32-.9193-.32-1.582v-7.196h1.28v7.364c0 .4013.11.714.33.938.22.2147.53.322.93.322h1.32v1.204zm-4-6.552v-1.008h5.15v1.008zm7.05 6.468v-10.22h1.35v6.104h-.34c0-.7373.09-1.372.28-1.904.2-.5413.49-.9567.9-1.246.4-.2893.91-.434 1.54-.434h.05c.9 0 1.57.2987 2.03.896.46.588.69 1.4327.69 2.534v4.27h-1.35v-4.55c0-.6067-.17-1.078-.51-1.414s-.78-.504-1.32-.504c-.6 0-1.08.2007-1.44.602-.36.392-.53.91-.53 1.554v4.312zm15.59.252c-.66 0-1.23-.112-1.73-.336-.49-.224-.91-.518-1.26-.882-.33-.3733-.59-.7887-.77-1.246-.16-.4573-.25-.924-.25-1.4v-.252c0-.476.09-.9427.27-1.4.18-.4667.44-.882.78-1.246.35-.3733.77-.6673 1.26-.882.5-.224 1.06-.336 1.7-.336.63 0 1.2.112 1.69.336.49.2147.91.5087 1.26.882.35.364.61.7793.78 1.246.18.4573.27.924.27 1.4v.252c0 .476-.09.9427-.27 1.4-.16.4573-.42.8727-.77 1.246-.33.364-.75.658-1.24.882-.5.224-1.07.336-1.72.336zm0-1.204c.56 0 1.03-.1213 1.42-.364.41-.252.71-.588.91-1.008.22-.42.33-.8913.33-1.414 0-.532-.11-1.008-.33-1.428-.21-.42-.52-.7513-.92-.994-.39-.2427-.86-.364-1.41-.364s-1.02.1213-1.42.364-.71.574-.92.994c-.22.42-.32.896-.32 1.428 0 .5227.1.994.3 1.414.22.42.52.756.91 1.008.41.2427.89.364 1.45.364zm6.21.952v-7.854c0-.8307.22-1.442.66-1.834s1.08-.588 1.93-.588h.92v1.12h-1.14c-.35 0-.62.098-.8.294-.19.1867-.28.448-.28.784v8.078zm-1.04-6.384v-1.008h4.69v1.008zm12.78 6.636c-.66 0-1.23-.112-1.72-.336-.5-.224-.92-.518-1.26-.882-.34-.3733-.6-.7887-.77-1.246s-.26-.924-.26-1.4v-.252c0-.476.09-.9427.27-1.4.18-.4667.44-.882.78-1.246.35-.3733.77-.6673 1.26-.882.5-.224 1.06-.336 1.7-.336.63 0 1.2.112 1.69.336.5.2147.92.5087 1.26.882.35.364.61.7793.79 1.246.17.4573.26.924.26 1.4v.252c0 .476-.09.9427-.26 1.4s-.43.8727-.77 1.246c-.34.364-.76.658-1.25.882-.5.224-1.07.336-1.72.336zm0-1.204c.56 0 1.03-.1213 1.43-.364.4-.252.7-.588.91-1.008s.32-.8913.32-1.414c0-.532-.11-1.008-.32-1.428-.22-.42-.53-.7513-.93-.994-.39-.2427-.86-.364-1.41-.364-.54 0-1.02.1213-1.42.364s-.71.574-.92.994c-.22.42-.32.896-.32 1.428 0 .5227.1.994.31 1.414s.51.756.91 1.008c.4.2427.88.364 1.44.364zm6.01.952v-7.476h1.07v3.206h-.17c0-.7373.1-1.358.29-1.862.21-.5133.52-.9007.93-1.162.41-.2707.93-.406 1.55-.406h.06c.94 0 1.64.294 2.08.882.46.588.69 1.4373.69 2.548v4.27h-1.34v-4.55c0-.5787-.17-1.0407-.49-1.386-.33-.3547-.78-.532-1.35-.532-.59 0-1.06.182-1.43.546-.36.364-.54.8493-.54 1.456v4.466zm12.14.252c-.66 0-1.22-.112-1.7-.336-.47-.224-.86-.518-1.16-.882-.3-.3733-.52-.7887-.67-1.246-.14-.4573-.21-.924-.21-1.4v-.252c0-.4853.07-.9567.21-1.414.15-.4573.37-.868.67-1.232.3-.3733.68-.6673 1.14-.882.46-.224 1.01-.336 1.63-.336.82 0 1.48.1773 2.01.532.53.3453.92.7933 1.17 1.344.26.5507.39 1.1387.39 1.764v.602h-6.63v-1.008h5.65l-.3.546c0-.532-.09-.9893-.26-1.372-.16-.392-.42-.6953-.75-.91-.34-.2147-.76-.322-1.28-.322-.53 0-.97.1213-1.33.364-.34.2427-.6.574-.78.994-.17.42-.25.9053-.25 1.456 0 .532.08 1.0127.25 1.442.18.42.45.756.81 1.008.37.2427.83.364 1.39.364.59 0 1.06-.1307 1.43-.392s.59-.5647.67-.91h1.26c-.11.5133-.31.9567-.62 1.33s-.69.658-1.16.854-.99.294-1.58.294zm8.58 2.548v-10.276h1.06v3.234l-.25-.028c.05-.8027.21-1.456.5-1.96.3-.5133.69-.8913 1.17-1.134.47-.2427.99-.364 1.55-.364.54 0 1.03.1027 1.47.308.45.2053.83.4853 1.15.84.31.3547.56.7653.73 1.232.16.4667.25.9613.25 1.484v.252c0 .5227-.09 1.0173-.27 1.484s-.43.8773-.75 1.232-.7.6347-1.15.84c-.44.2053-.93.308-1.46.308s-1.04-.1167-1.52-.35c-.49-.2333-.89-.6113-1.21-1.134s-.5-1.2087-.54-2.058l.61 1.12v4.97zm3.79-3.724c.51 0 .94-.1167 1.32-.35.37-.2427.66-.574.87-.994.2-.4293.3-.9193.3-1.47 0-.56-.1-1.05-.3-1.47-.21-.42-.5-.7467-.87-.98-.38-.2427-.81-.364-1.32-.364-.45 0-.86.1027-1.24.308-.39.196-.7.4853-.93.868-.22.3733-.33.826-.33 1.358v.644c0 .5133.11.952.35 1.316.23.364.54.644.92.84s.79.294 1.23.294zm10.38.924v-2.24h-.22v-2.59c0-.5133-.14-.9007-.41-1.162-.26-.2613-.65-.392-1.16-.392-.29 0-.59.0047-.9.014-.3.0093-.6.0187-.88.028s-.52.0233-.73.042v-1.176c.21-.0187.42-.0327.65-.042.23-.0187.47-.028.71-.028.24-.0093.48-.014.7-.014.77 0 1.39.0933 1.88.28.48.1773.84.4713 1.08.882.23.4107.35.966.35 1.666v4.732zm-2.45.196c-.56 0-1.04-.0933-1.45-.28-.41-.196-.72-.476-.94-.84s-.32-.8027-.32-1.316c0-.532.11-.9753.35-1.33s.59-.6207 1.05-.798c.45-.1867 1-.28 1.65-.28h2.03v1.008h-2.09c-.54 0-.96.1307-1.24.392-.29.2613-.44.5973-.44 1.008s.15.742.44.994c.28.252.7.378 1.24.378.32 0 .62-.056.91-.168.29-.1213.53-.3173.72-.588.19-.28.3-.6627.32-1.148l.36.532c-.05.532-.18.98-.39 1.344-.21.3547-.5.6253-.87.812-.36.1867-.81.28-1.33.28zm5.98-.196v-7.476h1.07v3.08h-.06c0-1.092.24-1.89.71-2.394.49-.5133 1.21-.77 2.17-.77h.26v1.204h-.48c-.75 0-1.32.2007-1.72.602-.4.392-.6.9613-.6 1.708v4.046zm8.79.084c-.56 0-1.04-.0793-1.45-.238-.4-.1587-.72-.4293-.94-.812-.22-.392-.32-.9193-.32-1.582v-7.196h1.29v7.364c0 .4013.1.714.32.938.22.2147.53.322.94.322h1.31v1.204zm-4-6.552v-1.008h5.15v1.008zm13.68 6.72c-.65 0-1.23-.112-1.72-.336-.5-.224-.92-.518-1.26-.882-.34-.3733-.59-.7887-.77-1.246-.17-.4573-.25-.924-.25-1.4v-.252c0-.476.09-.9427.26-1.4.18-.4667.44-.882.79-1.246.34-.3733.76-.6673 1.26-.882.49-.224 1.06-.336 1.69-.336.64 0 1.2.112 1.7.336.49.2147.91.5087 1.26.882.34.364.6.7793.78 1.246.18.4573.27.924.27 1.4v.252c0 .476-.09.9427-.27 1.4-.17.4573-.43.8727-.77 1.246-.34.364-.75.658-1.25.882-.49.224-1.07.336-1.72.336zm0-1.204c.56 0 1.04-.1213 1.43-.364.4-.252.7-.588.91-1.008s.32-.8913.32-1.414c0-.532-.11-1.008-.32-1.428-.22-.42-.52-.7513-.92-.994s-.87-.364-1.42-.364c-.54 0-1.01.1213-1.41.364s-.71.574-.93.994c-.21.42-.32.896-.32 1.428 0 .5227.1.994.31 1.414s.52.756.91 1.008c.4.2427.88.364 1.44.364zm6.21.952v-7.854c0-.8307.22-1.442.66-1.834s1.09-.588 1.93-.588h.93v1.12h-1.15c-.34 0-.61.098-.8.294-.18.1867-.28.448-.28.784v8.078zm-1.03-6.384v-1.008h4.69v1.008zm12.24 6.468c-.56 0-1.04-.0793-1.46-.238-.4-.1587-.71-.4293-.93-.812-.22-.392-.33-.9193-.33-1.582v-7.196h1.29v7.364c0 .4013.11.714.32.938.23.2147.54.322.94.322h1.32v1.204zm-4-6.552v-1.008h5.15v1.008zm7.05 6.468v-10.22h1.34v6.104h-.33c0-.7373.09-1.372.28-1.904.19-.5413.49-.9567.89-1.246s.92-.434 1.54-.434h.06c.9 0 1.57.2987 2.03.896.46.588.69 1.4327.69 2.534v4.27h-1.35v-4.55c0-.6067-.17-1.078-.52-1.414-.33-.336-.77-.504-1.31-.504-.6 0-1.08.2007-1.44.602-.36.392-.54.91-.54 1.554v4.312zm12.13.252c-.65 0-1.22-.112-1.69-.336-.48-.224-.86-.518-1.16-.882-.3-.3733-.53-.7887-.68-1.246-.14-.4573-.21-.924-.21-1.4v-.252c0-.4853.07-.9567.21-1.414.15-.4573.38-.868.68-1.232.3-.3733.67-.6673 1.13-.882.47-.224 1.01-.336 1.64-.336.81 0 1.48.1773 2 .532.53.3453.92.7933 1.18 1.344s.39 1.1387.39 1.764v.602h-6.64v-1.008h5.66l-.31.546c0-.532-.08-.9893-.25-1.372-.17-.392-.42-.6953-.76-.91-.33-.2147-.76-.322-1.27-.322-.53 0-.98.1213-1.33.364s-.61.574-.79.994c-.16.42-.25.9053-.25 1.456 0 .532.09 1.0127.25 1.442.18.42.45.756.82 1.008.36.2427.82.364 1.38.364.59 0 1.07-.1307 1.43-.392.37-.2613.6-.5647.67-.91h1.26c-.1.5133-.31.9567-.61 1.33-.31.3733-.7.658-1.17.854-.46.196-.99.294-1.58.294zm8.95-.252v-7.476h1.34v7.476zm-1.15-6.412v-1.064h2.49v1.064zm1.52-2.268c-.29 0-.52-.0793-.67-.238-.14-.1587-.21-.3593-.21-.602s.07-.4433.21-.602c.15-.1587.38-.238.67-.238.3 0 .52.0793.66.238.15.1587.23.3593.23.602s-.08.4433-.23.602c-.14.1587-.36.238-.66.238zm6.78 8.932c-.65 0-1.21-.112-1.68-.336s-.86-.5227-1.17-.896c-.3-.3827-.54-.8027-.7-1.26-.15-.4573-.22-.9147-.22-1.372v-.252c0-.476.07-.9427.22-1.4.16-.4573.4-.868.7-1.232.32-.3733.71-.672 1.18-.896s1.01-.336 1.64-.336c.62 0 1.18.1167 1.68.35s.9.5647 1.2.994c.31.42.48.9193.52 1.498h-1.29c-.06-.4667-.28-.854-.64-1.162-.37-.3173-.86-.476-1.47-.476-.53 0-.98.1213-1.33.364-.36.2427-.62.574-.8.994s-.27.896-.27 1.428c0 .5133.09.9847.27 1.414.18.42.44.756.8 1.008.36.2427.81.364 1.36.364.42 0 .78-.0747 1.09-.224s.55-.35.74-.602.3-.5367.34-.854h1.28c-.02.588-.2 1.0967-.51 1.526s-.72.7653-1.24 1.008c-.5.2333-1.07.35-1.7.35zm8.72 0c-.65 0-1.22-.112-1.72-.336-.49-.224-.91-.518-1.26-.882-.33-.3733-.59-.7887-.77-1.246-.17-.4573-.25-.924-.25-1.4v-.252c0-.476.09-.9427.27-1.4.17-.4667.43-.882.78-1.246.34-.3733.76-.6673 1.26-.882.49-.224 1.06-.336 1.69-.336.64 0 1.2.112 1.7.336.49.2147.91.5087 1.26.882.34.364.6.7793.78 1.246.18.4573.27.924.27 1.4v.252c0 .476-.09.9427-.27 1.4-.17.4573-.42.8727-.77 1.246-.33.364-.75.658-1.24.882-.5.224-1.07.336-1.73.336zm0-1.204c.56 0 1.04-.1213 1.43-.364.4-.252.71-.588.91-1.008.22-.42.32-.8913.32-1.414 0-.532-.1-1.008-.32-1.428-.21-.42-.52-.7513-.92-.994-.39-.2427-.87-.364-1.42-.364-.54 0-1.01.1213-1.41.364s-.71.574-.92.994c-.22.42-.33.896-.33 1.428 0 .5227.11.994.31 1.414.22.42.52.756.91 1.008.4.2427.88.364 1.44.364zm6.02.952v-7.476h1.06v3.206h-.16c0-.7373.09-1.358.29-1.862.21-.5133.51-.9007.92-1.162.42-.2707.93-.406 1.56-.406h.05c.95 0 1.64.294 2.09.882.46.588.69 1.4373.69 2.548v4.27h-1.35v-4.55c0-.5787-.16-1.0407-.49-1.386-.32-.3547-.77-.532-1.34-.532-.59 0-1.07.182-1.43.546s-.55.8493-.55 1.456v4.466zm8.69 0v-1.708h1.62v1.708z" fill="#a19db6"/><path d="m1238.78 741.266c-.81 0-1.49-.131-2.05-.392-.56-.271-1.01-.635-1.37-1.092-.35-.467-.62-.999-.78-1.596-.16-.607-.24-1.241-.24-1.904v-.784c0-.943.16-1.792.47-2.548.32-.756.81-1.353 1.46-1.792.65-.448 1.49-.672 2.51-.672 1 0 1.84.224 2.49.672.65.439 1.13 1.036 1.44 1.792.32.756.48 1.605.48 2.548v.784c0 .663-.09 1.297-.26 1.904-.15.597-.41 1.129-.77 1.596-.34.457-.79.821-1.35 1.092-.56.261-1.24.392-2.03.392zm0-1.82c.83 0 1.44-.285 1.83-.854.39-.579.59-1.475.59-2.688 0-1.288-.2-2.207-.6-2.758-.4-.56-1.01-.84-1.82-.84-.82 0-1.44.28-1.85.84-.4.551-.6 1.461-.6 2.73 0 1.223.2 2.123.6 2.702s1.02.868 1.85.868zm7.86 1.554v-8.988l.62.476h-2.7v-1.708h4.06v10.22z" fill="#2c245e"/><path d="m56.8147 66.74v7.9534c.0055.2093-.0511.4153-.1623.5909s-.2717.3126-.4603.3927c-.1887.0802-.3966.0998-.5964.0563-.1997-.0435-.3819-.1481-.5225-.2999l-3.0919-3.1746c-.2261-.232-.3952-.5157-.4934-.8277-.0982-.3121-.1227-.6436-.0714-.9672.0512-.3237.1768-.6302.3663-.8944.1894-.2642.4374-.4784.7235-.6251z" fill="#2c2260"/><path d="m63.6294 51.1824v10.7477c-.0001.3961-.1079.7843-.3111 1.1211-.2033.3368-.4941.6089-.8398.7858l-5.6638 2.903-4.3084 2.2095c-.2852.1469-.5323.361-.7212.6248-.1888.2637-.314.5696-.3652.8925s-.027.6537.0705.9651c.0976.3115.2658.5949.4909.8268l-.2902-.2975c-.5363-.5498-.9616-1.2025-1.2517-1.9207-.2902-.7183-.4395-1.4882-.4394-2.2656v-10.1966c.0001-.3961.1079-.7843.3112-1.1211.2032-.3368.494-.6089.8397-.7858l10.8152-5.5446c.1754-.0894.3702-.1314.5659-.1221.1956.0093.3858.0697.5523.1754.1666.1057.3041.2532.3995.4286.0953.1754.1455.3729.1456.5737z" fill="#69daff"/><path d="m72.4809 63.053-4.3084 2.22v-7.9638c-.0055-.2093.0511-.4153.1623-.5909s.2717-.3126.4603-.3927c.1887-.0802.3966-.0998.5964-.0563.1997.0435.3819.1481.5225.2999l2.8016 2.8719.2903.2976c.2261.2319.3952.5156.4934.8276.0982.3121.1227.6436.0714.9673-.0512.3236-.1768.6302-.3663.8943-.1894.2642-.4374.4785-.7235.6251z" fill="#2c2260"/><path d="m74.9873 64.2225v10.1992c.0004.3965-.1072.7853-.3105 1.1226s-.4943.6098-.8404.7869l-10.8152 5.542c-.1751.0901-.3699.1327-.5656.1238-.1958-.0089-.386-.0689-.5527-.1745-.1667-.1055-.3043-.253-.3997-.4285-.0954-.1754-.1454-.373-.1453-.5738v-10.7478c.0001-.396.1079-.7842.3112-1.121.2032-.3368.494-.6089.8397-.7858l5.6638-2.8926 4.3084-2.2096c.2861-.1467.5341-.3609.7236-.6251.1894-.2642.315-.5707.3663-.8944.0512-.3237.0267-.6552-.0715-.9672-.0982-.3121-.2673-.5957-.4934-.8277l.2903.295c1.0801 1.109 1.6881 2.6113 1.691 4.1785z" fill="#ff86a1"/><path d="m92.5035 58.4036c-.8198-.4963-1.7562-.754-2.7082-.7451h-6.7719v16.7814h2.8774v-5.7491h3.8945c.952.0091 1.8885-.2485 2.7082-.7451.8024-.4871 1.4718-1.1742 1.9459-1.9974.4777-.8429.7293-1.8002.7293-2.7749 0-.9748-.2516-1.9321-.7293-2.775-.4751-.8217-1.1443-1.5077-1.9459-1.9948zm-1.4513 7.0013c-.3817.2323-.8181.3531-1.262.3493h-3.8945v-5.1591h3.8945c.444-.005.8807.1159 1.262.3493.3775.2279.6933.549.9187.934.2243.3924.3425.8389.3425 1.2937 0 .4547-.1182.9013-.3425 1.2936-.225.3868-.5408.7096-.9187.9392z" fill="#2c2260"/><path d="m101.741 62.2147c-.553.1927-1.078.4598-1.562.7943v-1.1306h-2.8799v12.5614h2.8799v-5.9327c-.007-.651.16-1.2915.482-1.8525.316-.5487.762-1.0063 1.297-1.3299.548-.3302 1.172-.501 1.807-.4942h1.192v-2.9521h-1.192c-.688-.0022-1.372.1115-2.024.3363z" fill="#2c2260"/><path d="m116.612 63.6429c-.568-.5817-1.24-1.0471-1.978-1.3712-.76-.3265-1.575-.4947-2.398-.4947-.824 0-1.639.1682-2.398.4947-1.486.6541-2.671 1.8683-3.309 3.3919-.32.7781-.484 1.6138-.484 2.458s.164 1.6799.484 2.458c.625 1.5287 1.804 2.7494 3.289 3.4049.76.3231 1.575.4894 2.398.4894.822 0 1.637-.1663 2.397-.4894 1.493-.6439 2.681-1.8615 3.309-3.392.315-.7792.478-1.6144.478-2.458 0-.8435-.163-1.6787-.478-2.4579-.304-.7582-.749-1.4487-1.31-2.0337zm-4.379 7.8965c-.588.0061-1.167-.1541-1.673-.4631-.496-.3014-.91-.7258-1.204-1.2341-.297-.5179-.451-1.1093-.444-1.7103-.006-.6032.147-1.197.444-1.7179.291-.5099.706-.9341 1.204-1.2316.509-.2984 1.085-.4554 1.671-.4554s1.162.157 1.671.4554c.496.3007.91.7252 1.204 1.2341.295.5199.451 1.111.451 1.7129 0 .6018-.156 1.1929-.451 1.7128-.298.5058-.711.9295-1.204 1.2341-.504.3096-1.082.4699-1.669.4631z" fill="#2c2260"/><path d="m128.296 67.2523c-.724-.3783-1.506-.6269-2.312-.7348l-1.716-.2251c-.415-.0377-.818-.1628-1.184-.3674-.28-.1708-.424-.3545-.424-.546 0-.2458.219-.4683.654-.6597 1.098-.4175 2.306-.4175 3.404 0 .435.1914.654.4139.654.6597v.1242h2.966v-.1242c-.002-.7249-.263-1.4242-.732-1.9663-.527-.6128-1.188-1.0896-1.928-1.392-1.71-.6933-3.614-.6933-5.323 0-.741.3024-1.402.7792-1.929 1.392-.469.5421-.73 1.2414-.732 1.9663-.001.6437.206 1.2697.588 1.7801.423.5611.962 1.0189 1.578 1.3403.694.3735 1.451.6105 2.231.6985l1.716.2251c.456.0449.899.1849 1.3.4114.313.1915.47.4011.47.621 0 .2768-.24.5174-.712.7374-1.193.455-2.505.455-3.698 0-.472-.2148-.712-.4606-.712-.7374v-.1216h-2.968v.1138c.002.7475.272 1.4683.757 2.0259.547.6334 1.233 1.124 2.002 1.4308 1.779.7038 3.751.7038 5.53 0 .768-.3074 1.454-.7979 2.001-1.4308.486-.5576.755-1.2784.758-2.0259-.006-.6558-.22-1.2919-.611-1.8111-.435-.5805-.991-1.0535-1.628-1.3842z" fill="#2c2260"/><path d="m143.52 65.63c-.634-1.5263-1.82-2.7419-3.309-3.392-.759-.3264-1.574-.4946-2.397-.4946-.824 0-1.639.1682-2.398.4946-1.486.6542-2.671 1.8684-3.309 3.392-.32.778-.484 1.6137-.484 2.458 0 .8442.164 1.6799.484 2.4579.632 1.5278 1.819 2.744 3.309 3.392.761.3286 1.579.4949 2.405.489.839.0044 1.67-.1719 2.438-.5175.746-.3363 1.423-.8148 1.994-1.41.571-.5931 1.021-1.2967 1.323-2.0699l.066-.1708h-3.284l-.036.044c-.311.3658-.692.6617-1.12.8694-.534.2546-1.123.3594-1.709.3035-.586-.056-1.147-.2705-1.625-.6218-.503-.3706-.896-.8753-1.139-1.4592h9.125l.017-.0984c.081-.3983.122-.804.121-1.2108.006-.8427-.154-1.678-.472-2.4554zm-5.709-.9392c.684-.0067 1.352.2089 1.908.6158.501.3559.895.8478 1.139 1.4204h-6.091c.242-.5708.632-1.0622 1.128-1.4204.559-.4088 1.23-.6245 1.916-.6158z" fill="#2c2260"/><path d="m1249.6 227.397h-368.203v85.822h368.203z" fill="#d4d1e2" opacity=".4"/><path d="m1249.6 509.781h-368.203v85.822h368.203z" fill="#d4d1e2" opacity=".4"/><path d="m1249.59 227.397h-85.84v368.206h85.84z" fill="#d4d1e2" opacity=".4"/><path d="m967.219 227.397h-85.822v368.206h85.822z" fill="#d4d1e2" opacity=".4"/><path d="m1029.91 415.806v48.854c.04 1.286-.32 2.551-1.02 3.63s-1.71 1.92-2.9 2.412c-1.19.493-2.5.613-3.75.346-1.26-.267-2.41-.91-3.3-1.842l-19.464-19.469c-1.407-1.425-2.458-3.162-3.067-5.07-.609-1.909-.758-3.933-.436-5.91s1.107-3.85 2.29-5.466 2.727-2.929 4.517-3.833z" fill="#2c2260"/><path d="m1072.82 320.242v66.019c0 2.433-.68 4.817-1.96 6.886s-3.11 3.74-5.29 4.827l-35.66 17.832-27.13 13.652c-1.8.901-3.361 2.217-4.554 3.839-1.194 1.623-1.984 3.506-2.307 5.494s-.169 4.024.45 5.941c.618 1.917 1.683 3.66 3.107 5.084l-1.828-1.827c-3.376-3.377-6.054-7.386-7.881-11.799-1.828-4.412-2.768-9.141-2.767-13.916v-62.745c.001-2.433.679-4.817 1.959-6.886s3.111-3.74 5.288-4.827l68.103-34.058c1.1-.549 2.33-.807 3.56-.75s2.43.428 3.48 1.077c1.05.65 1.91 1.556 2.51 2.633.6 1.078.92 2.291.92 3.524z" fill="#69daff"/><path d="m1128.56 393.158-27.13 13.573v-48.791c-.04-1.286.32-2.551 1.02-3.63s1.71-1.92 2.9-2.412c1.19-.493 2.5-.613 3.75-.346 1.26.267 2.41.91 3.29 1.842l17.65 17.641 1.82 1.828c1.41 1.425 2.47 3.163 3.08 5.073s.76 3.937.44 5.916c-.33 1.979-1.11 3.854-2.3 5.471-1.18 1.618-2.73 2.932-4.52 3.835z" fill="#2c2260"/><path d="m1144.34 400.342v62.649c0 2.436-.68 4.824-1.96 6.896s-3.11 3.746-5.29 4.833l-68.1 34.043c-1.1.553-2.33.815-3.56.76-1.23-.054-2.43-.423-3.48-1.071-1.05-.649-1.92-1.555-2.52-2.633-.6-1.077-.91-2.291-.91-3.525v-66.018c0-2.433.68-4.818 1.96-6.887s3.11-3.74 5.28-4.826l35.67-17.832 27.13-13.573c1.8-.901 3.36-2.217 4.55-3.839 1.2-1.623 1.99-3.506 2.31-5.494s.17-4.025-.45-5.941c-.62-1.917-1.68-3.66-3.11-5.084l1.83 1.811c6.82 6.828 10.65 16.082 10.65 25.731z" fill="#ff86a1"/><g stroke="#a19db6" stroke-linejoin="round" stroke-width="2"><path d="m1048.88 270.308h-48.86c-1.284.034-2.55-.322-3.628-1.022-1.079-.7-1.92-1.711-2.412-2.899-.493-1.188-.613-2.497-.346-3.755s.909-2.405 1.842-3.29l19.464-19.469c1.43-1.424 3.17-2.488 5.09-3.107 1.92-.618 3.95-.772 5.94-.449 1.99.322 3.87 1.113 5.49 2.306 1.63 1.193 2.94 2.755 3.84 4.556z"/><path d="m1144.44 313.219h-66.02c-2.43-.001-4.82-.68-6.89-1.96-2.06-1.28-3.74-3.111-4.82-5.287l-17.83-35.664-13.58-27.129c-.9-1.801-2.21-3.363-3.84-4.556-1.62-1.193-3.5-1.984-5.49-2.306-1.99-.323-4.02-.169-5.94.449-1.92.619-3.66 1.683-5.09 3.107l1.83-1.827c3.38-3.377 7.39-6.055 11.8-7.882s9.14-2.767 13.92-2.767h62.6c2.43.001 4.82.68 6.89 1.96 2.06 1.28 3.74 3.111 4.82 5.287l34.06 68.101c.55 1.1.81 2.321.75 3.548-.05 1.227-.42 2.42-1.06 3.467s-1.54 1.913-2.61 2.518c-1.07.606-2.27.929-3.5.941z"/><path d="m1096.41 552.692h48.86c1.28-.034 2.55.322 3.63 1.022 1.07.7 1.92 1.711 2.41 2.899s.61 2.497.34 3.755c-.26 1.258-.91 2.405-1.84 3.29l-19.47 19.469c-1.42 1.424-3.16 2.488-5.08 3.107-1.92.618-3.95.772-5.94.449-1.99-.322-3.87-1.113-5.5-2.306-1.62-1.193-2.93-2.755-3.84-4.556z"/><path d="m1000.85 509.781h66.1c2.43.001 4.81.68 6.88 1.96s3.74 3.111 4.83 5.288l17.83 35.663 13.57 27.129c.9 1.801 2.22 3.363 3.84 4.556 1.63 1.193 3.51 1.984 5.5 2.307 1.99.322 4.02.168 5.94-.45 1.92-.619 3.66-1.683 5.08-3.107l-1.83 1.828c-3.37 3.376-7.38 6.054-11.79 7.881-4.42 1.827-9.14 2.767-13.92 2.767h-62.74c-2.44-.001-4.82-.68-6.89-1.96s-3.74-3.111-4.83-5.287l-34.056-68.069c-.557-1.106-.821-2.336-.767-3.573.054-1.236.423-2.439 1.073-3.492s1.56-1.923 2.641-2.525 2.299-.917 3.539-.916z"/><path d="m1206.68 387.74v-48.854c-.04-1.286.32-2.551 1.02-3.63s1.71-1.92 2.9-2.412c1.18-.493 2.49-.613 3.75-.346s2.41.91 3.29 1.842l19.47 19.469c1.43 1.424 2.49 3.165 3.11 5.081s.78 3.952.45 5.94c-.32 1.988-1.11 3.871-2.3 5.495-1.19 1.623-2.75 2.94-4.55 3.843z"/><path d="m1163.77 483.304v-66.019c0-2.433.67-4.817 1.95-6.886s3.12-3.74 5.29-4.827l35.67-17.832 27.14-13.572c1.8-.901 3.36-2.217 4.56-3.84 1.19-1.623 1.98-3.506 2.3-5.494.33-1.988.17-4.024-.45-5.941-.61-1.917-1.68-3.659-3.1-5.084l1.82 1.828c3.38 3.377 6.06 7.386 7.89 11.798 1.82 4.412 2.76 9.141 2.76 13.916v62.65c0 2.433-.68 4.817-1.96 6.886s-3.11 3.74-5.28 4.827l-68.11 34.058c-1.1.553-2.33.814-3.56.759s-2.43-.424-3.48-1.072c-1.05-.647-1.92-1.553-2.52-2.63s-.92-2.291-.92-3.525z"/><path d="m924.308 435.26v48.854c.034 1.286-.322 2.551-1.022 3.63s-1.711 1.92-2.899 2.412c-1.188.493-2.497.613-3.755.346s-2.405-.91-3.29-1.842l-19.469-19.469c-1.437-1.424-2.513-3.171-3.139-5.095s-.784-3.969-.461-5.966c.323-1.998 1.119-3.889 2.32-5.517s2.773-2.946 4.586-3.844z"/><path d="m967.219 339.696v66.019c-.001 2.433-.679 4.817-1.96 6.886-1.28 2.069-3.111 3.741-5.287 4.827l-35.664 17.832-27.129 13.509c-1.801.901-3.363 2.217-4.556 3.839-1.193 1.623-1.984 3.506-2.306 5.494-.323 1.988-.169 4.025.449 5.941.619 1.917 1.684 3.66 3.107 5.084l-1.748-1.764c-3.376-3.377-6.055-7.386-7.882-11.798s-2.767-9.141-2.766-13.916v-62.666c.001-2.433.679-4.817 1.959-6.886s3.111-3.74 5.288-4.827l68.101-34.058c1.101-.531 2.319-.775 3.54-.708 1.221.066 2.405.44 3.443 1.087 1.037.648 1.894 1.547 2.49 2.614.597 1.068.913 2.268.921 3.491z"/></g><g clip-path="url(#a)"><path d="m179.242 416.041v48.895c.034 1.286-.323 2.553-1.023 3.632-.701 1.08-1.712 1.922-2.901 2.415-1.189.492-2.5.613-3.759.346-1.259-.268-2.407-.911-3.293-1.844l-19.486-19.517c-1.425-1.426-2.49-3.169-3.109-5.088-.619-1.918-.773-3.956-.45-5.946s1.114-3.874 2.308-5.498 2.757-2.941 4.56-3.843z" fill="#2c2260"/><path d="m222.19 320.399v66.073c-.001 2.435-.68 4.821-1.961 6.892s-3.114 3.743-5.293 4.831l-35.694 17.846-27.153 13.584c-1.797.903-3.355 2.219-4.545 3.84-1.19 1.622-1.979 3.502-2.302 5.487s-.17 4.019.445 5.934c.615 1.914 1.675 3.656 3.093 5.082l-1.829-1.829c-3.379-3.38-6.06-7.392-7.888-11.808-1.829-4.416-2.77-9.148-2.769-13.928v-62.685c0-2.434.679-4.821 1.961-6.891 1.281-2.071 3.113-3.744 5.292-4.831l68.16-34.086c1.106-.55 2.333-.808 3.566-.751 1.234.057 2.432.429 3.482 1.078 1.049.65 1.916 1.557 2.517 2.636.601 1.078.917 2.292.918 3.526z" fill="#69daff"/><path d="m277.975 393.375-27.153 13.647v-48.958c-.034-1.286.322-2.553 1.023-3.633.7-1.079 1.712-1.921 2.901-2.414 1.189-.492 2.499-.613 3.758-.346 1.259.268 2.408.911 3.293 1.844l17.657 17.656 1.829 1.829c1.425 1.426 2.491 3.17 3.11 5.088s.773 3.956.45 5.946-1.114 3.874-2.308 5.498c-1.195 1.624-2.757 2.941-4.56 3.843z" fill="#2c2260"/><path d="m293.77 400.565v62.7c.002 2.438-.676 4.828-1.957 6.902-1.281 2.073-3.116 3.748-5.297 4.837l-68.16 34.07c-1.103.554-2.331.816-3.564.761-1.234-.054-2.433-.423-3.484-1.072-1.05-.649-1.918-1.556-2.519-2.634-.601-1.079-.916-2.293-.915-3.528v-66.073c.001-2.435.68-4.821 1.961-6.892s3.114-3.743 5.292-4.831l35.695-17.783 27.153-13.583c1.802-.902 3.365-2.219 4.559-3.843 1.195-1.624 1.986-3.509 2.309-5.498.323-1.99.169-4.028-.45-5.946-.619-1.919-1.685-3.663-3.11-5.089l1.829 1.814c6.808 6.818 10.639 16.053 10.658 25.688z" fill="#ff86a1"/><g fill="#2c2260"><path d="m404.162 364.792c-5.166-3.051-11.068-4.635-17.068-4.58h-42.677v103.165h18.133v-35.343h24.544c6.001.056 11.902-1.528 17.068-4.581 5.057-2.994 9.276-7.218 12.264-12.279 3.01-5.181 4.596-11.067 4.596-17.059s-1.586-11.878-4.596-17.059c-2.994-5.052-7.212-9.27-12.264-12.264zm-9.146 43.042c-2.406 1.428-5.156 2.17-7.954 2.147h-24.544v-31.716h24.544c2.799-.031 5.551.712 7.954 2.147 2.379 1.401 4.369 3.375 5.79 5.742 1.413 2.412 2.158 5.157 2.158 7.953s-.745 5.541-2.158 7.953c-1.418 2.377-3.409 4.362-5.79 5.774z"/><path d="m462.38 388.222c-3.483 1.184-6.794 2.826-9.846 4.883v-6.951h-18.149v77.223h18.149v-36.472c-.042-4.002 1.008-7.94 3.038-11.389 1.99-3.373 4.803-6.186 8.176-8.175 3.45-2.03 7.388-3.081 11.39-3.038h7.508v-18.149h-7.508c-4.337-.013-8.647.685-12.758 2.068z"/><path d="m556.103 397.002c-3.584-3.576-7.817-6.437-12.471-8.43-4.785-2.007-9.923-3.041-15.112-3.041s-10.326 1.034-15.111 3.041c-9.367 4.021-16.832 11.486-20.854 20.852-2.015 4.783-3.053 9.921-3.053 15.111s1.038 10.328 3.053 15.11c3.937 9.399 11.368 16.903 20.727 20.933 4.79 1.986 9.925 3.009 15.111 3.009s10.321-1.023 15.112-3.009c9.409-3.959 16.895-11.444 20.853-20.853 1.987-4.79 3.009-9.925 3.009-15.111 0-5.185-1.022-10.32-3.009-15.11-1.92-4.661-4.723-8.906-8.255-12.502zm-27.599 48.544c-3.71.038-7.358-.947-10.546-2.847-3.125-1.852-5.734-4.462-7.587-7.587-1.874-3.184-2.842-6.819-2.8-10.513-.038-3.709.929-7.359 2.8-10.562 1.836-3.135 4.449-5.742 7.587-7.571 3.207-1.835 6.837-2.8 10.531-2.8s7.324.965 10.53 2.8c3.129 1.848 5.739 4.458 7.587 7.587 1.864 3.196 2.847 6.83 2.847 10.53s-.983 7.333-2.847 10.529c-1.873 3.11-4.477 5.715-7.587 7.587-3.174 1.903-6.814 2.889-10.515 2.847z"/><path d="m629.735 419.191c-4.564-2.326-9.492-3.854-14.571-4.518l-10.816-1.384c-2.616-.231-5.156-1-7.461-2.258-1.765-1.05-2.672-2.179-2.672-3.356 0-1.511 1.384-2.879 4.12-4.056 6.922-2.567 14.536-2.567 21.458 0 2.736 1.177 4.12 2.545 4.12 4.056v.763h18.69v-.763c-.013-4.457-1.654-8.756-4.613-12.089-3.323-3.767-7.486-6.698-12.152-8.557-10.777-4.262-22.771-4.262-33.548 0-4.666 1.859-8.83 4.79-12.152 8.557-2.959 3.333-4.6 7.632-4.613 12.089-.009 3.957 1.294 7.805 3.706 10.943 2.662 3.449 6.058 6.263 9.942 8.239 4.378 2.297 9.147 3.753 14.061 4.295l10.817 1.383c2.874.276 5.662 1.137 8.192 2.53 1.972 1.177 2.958 2.465 2.958 3.817 0 1.702-1.511 3.181-4.485 4.533-7.516 2.797-15.788 2.797-23.304 0-2.974-1.32-4.485-2.831-4.485-4.533v-.748h-18.707v.7c.014 4.596 1.712 9.027 4.772 12.455 3.445 3.894 7.769 6.909 12.614 8.795 11.215 4.328 23.638 4.328 34.852 0 4.843-1.889 9.166-4.904 12.614-8.795 3.06-3.428 4.758-7.859 4.772-12.455-.034-4.032-1.386-7.942-3.849-11.134-2.741-3.568-6.247-6.476-10.26-8.509z"/><path d="m725.684 409.218c-3.997-9.384-11.47-16.857-20.854-20.853-4.785-2.007-9.922-3.041-15.111-3.041s-10.326 1.034-15.111 3.041c-9.368 4.021-16.833 11.486-20.854 20.853-2.015 4.782-3.053 9.92-3.053 15.11s1.038 10.328 3.053 15.111c3.984 9.392 11.461 16.869 20.854 20.852 4.796 2.02 9.954 3.043 15.158 3.006 5.289.027 10.524-1.057 15.366-3.181 4.7-2.068 8.965-5.009 12.567-8.668 3.596-3.646 6.429-7.972 8.335-12.725l.413-1.05h-20.694l-.223.271c-1.961 2.248-4.366 4.067-7.062 5.344-3.362 1.566-7.079 2.209-10.772 1.866-3.692-.344-7.227-1.663-10.241-3.823-3.166-2.278-5.648-5.381-7.174-8.97h57.502l.112-.605c.509-2.448.765-4.943.763-7.444.037-5.18-.974-10.315-2.974-15.094zm-35.981-5.774c4.308-.041 8.518 1.284 12.025 3.785 3.156 2.189 5.64 5.212 7.174 8.733h-38.383c1.523-3.509 3.983-6.531 7.111-8.733 3.519-2.513 7.748-3.839 12.073-3.785z"/></g></g><path d="m136.294 227.398h-85.8963v368.204h85.8963z" fill="#d4d1e2" opacity=".4"/><path d="m814.602 509.711h-764.2043v85.891h764.2043z" fill="#d4d1e2" opacity=".4"/><path d="m814.602 227.398h-85.896v368.204h85.896z" fill="#d4d1e2" opacity=".4"/><path d="m814.602 227.398h-764.2043v85.891h764.2043z" fill="#d4d1e2" opacity=".4"/><path d="m407.296 270.343h-48.897c-1.287.035-2.554-.322-3.633-1.023-1.08-.7-1.922-1.712-2.414-2.9-.493-1.189-.614-2.5-.346-3.759.267-1.258.91-2.407 1.843-3.293l19.454-19.484c1.426-1.425 3.17-2.491 5.089-3.11 1.918-.619 3.956-.773 5.946-.45s3.875 1.114 5.499 2.308 2.941 2.757 3.843 4.56z" stroke="#a19db6" stroke-linejoin="round" stroke-width="2"/><path d="m502.943 313.289h-66.013c-2.435 0-4.821-.68-6.892-1.961s-3.744-3.113-4.831-5.292l-17.847-35.693-13.648-27.151c-.902-1.803-2.219-3.366-3.844-4.56-1.624-1.194-3.508-1.985-5.498-2.308s-4.028-.169-5.946.45c-1.919.619-3.663 1.685-5.089 3.11l1.83-1.829c3.379-3.38 7.392-6.06 11.808-7.889 4.416-1.828 9.149-2.769 13.928-2.768h62.721c2.435 0 4.821.679 6.892 1.96 2.07 1.282 3.743 3.114 4.831 5.293l34.088 68.156c.549 1.106.808 2.333.75 3.566-.057 1.233-.428 2.432-1.078 3.481-.65 1.05-1.557 1.916-2.635 2.517-1.079.601-2.293.917-3.527.918z" stroke="#a19db6" stroke-linejoin="round" stroke-width="2"/><path d="m454.873 552.641h48.865c1.287-.035 2.553.322 3.633 1.023 1.08.7 1.921 1.712 2.414 2.901s.614 2.499.346 3.758c-.267 1.259-.91 2.407-1.844 3.293l-19.485 19.484c-1.426 1.425-3.17 2.491-5.089 3.11-1.918.619-3.956.773-5.946.45s-3.874-1.114-5.499-2.308c-1.624-1.194-2.941-2.757-3.843-4.56z" stroke="#a19db6" stroke-linejoin="round" stroke-width="2"/><path d="m359.226 509.695h66.06c2.438-.001 4.827.678 6.9 1.959 2.074 1.281 3.749 3.114 4.84 5.294l17.847 35.693 13.584 27.151c.902 1.803 2.219 3.366 3.843 4.56s3.509 1.985 5.499 2.308c1.989.323 4.027.169 5.946-.45 1.918-.619 3.663-1.685 5.088-3.11l-1.845 1.829c-6.821 6.823-16.073 10.656-25.721 10.657h-62.736c-2.432-.002-4.816-.681-6.884-1.962s-3.738-3.113-4.823-5.291l-34.088-68.156c-.55-1.106-.808-2.333-.751-3.566.058-1.233.429-2.432 1.079-3.481.65-1.05 1.557-1.916 2.635-2.517s2.292-.917 3.527-.918z" stroke="#a19db6" stroke-linejoin="round" stroke-width="2"/><path d="m93.3458 435.653v48.895c.0342 1.286-.3224 2.553-1.023 3.632-.7006 1.08-1.7122 1.922-2.9012 2.414-1.1889.493-2.4994.614-3.7583.347-1.2589-.268-2.4072-.911-3.2932-1.844l-19.4857-19.565c-1.4249-1.425-2.4907-3.169-3.1096-5.088-.619-1.918-.7732-3.956-.4501-5.946.323-1.99 1.1143-3.874 2.3084-5.498s2.757-2.941 4.56-3.843z" stroke="#a19db6" stroke-linejoin="round" stroke-width="2"/><path d="m136.294 339.932v66.072c-.001 2.435-.68 4.822-1.961 6.892-1.281 2.071-3.114 3.744-5.293 4.831l-35.6942 17.926-27.1528 13.584c-1.8029.901-3.3658 2.218-4.5599 3.842-1.1942 1.625-1.9854 3.509-2.3085 5.499-.323 1.99-.1688 4.027.4501 5.946.6189 1.918 1.6847 3.662 3.1097 5.088l-1.8292-1.829c-3.3832-3.384-6.0659-7.401-7.8947-11.823-1.8287-4.421-2.7675-9.16-2.7628-13.945v-62.764c.0008-2.435.6798-4.821 1.961-6.892s3.1138-3.743 5.2925-4.831l68.1598-34.086c1.106-.55 2.333-.808 3.566-.751 1.234.058 2.432.429 3.482 1.079 1.049.65 1.916 1.557 2.517 2.635s.917 2.292.918 3.527z" stroke="#a19db6" stroke-linejoin="round" stroke-width="2"/><path d="m771.654 388.015v-48.895c-.034-1.286.323-2.553 1.023-3.632.701-1.08 1.712-1.922 2.901-2.414 1.189-.493 2.5-.614 3.759-.347 1.259.268 2.407.911 3.293 1.844l19.486 19.485c1.425 1.426 2.491 3.17 3.109 5.088.619 1.919.773 3.957.45 5.946-.323 1.99-1.114 3.874-2.308 5.498-1.194 1.625-2.757 2.942-4.56 3.843z" stroke="#a19db6" stroke-linejoin="round" stroke-width="2"/><path d="m728.706 483.657v-66.073c.001-2.435.68-4.821 1.961-6.892 1.281-2.07 3.114-3.743 5.293-4.831l35.694-17.846 27.153-13.584c1.803-.901 3.366-2.218 4.56-3.842s1.985-3.509 2.308-5.499c.323-1.989.169-4.027-.45-5.946-.619-1.918-1.685-3.662-3.11-5.088l1.83 1.829c3.379 3.38 6.06 7.392 7.888 11.808 1.829 4.416 2.77 9.149 2.769 13.928v62.717c0 2.435-.68 4.821-1.961 6.892-1.281 2.07-3.114 3.743-5.292 4.83l-68.192 34.087c-1.104.542-2.328.794-3.557.733s-2.422-.433-3.467-1.082-1.908-1.553-2.507-2.628c-.6-1.074-.916-2.283-.92-3.513z" stroke="#a19db6" stroke-linejoin="round" stroke-width="2"/><path d="m53.926 745.07v-1.596h2.562c.4667 0 .8213-.126 1.064-.378.2427-.261.364-.616.364-1.064s-.1213-.793-.364-1.036c-.2427-.252-.5973-.378-1.064-.378h-2.562v-1.218h2.422c.6813 0 1.288.084 1.82.252.5413.159.9613.429 1.26.812.308.383.462.896.462 1.54v.196c0 .607-.1353 1.125-.406 1.554-.2613.42-.658.747-1.19.98-.5227.224-1.1713.336-1.946.336zm-1.666 0v-10.36h1.946v10.36zm1.666-4.774v-1.218h2.184c.476 0 .826-.126 1.05-.378s.336-.588.336-1.008-.112-.756-.336-1.008-.574-.378-1.05-.378h-2.184v-1.596h2.002c1.1573 0 2.0347.243 2.632.728.6067.485.91 1.181.91 2.086v.196c0 .635-.154 1.143-.462 1.526-.2987.373-.714.644-1.246.812-.532.159-1.1433.238-1.834.238zm7.8187 4.704v-7.602h1.54v3.22h-.042c0-1.092.2333-1.918.7-2.478.4666-.56 1.1526-.84 2.058-.84h.28v1.694h-.532c-.6534 0-1.162.177-1.526.532-.3547.345-.532.849-.532 1.512v3.962zm10.4028 0v-2.254h-.322v-2.506c0-.439-.1073-.765-.322-.98-.2146-.215-.546-.322-.994-.322-.2333 0-.5133.005-.84.014-.3266.009-.658.023-.994.042-.3266.009-.6206.023-.882.042v-1.652c.2147-.019.4574-.037.728-.056.2707-.019.546-.028.826-.028.2894-.009.56-.014.812-.014.784 0 1.4327.103 1.946.308.5227.205.9147.527 1.176.966.2707.439.406 1.013.406 1.722v4.718zm-2.45.196c-.5506 0-1.036-.098-1.456-.294-.4106-.196-.7326-.476-.966-.84-.224-.364-.336-.803-.336-1.316 0-.56.1354-1.017.406-1.372.28-.355.6674-.621 1.162-.798.504-.177 1.092-.266 1.764-.266h1.764v1.162h-1.792c-.448 0-.7933.112-1.036.336-.2333.215-.35.495-.35.84s.1167.625.35.84c.2427.215.588.322 1.036.322.2707 0 .518-.047.742-.14.2334-.103.4247-.271.574-.504.1587-.243.2474-.569.266-.98l.476.546c-.0466.532-.1773.98-.392 1.344-.2053.364-.4946.644-.868.84-.364.187-.812.28-1.344.28zm6.0745-.196v-7.602h1.54v3.262h-.14c0-.775.1027-1.419.308-1.932.2053-.523.5087-.915.91-1.176.4107-.261.9193-.392 1.526-.392h.084c.9053 0 1.5913.294 2.058.882.4667.579.7 1.447.7 2.604v4.354h-1.946v-4.522c0-.467-.1353-.845-.406-1.134-.2613-.289-.6253-.434-1.092-.434-.476 0-.8633.149-1.162.448-.2893.289-.434.681-.434 1.176v4.466zm12.2281.252c-.532 0-1.022-.098-1.47-.294s-.8353-.471-1.162-.826c-.3266-.355-.5786-.765-.756-1.232-.1773-.476-.266-.989-.266-1.54v-.294c0-.541.084-1.05.252-1.526.1774-.476.42-.891.728-1.246.3174-.355.6954-.63 1.134-.826.448-.205.9427-.308 1.484-.308.5974 0 1.12.131 1.568.392.4574.252.8214.635 1.092 1.148.2707.513.42 1.157.448 1.932l-.574-.672v-5.18h1.946v10.22h-1.54v-3.234h.336c-.028.775-.1866 1.423-.476 1.946-.2893.513-.672.901-1.148 1.162-.4666.252-.9986.378-1.596.378zm.434-1.638c.3827 0 .7327-.084 1.05-.252.3174-.177.5694-.429.756-.756.196-.336.294-.728.294-1.176v-.56c0-.448-.098-.821-.294-1.12-.196-.308-.4526-.541-.77-.7-.3173-.168-.6626-.252-1.036-.252-.42 0-.7933.103-1.12.308-.3173.196-.5693.476-.756.84-.1773.364-.266.789-.266 1.274s.0934.91.28 1.274c.1867.355.4387.63.756.826.3267.196.6954.294 1.106.294zm14.1409 1.652c-.878 0-1.652-.145-2.324-.434-.663-.299-1.223-.695-1.6803-1.19-.448-.504-.7887-1.069-1.022-1.694-.224-.635-.336-1.293-.336-1.974v-.308c0-.644.112-1.274.336-1.89s.5507-1.171.98-1.666c.4387-.495.9753-.887 1.6103-1.176.644-.299 1.381-.448 2.212-.448.896 0 1.689.168 2.38.504.69.327 1.246.789 1.666 1.386.42.588.667 1.274.742 2.058h-2.002c-.066-.439-.229-.812-.49-1.12-.262-.317-.593-.56-.994-.728-.392-.168-.826-.252-1.302-.252s-.91.084-1.302.252c-.383.168-.71.406-.98.714-.271.308-.481.677-.6303 1.106-.14.429-.21.905-.21 1.428 0 .569.0793 1.078.238 1.526s.3827.831.6723 1.148c.289.308.639.546 1.05.714.41.159.872.238 1.386.238.681 0 1.278-.14 1.792-.42.513-.289.886-.663 1.12-1.12l-.35 1.61v-2.632h1.834v2.268c-.439.663-1.036 1.181-1.792 1.554-.756.364-1.624.546-2.604.546zm-.322-3.976v-1.484h5.572v1.484zm9.646 3.948c-.877 0-1.559-.289-2.044-.868-.476-.579-.714-1.437-.714-2.576v-4.41h1.946v4.578c0 .467.131.84.392 1.12.261.271.616.406 1.064.406s.812-.145 1.092-.434c.289-.289.434-.681.434-1.176v-4.494h1.946v7.616h-1.54v-3.234h.154c0 .765-.098 1.405-.294 1.918s-.49.901-.882 1.162-.882.392-1.47.392zm6.716-.238v-7.602h1.946v7.602zm-1.064-6.146v-1.456h3.01v1.456zm1.778-2.366c-.383 0-.668-.098-.854-.294-.178-.205-.266-.457-.266-.756 0-.317.088-.574.266-.77.186-.196.471-.294.854-.294.382 0 .662.098.84.294.177.196.266.453.266.77 0 .299-.089.551-.266.756-.178.196-.458.294-.84.294zm6.624 8.764c-.532 0-1.022-.098-1.47-.294s-.835-.471-1.162-.826c-.326-.355-.578-.765-.756-1.232-.177-.476-.266-.989-.266-1.54v-.294c0-.541.084-1.05.252-1.526.178-.476.42-.891.728-1.246.318-.355.696-.63 1.134-.826.448-.205.943-.308 1.484-.308.598 0 1.12.131 1.568.392.458.252.822.635 1.092 1.148.271.513.42 1.157.448 1.932l-.574-.672v-5.18h1.946v10.22h-1.54v-3.234h.336c-.028.775-.186 1.423-.476 1.946-.289.513-.672.901-1.148 1.162-.466.252-.998.378-1.596.378zm.434-1.638c.383 0 .733-.084 1.05-.252.318-.177.57-.429.756-.756.196-.336.294-.728.294-1.176v-.56c0-.448-.098-.821-.294-1.12-.196-.308-.452-.541-.77-.7-.317-.168-.662-.252-1.036-.252-.42 0-.793.103-1.12.308-.317.196-.569.476-.756.84-.177.364-.266.789-.266 1.274s.094.91.28 1.274c.187.355.439.63.756.826.327.196.696.294 1.106.294zm9.607 1.652c-.653 0-1.227-.112-1.722-.336-.485-.224-.891-.523-1.218-.896-.317-.383-.56-.807-.728-1.274-.158-.467-.238-.943-.238-1.428v-.266c0-.504.08-.989.238-1.456.168-.476.411-.896.728-1.26.327-.373.728-.667 1.204-.882.476-.224 1.027-.336 1.652-.336.822 0 1.508.182 2.058.546.56.355.98.826 1.26 1.414.28.579.42 1.204.42 1.876v.7h-6.734v-1.19h5.516l-.602.588c0-.485-.07-.901-.21-1.246s-.354-.611-.644-.798c-.28-.187-.634-.28-1.064-.28-.429 0-.793.098-1.092.294-.298.196-.527.481-.686.854-.149.364-.224.803-.224 1.316 0 .476.075.901.224 1.274.15.364.378.653.686.868.308.205.7.308 1.176.308s.864-.093 1.162-.28c.299-.196.49-.434.574-.714h1.792c-.112.523-.326.98-.644 1.372-.317.392-.723.695-1.218.91-.485.215-1.04.322-1.666.322zm5.378-.266v-10.22h1.946v10.22zm-.952-8.764v-1.456h2.898v1.456zm5.484 8.764v-7.602h1.946v7.602zm-1.064-6.146v-1.456h3.01v1.456zm1.778-2.366c-.383 0-.668-.098-.854-.294-.178-.205-.266-.457-.266-.756 0-.317.088-.574.266-.77.186-.196.471-.294.854-.294.382 0 .662.098.84.294.177.196.266.453.266.77 0 .299-.089.551-.266.756-.178.196-.458.294-.84.294zm3.474 8.512v-7.602h1.54v3.262h-.14c0-.775.103-1.419.308-1.932.206-.523.509-.915.91-1.176.411-.261.92-.392 1.526-.392h.084c.906 0 1.592.294 2.058.882.467.579.7 1.447.7 2.604v4.354h-1.946v-4.522c0-.467-.135-.845-.406-1.134-.261-.289-.625-.434-1.092-.434-.476 0-.863.149-1.162.448-.289.289-.434.681-.434 1.176v4.466zm12.48.266c-.653 0-1.227-.112-1.722-.336-.485-.224-.891-.523-1.218-.896-.317-.383-.56-.807-.728-1.274-.158-.467-.238-.943-.238-1.428v-.266c0-.504.08-.989.238-1.456.168-.476.411-.896.728-1.26.327-.373.728-.667 1.204-.882.476-.224 1.027-.336 1.652-.336.822 0 1.508.182 2.058.546.56.355.98.826 1.26 1.414.28.579.42 1.204.42 1.876v.7h-6.734v-1.19h5.516l-.602.588c0-.485-.07-.901-.21-1.246s-.354-.611-.644-.798c-.28-.187-.634-.28-1.064-.28-.429 0-.793.098-1.092.294-.298.196-.527.481-.686.854-.149.364-.224.803-.224 1.316 0 .476.075.901.224 1.274.15.364.378.653.686.868.308.205.7.308 1.176.308s.864-.093 1.162-.28c.299-.196.49-.434.574-.714h1.792c-.112.523-.326.98-.644 1.372-.317.392-.723.695-1.218.91-.485.215-1.04.322-1.666.322zm8.038-.028c-1.045 0-1.867-.219-2.464-.658-.588-.448-.896-1.064-.924-1.848h1.75c.028.261.173.499.434.714s.672.322 1.232.322c.467 0 .835-.084 1.106-.252.28-.168.42-.397.42-.686 0-.252-.107-.453-.322-.602-.205-.149-.56-.247-1.064-.294l-.672-.07c-.849-.093-1.503-.336-1.96-.728s-.686-.915-.686-1.568c0-.523.131-.961.392-1.316s.621-.621 1.078-.798c.467-.187.999-.28 1.596-.28.933 0 1.689.205 2.268.616s.882 1.013.91 1.806h-1.75c-.019-.261-.149-.485-.392-.672s-.593-.28-1.05-.28c-.411 0-.728.079-.952.238s-.336.364-.336.616c0 .243.089.429.266.56.187.131.485.219.896.266l.672.07c.896.093 1.596.341 2.1.742.513.401.77.943.77 1.624 0 .504-.14.943-.42 1.316-.271.364-.653.649-1.148.854s-1.078.308-1.75.308z" fill="#2c245e"/></svg>