<svg fill="none" height="800" viewBox="0 0 1300 800" width="1300" xmlns="http://www.w3.org/2000/svg" xmlns:xlink="http://www.w3.org/1999/xlink"><radialGradient id="a" cx="0" cy="0" gradientTransform="matrix(0 468.5 -468.5 0 650 405)" gradientUnits="userSpaceOnUse" r="1"><stop offset="0" stop-color="#c4c4c4"/><stop offset="1" stop-color="#c4c4c4" stop-opacity="0"/></radialGradient><clipPath id="b"><path d="m51 116h1199v578h-1199z"/></clipPath><mask id="c" height="624" maskUnits="userSpaceOnUse" width="1321" x="51" y="116"><g fill="none" opacity=".4"><path d="m62.0905 116v578" stroke="#a19db6" stroke-width="2.18095"/><path d="m94.8048 116v578" stroke="#a19db6" stroke-width="2.18095"/><path d="m127.519 116v578" stroke="#a19db6" stroke-width="2.18095"/><path d="m160.233 116v578" stroke="#a19db6" stroke-width="2.18095"/><path d="m192.948 116v578" stroke="#a19db6" stroke-width="2.18095"/><path d="m225.662 116v578" stroke="#a19db6" stroke-width="2.18095"/><path d="m258.376 116v578" stroke="#a19db6" stroke-width="2.18095"/><path d="m291.091 116v578" stroke="#a19db6" stroke-width="2.18095"/><path d="m323.805 116v578" stroke="#a19db6" stroke-width="2.18095"/><path d="m356.519 116v578" stroke="#a19db6" stroke-width="2.18095"/><path d="m389.234 116-.001 578" stroke="#a19db6" stroke-width="2.18095"/><path d="m421.948 116v578" stroke="#a19db6" stroke-width="2.18095"/><path d="m454.662 116v578" stroke="#a19db6" stroke-width="2.18095"/><path d="m487.376 116v578" stroke="#a19db6" stroke-width="2.18095"/><path d="m520.091 116v578" stroke="#a19db6" stroke-width="2.18095"/><path d="m552.805 116v578" stroke="#a19db6" stroke-width="2.18095"/><path d="m585.519 116v578" stroke="#a19db6" stroke-width="2.18095"/><path d="m618.234 116-.001 578" stroke="#a19db6" stroke-width="2.18095"/><path d="m650.948 116v578" stroke="#a19db6" stroke-width="2.18095"/><path d="m683.662 116v578" stroke="#a19db6" stroke-width="2.18095"/><path d="m716.376 116v578" stroke="#a19db6" stroke-width="2.18095"/><path d="m749.091 116v578" stroke="#a19db6" stroke-width="2.18095"/><path d="m781.805 116v578" stroke="#a19db6" stroke-width="2.18095"/><path d="m814.519 116v578" stroke="#a19db6" stroke-width="2.18095"/><path d="m847.234 116-.001 578" stroke="#a19db6" stroke-width="2.18095"/><path d="m879.948 116v578" stroke="#a19db6" stroke-width="2.18095"/><path d="m912.662 116v578" stroke="#a19db6" stroke-width="2.18095"/><path d="m945.376 116v578" stroke="#a19db6" stroke-width="2.18095"/><path d="m978.091 116v578" stroke="#a19db6" stroke-width="2.18095"/><path d="m1010.81 116-.01 578" stroke="#a19db6" stroke-width="2.18095"/><path d="m1043.52 116v578" stroke="#a19db6" stroke-width="2.18095"/><path d="m1076.23 116v578" stroke="#a19db6" stroke-width="2.18095"/><path d="m1108.95 116v578" stroke="#a19db6" stroke-width="2.18095"/><path d="m1141.66 116v578" stroke="#a19db6" stroke-width="2.18095"/><path d="m1174.38 116v578" stroke="#a19db6" stroke-width="2.18095"/><path d="m1207.09 116v578" stroke="#a19db6" stroke-width="2.18095"/><path d="m1239.81 116v578" stroke="#a19db6" stroke-width="2.18095"/><path d="m1250 117.091-1199-.001" stroke="#a19db6" stroke-width="2.18095"/><path d="m1250 149.805h-1199" stroke="#a19db6" stroke-width="2.18095"/><path d="m1250 182.519h-1199" stroke="#a19db6" stroke-width="2.18095"/><path d="m1250 215.234h-1199" stroke="#a19db6" stroke-width="2.18095"/><path d="m1250 247.948h-1199" stroke="#a19db6" stroke-width="2.18095"/><path d="m1250 280.663h-1199" stroke="#a19db6" stroke-width="2.18095"/><path d="m1250 313.377h-1199" stroke="#a19db6" stroke-width="2.18095"/><path d="m1250 346.092-1199-.001" stroke="#a19db6" stroke-width="2.18095"/><path d="m1250 378.806h-1199" stroke="#a19db6" stroke-width="2.18095"/><path d="m1250 411.52h-1199" stroke="#a19db6" stroke-width="2.18095"/><path d="m1250 444.235h-1199" stroke="#a19db6" stroke-width="2.18095"/><path d="m1250 476.949h-1199" stroke="#a19db6" stroke-width="2.18095"/><path d="m1250 509.663h-1199" stroke="#a19db6" stroke-width="2.18095"/><path d="m1250 542.378h-1199" stroke="#a19db6" stroke-width="2.18095"/><path d="m1250 575.092h-1199" stroke="#a19db6" stroke-width="2.18095"/><path d="m1250 607.807h-1199" stroke="#a19db6" stroke-width="2.18095"/><path d="m1250 640.521h-1199" stroke="#a19db6" stroke-width="2.18095"/><path d="m1250 673.236-1199-.001" stroke="#a19db6" stroke-width="2.18095"/></g></mask><path d="m0 0h1300v800h-1300z" fill="#fff"/><path d="m741.26 73v-10.22h1.988v10.22zm1.708 0v-1.75h4.41v1.75zm9.448.266c-.672 0-1.264-.1073-1.778-.322-.513-.2147-.947-.504-1.302-.868-.354-.3733-.625-.7933-.812-1.26-.177-.4667-.266-.952-.266-1.456v-.294c0-.5227.094-1.0173.28-1.484.196-.476.472-.896.826-1.26.364-.3733.803-.6627 1.316-.868.514-.2147 1.092-.322 1.736-.322s1.223.1073 1.736.322c.514.2053.948.4947 1.302.868.364.364.64.784.826 1.26.187.4667.28.9613.28 1.484v.294c0 .504-.093.9893-.28 1.456-.177.4667-.443.8867-.798 1.26-.354.364-.788.6533-1.302.868-.513.2147-1.101.322-1.764.322zm0-1.666c.476 0 .878-.1027 1.204-.308.327-.2147.574-.4993.742-.854.168-.364.252-.7747.252-1.232 0-.4667-.088-.8773-.266-1.232-.168-.364-.42-.6487-.756-.854-.326-.2147-.718-.322-1.176-.322-.457 0-.854.1073-1.19.322-.326.2053-.578.49-.756.854-.177.3547-.266.7653-.266 1.232 0 .4573.084.868.252 1.232.178.3547.43.6393.756.854.327.2053.728.308 1.204.308zm8.816 4.396c-.364 0-.737-.014-1.12-.042-.373-.028-.723-.0653-1.05-.112v-1.624c.336.0373.696.07 1.078.098.383.0373.742.056 1.078.056.626 0 1.13-.0747 1.512-.224.392-.1493.677-.3873.854-.714.187-.3173.28-.7233.28-1.218v-1.498l.42-.952c-.028.7-.172 1.2973-.434 1.792-.261.4853-.616.8587-1.064 1.12-.448.252-.966.378-1.554.378-.522 0-.998-.098-1.428-.294-.42-.196-.784-.4667-1.092-.812-.298-.3453-.532-.7513-.7-1.218s-.252-.966-.252-1.498v-.294c0-.532.084-1.0267.252-1.484.178-.4667.425-.8727.742-1.218.318-.3453.696-.6113 1.134-.798.439-.1867.924-.28 1.456-.28.626 0 1.167.1353 1.624.406.467.2707.831.6627 1.092 1.176.262.5133.406 1.1433.434 1.89l-.336.056v-3.29h1.54v6.706c0 .924-.158 1.6707-.476 2.24-.317.5693-.807.9847-1.47 1.246-.653.2707-1.493.406-2.52.406zm.56-4.606c.374 0 .714-.084 1.022-.252s.556-.4107.742-.728c.187-.3173.28-.7.28-1.148v-.49c0-.4293-.098-.7933-.294-1.092-.186-.2987-.434-.5227-.742-.672-.308-.1587-.644-.238-1.008-.238-.41 0-.774.098-1.092.294-.308.1867-.55.4527-.728.798-.177.3453-.266.756-.266 1.232 0 .4667.089.8727.266 1.218.178.3453.42.6113.728.798.318.1867.682.28 1.092.28zm9.683 1.876c-.672 0-1.265-.1073-1.778-.322s-.947-.504-1.302-.868c-.355-.3733-.625-.7933-.812-1.26-.177-.4667-.266-.952-.266-1.456v-.294c0-.5227.093-1.0173.28-1.484.196-.476.471-.896.826-1.26.364-.3733.803-.6627 1.316-.868.513-.2147 1.092-.322 1.736-.322s1.223.1073 1.736.322c.513.2053.947.4947 1.302.868.364.364.639.784.826 1.26.187.4667.28.9613.28 1.484v.294c0 .504-.093.9893-.28 1.456-.177.4667-.443.8867-.798 1.26-.355.364-.789.6533-1.302.868s-1.101.322-1.764.322zm0-1.666c.476 0 .877-.1027 1.204-.308.327-.2147.574-.4993.742-.854.168-.364.252-.7747.252-1.232 0-.4667-.089-.8773-.266-1.232-.168-.364-.42-.6487-.756-.854-.327-.2147-.719-.322-1.176-.322s-.854.1073-1.19.322c-.327.2053-.579.49-.756.854-.177.3547-.266.7653-.266 1.232 0 .4573.084.868.252 1.232.177.3547.429.6393.756.854.327.2053.728.308 1.204.308zm13.629 1.666c-.924 0-1.717-.1633-2.38-.49-.662-.3267-1.204-.7513-1.624-1.274-.41-.5227-.714-1.092-.91-1.708s-.294-1.2087-.294-1.778v-.308c0-.6347.098-1.26.294-1.876.206-.616.518-1.176.938-1.68s.952-.9053 1.596-1.204c.654-.308 1.424-.462 2.31-.462.924 0 1.727.168 2.408.504.691.3267 1.242.7933 1.652 1.4.411.5973.658 1.2973.742 2.1h-2.002c-.074-.4667-.242-.8587-.504-1.176-.252-.3267-.574-.5693-.966-.728-.392-.168-.835-.252-1.33-.252-.504 0-.952.0887-1.344.266-.392.168-.718.4107-.98.728-.261.3173-.462.6907-.602 1.12-.13.4293-.196.9053-.196 1.428 0 .504.066.9707.196 1.4.14.4293.346.8073.616 1.134.271.3173.602.5647.994.742.402.1773.864.266 1.386.266.766 0 1.41-.1867 1.932-.56.532-.3827.854-.9147.966-1.596h2.002c-.093.728-.34 1.3953-.742 2.002-.401.6067-.952 1.092-1.652 1.456s-1.535.546-2.506.546zm10.078 0c-.672 0-1.265-.1073-1.778-.322s-.947-.504-1.302-.868c-.355-.3733-.625-.7933-.812-1.26-.177-.4667-.266-.952-.266-1.456v-.294c0-.5227.093-1.0173.28-1.484.196-.476.471-.896.826-1.26.364-.3733.803-.6627 1.316-.868.513-.2147 1.092-.322 1.736-.322s1.223.1073 1.736.322c.513.2053.947.4947 1.302.868.364.364.639.784.826 1.26.187.4667.28.9613.28 1.484v.294c0 .504-.093.9893-.28 1.456-.177.4667-.443.8867-.798 1.26-.355.364-.789.6533-1.302.868s-1.101.322-1.764.322zm0-1.666c.476 0 .877-.1027 1.204-.308.327-.2147.574-.4993.742-.854.168-.364.252-.7747.252-1.232 0-.4667-.089-.8773-.266-1.232-.168-.364-.42-.6487-.756-.854-.327-.2147-.719-.322-1.176-.322s-.854.1073-1.19.322c-.327.2053-.579.49-.756.854-.177.3547-.266.7653-.266 1.232 0 .4573.084.868.252 1.232.177.3547.429.6393.756.854.327.2053.728.308 1.204.308zm5.848 1.4v-7.602h1.54v3.262h-.14c0-.7747.102-1.4187.308-1.932.205-.5227.508-.9147.91-1.176.41-.2613.919-.392 1.526-.392h.084c.905 0 1.591.294 2.058.882.466.5787.7 1.4467.7 2.604v4.354h-1.946v-4.522c0-.4667-.136-.8447-.406-1.134-.262-.2893-.626-.434-1.092-.434-.476 0-.864.1493-1.162.448-.29.2893-.434.6813-.434 1.176v4.466zm11.836.238c-1.045 0-1.867-.2193-2.464-.658-.588-.448-.896-1.064-.924-1.848h1.75c.028.2613.173.4993.434.714s.672.322 1.232.322c.467 0 .835-.084 1.106-.252.28-.168.42-.3967.42-.686 0-.252-.107-.4527-.322-.602-.205-.1493-.56-.2473-1.064-.294l-.672-.07c-.849-.0933-1.503-.336-1.96-.728s-.686-.9147-.686-1.568c0-.5227.131-.9613.392-1.316s.621-.6207 1.078-.798c.467-.1867.999-.28 1.596-.28.933 0 1.689.2053 2.268.616s.882 1.0127.91 1.806h-1.75c-.019-.2613-.149-.4853-.392-.672s-.593-.28-1.05-.28c-.411 0-.728.0793-.952.238s-.336.364-.336.616c0 .2427.089.4293.266.56.187.1307.485.2193.896.266l.672.07c.896.0933 1.596.3407 2.1.742.513.4013.77.9427.77 1.624 0 .504-.14.9427-.42 1.316-.271.364-.653.6487-1.148.854s-1.078.308-1.75.308zm8.23-.14c-.7 0-1.279-.0887-1.736-.266-.448-.1867-.784-.4947-1.008-.924-.224-.4387-.336-1.0267-.336-1.764l.014-6.888h1.82l-.014 7.014c0 .3733.098.6627.294.868.205.196.494.294.868.294h1.19v1.666zm-4.284-6.272v-1.428h5.376v1.428zm7.009 6.174v-7.602h1.54v3.22h-.042c0-1.092.233-1.918.7-2.478s1.153-.84 2.058-.84h.28v1.694h-.532c-.653 0-1.162.1773-1.526.532-.355.3453-.532.8493-.532 1.512v3.962zm8.428.238c-.878 0-1.559-.2893-2.044-.868-.476-.5787-.714-1.4373-.714-2.576v-4.41h1.946v4.578c0 .4667.13.84.392 1.12.261.2707.616.406 1.064.406s.812-.1447 1.092-.434c.289-.2893.434-.6813.434-1.176v-4.494h1.946v7.616h-1.54v-3.234h.154c0 .7653-.098 1.4047-.294 1.918s-.49.9007-.882 1.162-.882.392-1.47.392zm9.725.028c-.663 0-1.237-.112-1.722-.336-.476-.224-.877-.5227-1.204-.896-.317-.3733-.555-.7933-.714-1.26s-.238-.9427-.238-1.428v-.266c0-.5133.079-1.0033.238-1.47.168-.476.415-.896.742-1.26.327-.3733.728-.6673 1.204-.882.485-.224 1.045-.336 1.68-.336.663 0 1.255.1307 1.778.392.523.252.938.6067 1.246 1.064.317.4573.495.9893.532 1.596h-1.89c-.047-.392-.215-.7187-.504-.98-.28-.2613-.667-.392-1.162-.392-.429 0-.789.1027-1.078.308-.28.2053-.49.49-.63.854-.14.3547-.21.7653-.21 1.232 0 .448.065.854.196 1.218.14.364.35.6487.63.854.289.2053.658.308 1.106.308.336 0 .625-.0607.868-.182s.434-.2893.574-.504c.149-.2147.243-.4573.28-.728h1.89c-.037.616-.219 1.1573-.546 1.624-.317.4573-.742.8167-1.274 1.078-.523.2613-1.12.392-1.792.392zm8.475-.168c-.7 0-1.279-.0887-1.736-.266-.448-.1867-.784-.4947-1.008-.924-.224-.4387-.336-1.0267-.336-1.764l.014-6.888h1.82l-.014 7.014c0 .3733.098.6627.294.868.205.196.495.294.868.294h1.19v1.666zm-4.284-6.272v-1.428h5.376v1.428zm7.373 6.174v-7.602h1.946v7.602zm-1.064-6.146v-1.456h3.01v1.456zm1.778-2.366c-.382 0-.667-.098-.854-.294-.177-.2053-.266-.4573-.266-.756 0-.3173.089-.574.266-.77.187-.196.472-.294.854-.294.383 0 .663.098.84.294.178.196.266.4527.266.77 0 .2987-.088.5507-.266.756-.177.196-.457.294-.84.294zm7.129 8.778c-.672 0-1.265-.1073-1.778-.322s-.947-.504-1.302-.868c-.355-.3733-.625-.7933-.812-1.26-.177-.4667-.266-.952-.266-1.456v-.294c0-.5227.093-1.0173.28-1.484.196-.476.471-.896.826-1.26.364-.3733.803-.6627 1.316-.868.513-.2147 1.092-.322 1.736-.322s1.223.1073 1.736.322c.513.2053.947.4947 1.302.868.364.364.639.784.826 1.26.187.4667.28.9613.28 1.484v.294c0 .504-.093.9893-.28 1.456-.177.4667-.443.8867-.798 1.26-.355.364-.789.6533-1.302.868s-1.101.322-1.764.322zm0-1.666c.476 0 .877-.1027 1.204-.308.327-.2147.574-.4993.742-.854.168-.364.252-.7747.252-1.232 0-.4667-.089-.8773-.266-1.232-.168-.364-.42-.6487-.756-.854-.327-.2147-.719-.322-1.176-.322s-.854.1073-1.19.322c-.327.2053-.579.49-.756.854-.177.3547-.266.7653-.266 1.232 0 .4573.084.868.252 1.232.177.3547.429.6393.756.854.327.2053.728.308 1.204.308zm5.848 1.4v-7.602h1.54v3.262h-.14c0-.7747.103-1.4187.308-1.932.205-.5227.509-.9147.91-1.176.411-.2613.919-.392 1.526-.392h.084c.905 0 1.591.294 2.058.882.467.5787.7 1.4467.7 2.604v4.354h-1.946v-4.522c0-.4667-.135-.8447-.406-1.134-.261-.2893-.625-.434-1.092-.434-.476 0-.863.1493-1.162.448-.289.2893-.434.6813-.434 1.176v4.466z" fill="#2c245e"/><path d="m947.472 73v-9.268h1.372v9.268zm-3.108-8.988v-1.232h7.588v1.232zm9.237 8.988v-10.22h1.344v6.104h-.336c0-.7373.093-1.372.28-1.904.196-.5413.494-.9567.896-1.246.401-.2893.914-.434 1.54-.434h.056c.896 0 1.572.2987 2.03.896.457.588.686 1.4327.686 2.534v4.27h-1.344v-4.55c0-.6067-.173-1.078-.518-1.414-.336-.336-.775-.504-1.316-.504-.598 0-1.078.2007-1.442.602-.355.392-.532.91-.532 1.554v4.312zm12.133.252c-.654 0-1.218-.112-1.694-.336s-.864-.518-1.162-.882c-.299-.3733-.523-.7887-.672-1.246-.14-.4573-.21-.924-.21-1.4v-.252c0-.4853.07-.9567.21-1.414.149-.4573.373-.868.672-1.232.298-.3733.676-.6673 1.134-.882.466-.224 1.012-.336 1.638-.336.812 0 1.479.1773 2.002.532.532.3453.924.7933 1.176 1.344.261.5507.392 1.1387.392 1.764v.602h-6.636v-1.008h5.656l-.308.546c0-.532-.084-.9893-.252-1.372-.168-.392-.42-.6953-.756-.91s-.761-.322-1.274-.322c-.532 0-.976.1213-1.33.364-.346.2427-.607.574-.784.994-.168.42-.252.9053-.252 1.456 0 .532.084 1.0127.252 1.442.177.42.448.756.812 1.008.364.2427.826.364 1.386.364.588 0 1.064-.1307 1.428-.392.373-.2613.597-.5647.672-.91h1.26c-.103.5133-.308.9567-.616 1.33s-.696.658-1.162.854c-.467.196-.994.294-1.582.294zm8.663-.252v-10.22h1.344v10.22zm-1.036-9.156v-1.064h2.38v1.064zm8.402 9.408c-.653 0-1.227-.112-1.722-.336-.494-.224-.914-.518-1.26-.882-.336-.3733-.592-.7887-.77-1.246-.168-.4573-.252-.924-.252-1.4v-.252c0-.476.089-.9427.266-1.4.178-.4667.439-.882.784-1.246.346-.3733.766-.6673 1.26-.882.495-.224 1.06-.336 1.694-.336.635 0 1.2.112 1.694.336.495.2147.915.5087 1.26.882.346.364.607.7793.784 1.246.178.4573.266.924.266 1.4v.252c0 .476-.088.9427-.266 1.4-.168.4573-.424.8727-.77 1.246-.336.364-.751.658-1.246.882-.494.224-1.068.336-1.722.336zm0-1.204c.56 0 1.036-.1213 1.428-.364.402-.252.705-.588.91-1.008.215-.42.322-.8913.322-1.414 0-.532-.107-1.008-.322-1.428-.214-.42-.522-.7513-.924-.994-.392-.2427-.863-.364-1.414-.364-.541 0-1.012.1213-1.414.364-.401.2427-.709.574-.924.994-.214.42-.322.896-.322 1.428 0 .5227.103.994.308 1.414.215.42.518.756.91 1.008.402.2427.882.364 1.442.364zm8.845 3.864c-.345 0-.695-.014-1.05-.042-.345-.028-.676-.0653-.994-.112v-1.134c.336.0467.686.084 1.05.112.374.0373.724.056 1.05.056.682 0 1.223-.0933 1.624-.28.411-.1773.705-.462.882-.854.187-.3827.28-.8773.28-1.484v-1.428l.448-1.064c-.028.756-.186 1.386-.476 1.89-.289.4947-.667.868-1.134 1.12-.457.2427-.966.364-1.526.364-.522 0-1.003-.098-1.442-.294-.429-.2053-.802-.4853-1.12-.84-.308-.3547-.55-.7607-.728-1.218-.168-.4667-.252-.9567-.252-1.47v-.252c0-.5227.089-1.008.266-1.456.178-.4573.425-.854.742-1.19.318-.336.696-.5973 1.134-.784.448-.1867.938-.28 1.47-.28.626 0 1.176.1353 1.652.406.476.2613.85.6487 1.12 1.162.28.504.434 1.1247.462 1.862l-.392.014v-3.192h1.064v6.594c0 .896-.14 1.6193-.42 2.17-.27.56-.709.9707-1.316 1.232-.597.2613-1.395.392-2.394.392zm.406-4.088c.448 0 .854-.098 1.218-.294.374-.196.668-.476.882-.84.224-.3733.336-.8167.336-1.33v-.644c0-.504-.116-.9287-.35-1.274-.224-.3453-.518-.6067-.882-.784s-.76-.266-1.19-.266c-.485 0-.914.112-1.288.336-.373.224-.662.5413-.868.952-.205.4013-.308.8773-.308 1.428s.103 1.0313.308 1.442c.215.4107.504.728.868.952.374.2147.798.322 1.274.322zm9.656 1.428c-.65 0-1.226-.112-1.721-.336-.494-.224-.914-.518-1.26-.882-.336-.3733-.592-.7887-.77-1.246-.168-.4573-.252-.924-.252-1.4v-.252c0-.476.089-.9427.266-1.4.178-.4667.439-.882.784-1.246.346-.3733.766-.6673 1.26-.882.495-.224 1.063-.336 1.693-.336.64 0 1.2.112 1.7.336.49.2147.91.5087 1.26.882.34.364.6.7793.78 1.246.18.4573.27.924.27 1.4v.252c0 .476-.09.9427-.27 1.4-.17.4573-.43.8727-.77 1.246-.34.364-.75.658-1.25.882-.49.224-1.07.336-1.72.336zm0-1.204c.56 0 1.04-.1213 1.43-.364.4-.252.7-.588.91-1.008s.32-.8913.32-1.414c0-.532-.11-1.008-.32-1.428-.22-.42-.52-.7513-.92-.994s-.87-.364-1.42-.364c-.54 0-1.011.1213-1.413.364-.401.2427-.709.574-.924.994-.214.42-.322.896-.322 1.428 0 .5227.103.994.308 1.414.215.42.518.756.91 1.008.402.2427.881.364 1.441.364zm9.57.952v-7.476h1.34v7.476zm-1.15-6.412v-1.064h2.49v1.064zm1.53-2.268c-.3 0-.53-.0793-.68-.238-.14-.1587-.21-.3593-.21-.602s.07-.4433.21-.602c.15-.1587.38-.238.68-.238.29 0 .51.0793.65.238.15.1587.23.3593.23.602s-.08.4433-.23.602c-.14.1587-.36.238-.65.238zm6.01 8.904c-.98 0-1.74-.21-2.28-.63-.53-.42-.81-.994-.83-1.722h1.26c.02.2893.17.5647.44.826.28.252.75.378 1.41.378.6 0 1.06-.1167 1.37-.35.32-.2427.48-.5367.48-.882 0-.308-.12-.546-.35-.714-.23-.1773-.61-.294-1.14-.35l-.81-.084c-.71-.0747-1.29-.2847-1.73-.63-.45-.3547-.68-.8493-.68-1.484 0-.476.13-.882.37-1.218.24-.3453.58-.6067 1.01-.784.43-.1867.92-.28 1.48-.28.84 0 1.52.1867 2.04.56.53.3733.8.9287.82 1.666h-1.26c-.01-.2987-.15-.5507-.42-.756-.26-.2147-.66-.322-1.18-.322s-.92.1073-1.19.322-.41.4853-.41.812c0 .28.1.504.28.672.2.168.52.2753.96.322l.81.084c.8.084 1.45.308 1.93.672.49.3547.73.8587.73 1.512 0 .4667-.14.882-.41 1.246-.26.3547-.62.6347-1.09.84-.47.196-1 .294-1.61.294zm12.19.028c-.62 0-1.17-.1353-1.65-.406s-.86-.6627-1.14-1.176c-.28-.5227-.43-1.148-.46-1.876h.37v3.206h-1.07v-10.22h1.35v4.97l-.48 1.022c.04-.812.2-1.4747.49-1.988s.67-.8913 1.13-1.134c.48-.252 1-.378 1.57-.378.53 0 1.02.1027 1.46.308.44.196.81.4713 1.13.826.32.3453.56.7513.73 1.218.17.4573.25.952.25 1.484v.252c0 .532-.09 1.0313-.26 1.498s-.42.882-.75 1.246c-.32.3547-.71.6347-1.17.84-.45.2053-.95.308-1.5.308zm-.15-1.176c.5 0 .94-.1213 1.31-.364.38-.2427.66-.574.87-.994.21-.4293.31-.924.31-1.484s-.11-1.05-.32-1.47-.5-.742-.87-.966c-.38-.2333-.81-.35-1.3-.35-.45 0-.87.1027-1.25.308-.38.196-.69.4853-.92.868-.23.3733-.34.826-.34 1.358v.644c0 .5133.12.952.35 1.316s.54.644.92.84c.39.196.8.294 1.24.294zm8.44 1.148c-.88 0-1.56-.2893-2.04-.868s-.71-1.414-.71-2.506v-4.34h1.34v4.606c0 .588.16 1.05.48 1.386.31.3267.74.49 1.28.49.56 0 1.02-.1773 1.38-.532.35-.364.53-.8587.53-1.484v-4.466h1.34v7.49h-1.06v-3.206h.17c0 .7373-.1 1.3627-.3 1.876-.19.504-.49.8913-.88 1.162-.38.2613-.87.392-1.47.392zm6.57-.224v-7.476h1.34v7.476zm-1.15-6.412v-1.064h2.49v1.064zm1.53-2.268c-.3 0-.53-.0793-.67-.238s-.21-.3593-.21-.602.07-.4433.21-.602.37-.238.67-.238.52.0793.66.238.22.3593.22.602-.08.4433-.22.602-.36.238-.66.238zm3.65 8.68v-10.22h1.34v10.22zm-1.04-9.156v-1.064h2.38v1.064zm7.87 9.24c-.56 0-1.05-.0793-1.46-.238-.4-.1587-.71-.4293-.93-.812-.22-.392-.33-.9193-.33-1.582v-7.196h1.29v7.364c0 .4013.11.714.32.938.23.2147.54.322.94.322h1.32v1.204zm-4-6.552v-1.008h5.15v1.008zm13.68 6.72c-.66 0-1.23-.112-1.72-.336-.5-.224-.92-.518-1.26-.882-.34-.3733-.6-.7887-.77-1.246s-.26-.924-.26-1.4v-.252c0-.476.09-.9427.27-1.4.18-.4667.44-.882.78-1.246.35-.3733.77-.6673 1.26-.882.5-.224 1.06-.336 1.7-.336.63 0 1.2.112 1.69.336.5.2147.92.5087 1.26.882.35.364.61.7793.79 1.246.17.4573.26.924.26 1.4v.252c0 .476-.09.9427-.26 1.4s-.43.8727-.77 1.246c-.34.364-.76.658-1.25.882s-1.07.336-1.72.336zm0-1.204c.56 0 1.03-.1213 1.43-.364.4-.252.7-.588.91-1.008s.32-.8913.32-1.414c0-.532-.11-1.008-.32-1.428-.22-.42-.53-.7513-.93-.994-.39-.2427-.86-.364-1.41-.364-.54 0-1.01.1213-1.42.364-.4.2427-.71.574-.92.994s-.32.896-.32 1.428c0 .5227.1.994.31 1.414s.51.756.91 1.008c.4.2427.88.364 1.44.364zm6.02.952v-7.476h1.06v3.206h-.17c0-.7373.1-1.358.3-1.862.2-.5133.51-.9007.92-1.162.41-.2707.93-.406 1.55-.406h.06c.94 0 1.64.294 2.09.882s.68 1.4373.68 2.548v4.27h-1.34v-4.55c0-.5787-.17-1.0407-.49-1.386-.33-.3547-.78-.532-1.35-.532-.58 0-1.06.182-1.42.546-.37.364-.55.8493-.55 1.456v4.466zm16.66 0v-2.24h-.23v-2.59c0-.5133-.13-.9007-.4-1.162-.26-.2613-.65-.392-1.16-.392-.29 0-.59.0047-.9.014s-.6.0187-.88.028-.52.0233-.73.042v-1.176c.21-.0187.42-.0327.64-.042.24-.0187.48-.028.72-.028.24-.0093.47-.014.7-.014.76 0 1.39.0933 1.87.28.49.1773.85.4713 1.08.882.24.4107.35.966.35 1.666v4.732zm-2.45.196c-.56 0-1.05-.0933-1.46-.28-.4-.196-.71-.476-.94-.84-.21-.364-.32-.8027-.32-1.316 0-.532.12-.9753.35-1.33.24-.3547.59-.6207 1.05-.798.46-.1867 1.01-.28 1.65-.28h2.03v1.008h-2.08c-.54 0-.96.1307-1.25.392s-.43.5973-.43 1.008.14.742.43.994.71.378 1.25.378c.32 0 .62-.056.91-.168.29-.1213.53-.3173.71-.588.2-.28.31-.6627.32-1.148l.37.532c-.05.532-.18.98-.39 1.344-.21.3547-.5.6253-.87.812s-.81.28-1.33.28zm10.73-.196v-9.548l.62.476h-2.89v-1.148h3.62v10.22zm4.09 0v-1.68c0-.4107.06-.7607.17-1.05.12-.2893.32-.5507.61-.784.29-.2427.68-.476 1.18-.7l1.92-.882c.46-.2147.83-.49 1.1-.826.27-.3453.41-.7887.41-1.33 0-.6533-.18-1.162-.55-1.526-.36-.364-.87-.546-1.54-.546-.65 0-1.16.182-1.54.546-.37.364-.56.8727-.56 1.526h-1.31c0-.588.12-1.1293.36-1.624.25-.4947.63-.8867 1.14-1.176.5-.2987 1.14-.448 1.91-.448.78 0 1.41.1493 1.91.448.5.2893.87.672 1.12 1.148s.38.994.38 1.554v.196c0 .7373-.22 1.358-.65 1.862-.42.504-.99.9193-1.71 1.246l-1.91.882c-.43.196-.72.392-.87.588s-.23.4573-.23.784v1.288l-.36-.644h5.85v1.148zm7.98 0 2.68-3.934-.05.28-2.5-3.822h1.48l1.81 2.814h.19l1.71-2.814h1.39l-2.37 3.724.04-.252 2.8 4.004h-1.48l-2.1-3.038h-.2l-2.01 3.038zm10.3 0v-9.548l.62.476h-2.89v-1.148h3.61v10.22zm3.69-2.422v-1.652l4.25-6.398.93.742-3.96 5.992.13.252h6.61v1.064zm5.34 2.422v-7.238h1.26v7.238zm10.28 2.912c-.35 0-.7-.014-1.05-.042s-.68-.0653-1-.112v-1.134c.34.0467.69.084 1.05.112.38.0373.73.056 1.05.056.68 0 1.22-.0933 1.63-.28.41-.1773.7-.462.88-.854.18-.3827.28-.8773.28-1.484v-1.428l.45-1.064c-.03.756-.19 1.386-.48 1.89-.29.4947-.67.868-1.13 1.12-.46.2427-.97.364-1.53.364-.52 0-1-.098-1.44-.294-.43-.2053-.8-.4853-1.12-.84-.31-.3547-.55-.7607-.73-1.218-.17-.4667-.25-.9567-.25-1.47v-.252c0-.5227.09-1.008.26-1.456.18-.4573.43-.854.75-1.19.31-.336.69-.5973 1.13-.784.45-.1867.94-.28 1.47-.28.63 0 1.18.1353 1.65.406.48.2613.85.6487 1.12 1.162.28.504.44 1.1247.46 1.862l-.39.014v-3.192h1.07v6.594c0 .896-.14 1.6193-.42 2.17-.27.56-.71.9707-1.32 1.232-.6.2613-1.4.392-2.39.392zm.4-4.088c.45 0 .86-.098 1.22-.294.37-.196.67-.476.88-.84.23-.3733.34-.8167.34-1.33v-.644c0-.504-.12-.9287-.35-1.274s-.52-.6067-.88-.784c-.37-.1773-.76-.266-1.19-.266-.49 0-.92.112-1.29.336-.38.224-.66.5413-.87.952-.21.4013-.31.8773-.31 1.428s.1 1.0313.31 1.442.5.728.87.952c.37.2147.8.322 1.27.322zm6.22 1.176v-7.476h1.06v3.08h-.06c0-1.092.24-1.89.72-2.394.48-.5133 1.21-.77 2.17-.77h.25v1.204h-.48c-.74 0-1.32.2007-1.72.602-.4.392-.6.9613-.6 1.708v4.046zm6.1 0v-7.476h1.35v7.476zm-1.15-6.412v-1.064h2.5v1.064zm1.53-2.268c-.3 0-.52-.0793-.67-.238-.14-.1587-.21-.3593-.21-.602s.07-.4433.21-.602c.15-.1587.37-.238.67-.238s.52.0793.66.238c.15.1587.22.3593.22.602s-.07.4433-.22.602c-.14.1587-.36.238-.66.238zm6.69 8.932c-.54 0-1.03-.098-1.47-.294-.45-.196-.84-.4713-1.18-.826-.33-.3547-.58-.7653-.77-1.232-.18-.4667-.27-.9707-.27-1.512v-.252c0-.532.09-1.0313.27-1.498s.42-.8773.74-1.232c.33-.3547.71-.63 1.15-.826.45-.2053.94-.308 1.48-.308.57 0 1.09.1213 1.56.364.46.2333.85.602 1.15 1.106.29.504.46 1.1573.5 1.96l-.56-.896v-5.026h1.34v10.22h-1.06v-3.318h.39c-.04.8493-.21 1.54-.53 2.072-.32.5227-.72.9053-1.2 1.148-.48.2333-.99.35-1.54.35zm.18-1.176c.46 0 .87-.1027 1.24-.308.38-.2053.68-.4993.9-.882.22-.392.34-.8493.34-1.372v-.644c0-.5133-.12-.9473-.35-1.302-.23-.364-.53-.6393-.91-.826-.38-.196-.79-.294-1.24-.294-.49 0-.93.1167-1.31.35s-.67.56-.88.98-.31.9147-.31 1.484.11 1.0687.32 1.498c.21.42.51.7467.9.98.38.224.81.336 1.3.336zm6.08.924v-1.708h1.62v1.708z" fill="#a19db6"/><path d="m1238.78 741.266c-.81 0-1.49-.131-2.05-.392-.56-.271-1.01-.635-1.37-1.092-.35-.467-.62-.999-.78-1.596-.16-.607-.24-1.241-.24-1.904v-.784c0-.943.16-1.792.47-2.548.32-.756.81-1.353 1.46-1.792.65-.448 1.49-.672 2.51-.672 1 0 1.84.224 2.49.672.65.439 1.13 1.036 1.44 1.792.32.756.48 1.605.48 2.548v.784c0 .663-.09 1.297-.26 1.904-.15.597-.41 1.129-.77 1.596-.34.457-.79.821-1.35 1.092-.56.261-1.24.392-2.03.392zm0-1.82c.83 0 1.44-.285 1.83-.854.39-.579.59-1.475.59-2.688 0-1.288-.2-2.207-.6-2.758-.4-.56-1.01-.84-1.82-.84-.82 0-1.44.28-1.85.84-.4.551-.6 1.461-.6 2.73 0 1.223.2 2.123.6 2.702s1.02.868 1.85.868zm7.86 1.554v-8.988l.62.476h-2.7v-1.708h4.06v10.22z" fill="#2c245e"/><g clip-path="url(#b)"><g mask="url(#c)"><circle cx="650" cy="405" fill="url(#a)" r="392"/></g><g fill="#a19db6" fill-opacity=".33" stroke="#a19db6" stroke-width="2.5"><path d="m552.995 419v111.151c.078 2.925-.737 5.805-2.338 8.259s-3.912 4.368-6.629 5.488-5.711 1.394-8.588.786-5.5-2.069-7.525-4.191l-44.525-44.294c-3.219-3.242-5.622-7.195-7.015-11.536-1.392-4.341-1.733-8.948-.996-13.446.737-4.497 2.531-8.758 5.237-12.434 2.706-3.677 6.247-6.666 10.334-8.723z"/><path d="m651 199.621v151.516c-.002 5.584-1.551 11.056-4.475 15.804-2.923 4.749-7.105 8.585-12.076 11.078l-81.449 40.925-61.958 31.332c-4.114 2.068-7.68 5.088-10.405 8.812s-4.53 8.046-5.267 12.609c-.737 4.562-.385 9.236 1.027 13.635s3.844 8.398 7.096 11.668l-4.174-4.195c-7.712-7.75-13.828-16.951-18.001-27.077-4.172-10.126-6.319-20.979-6.318-31.939v-144.002c.002-5.584 1.551-11.057 4.475-15.805 2.923-4.748 7.105-8.584 12.076-11.077l155.53-78.166c2.522-1.26 5.323-1.853 8.137-1.721s5.548.983 7.943 2.473c2.396 1.49 4.373 3.57 5.744 6.043 1.372 2.472 2.093 5.256 2.095 8.087z"/><path d="m778.826 366.84-62.821 31.16v-112.016c-.079-2.952.746-5.857 2.367-8.334 1.621-2.476 3.961-4.407 6.712-5.538 2.751-1.13 5.783-1.407 8.696-.793 2.912.613 5.569 2.088 7.619 4.229l40.85 40.501 4.232 4.196c3.267 3.272 5.706 7.263 7.12 11.647 1.414 4.385 1.762 9.039 1.016 13.582-.746 4.544-2.566 8.848-5.31 12.561-2.745 3.713-6.336 6.73-10.481 8.805z"/><path d="m815 383.25v143.874c.005 5.593-1.549 11.077-4.488 15.835s-7.145 8.603-12.148 11.1l-156.323 78.178c-2.531 1.271-5.346 1.872-8.175 1.747s-5.579-.973-7.989-2.461c-2.41-1.489-4.399-3.57-5.777-6.045-1.379-2.475-2.102-5.262-2.1-8.095v-151.611c.002-5.587 1.559-11.063 4.498-15.815 2.938-4.751 7.141-8.589 12.138-11.084l81.864-40.951 62.274-31.169c4.135-2.069 7.719-5.091 10.458-8.817 2.739-3.727 4.553-8.051 5.294-12.617.741-4.565.388-9.242-1.032-13.644-1.419-4.402-3.864-8.403-7.132-11.675l4.195 4.161c15.649 15.68 24.439 36.932 24.443 59.089z"/></g></g><path d="m56.8147 66.74v7.9534c.0055.2093-.0511.4153-.1623.5909s-.2717.3126-.4603.3927c-.1887.0802-.3966.0998-.5964.0563-.1997-.0435-.3819-.1481-.5225-.2999l-3.0919-3.1746c-.2261-.232-.3952-.5157-.4934-.8277-.0982-.3121-.1227-.6436-.0714-.9672.0512-.3237.1768-.6302.3663-.8944.1894-.2642.4374-.4784.7235-.6251z" fill="#2c2260"/><path d="m63.6294 51.1824v10.7477c-.0001.3961-.1079.7843-.3111 1.1211-.2033.3368-.4941.6089-.8398.7858l-5.6638 2.903-4.3084 2.2095c-.2852.1469-.5323.361-.7212.6248-.1888.2637-.314.5696-.3652.8925s-.027.6537.0705.9651c.0976.3115.2658.5949.4909.8268l-.2902-.2975c-.5363-.5498-.9616-1.2025-1.2517-1.9207-.2902-.7183-.4395-1.4882-.4394-2.2656v-10.1966c.0001-.3961.1079-.7843.3112-1.1211.2032-.3368.494-.6089.8397-.7858l10.8152-5.5446c.1754-.0894.3702-.1314.5659-.1221.1956.0093.3858.0697.5523.1754.1666.1057.3041.2532.3995.4286.0953.1754.1455.3729.1456.5737z" fill="#69daff"/><path d="m72.481 63.053-4.3085 2.22v-7.9638c-.0054-.2093.0512-.4153.1624-.5909.1111-.1756.2716-.3126.4603-.3927.1886-.0802.3966-.0998.5963-.0563.1998.0435.382.1481.5226.2999l2.8016 2.8719.2902.2976c.2261.2319.3953.5156.4935.8276.0982.3121.1226.6436.0714.9673-.0513.3236-.1768.6302-.3663.8943-.1895.2642-.4375.4785-.7235.6251z" fill="#2c2260"/><path d="m74.9873 64.2225v10.1992c.0003.3965-.1072.7853-.3105 1.1226s-.4944.6098-.8405.7869l-10.8152 5.542c-.1751.0901-.3698.1327-.5656.1238-.1957-.0089-.386-.0689-.5527-.1745-.1667-.1055-.3043-.253-.3997-.4285-.0954-.1754-.1454-.373-.1453-.5738v-10.7478c.0002-.396.1079-.7842.3112-1.121s.4941-.6089.8398-.7858l5.6638-2.8926 4.3084-2.2096c.286-.1467.534-.3609.7235-.6251s.315-.5707.3663-.8944.0268-.6552-.0714-.9672c-.0982-.3121-.2673-.5957-.4934-.8277l.2902.295c1.0802 1.109 1.6881 2.6113 1.6911 4.1785z" fill="#ff86a1"/><g fill="#2c2260"><path d="m92.5036 58.4036c-.8198-.4963-1.7562-.754-2.7082-.7451h-6.7718v16.7814h2.8773v-5.7491h3.8945c.9521.0091 1.8885-.2485 2.7082-.7451.8024-.4871 1.4718-1.1742 1.9459-1.9974.4777-.8429.7293-1.8002.7293-2.7749 0-.9748-.2516-1.9321-.7293-2.775-.475-.8217-1.1442-1.5077-1.9459-1.9948zm-1.4513 7.0013c-.3817.2323-.8181.3531-1.262.3493h-3.8945v-5.1591h3.8945c.444-.005.8808.1159 1.262.3493.3775.2279.6933.549.9187.934.2243.3924.3425.8389.3425 1.2937 0 .4547-.1182.9013-.3425 1.2936-.225.3868-.5408.7096-.9187.9392z"/><path d="m101.741 62.2147c-.553.1927-1.078.4598-1.562.7943v-1.1306h-2.8799v12.5614h2.8799v-5.9327c-.007-.651.16-1.2915.482-1.8525.316-.5487.762-1.0063 1.297-1.3299.548-.3302 1.172-.501 1.807-.4942h1.192v-2.9521h-1.192c-.688-.0022-1.372.1115-2.024.3363z"/><path d="m116.612 63.6429c-.568-.5817-1.24-1.0471-1.978-1.3712-.76-.3265-1.575-.4947-2.398-.4947s-1.639.1682-2.398.4947c-1.486.6541-2.671 1.8683-3.309 3.3919-.32.7781-.484 1.6138-.484 2.458s.164 1.6799.484 2.458c.625 1.5287 1.804 2.7494 3.289 3.4049.76.3231 1.575.4894 2.398.4894s1.637-.1663 2.397-.4894c1.494-.6439 2.681-1.8615 3.309-3.392.316-.7792.478-1.6144.478-2.458 0-.8435-.162-1.6787-.478-2.4579-.304-.7582-.749-1.4487-1.31-2.0337zm-4.379 7.8965c-.588.0061-1.167-.1541-1.673-.4631-.496-.3014-.91-.7258-1.204-1.2341-.297-.5179-.451-1.1093-.444-1.7103-.006-.6032.147-1.197.444-1.7179.291-.5099.706-.9341 1.204-1.2316.509-.2984 1.085-.4554 1.671-.4554s1.162.157 1.671.4554c.496.3007.91.7252 1.204 1.2341.295.5199.451 1.111.451 1.7129 0 .6018-.156 1.1929-.451 1.7128-.298.5058-.711.9295-1.204 1.2341-.504.3096-1.081.4699-1.669.4631z"/><path d="m128.296 67.2523c-.724-.3783-1.506-.6269-2.312-.7348l-1.716-.2251c-.415-.0377-.818-.1628-1.184-.3674-.28-.1708-.424-.3545-.424-.546 0-.2458.219-.4683.654-.6597 1.098-.4175 2.306-.4175 3.404 0 .435.1914.654.4139.654.6597v.1242h2.966v-.1242c-.002-.7249-.263-1.4242-.732-1.9663-.527-.6128-1.188-1.0896-1.928-1.392-1.71-.6933-3.614-.6933-5.323 0-.741.3024-1.402.7792-1.929 1.392-.469.5421-.73 1.2414-.732 1.9663-.001.6437.206 1.2697.588 1.7801.423.5611.962 1.0189 1.578 1.3403.694.3735 1.451.6105 2.231.6985l1.716.2251c.456.0449.899.1849 1.3.4114.313.1915.47.4011.47.621 0 .2768-.24.5174-.712.7374-1.193.455-2.505.455-3.698 0-.472-.2148-.712-.4606-.712-.7374v-.1216h-2.968v.1138c.002.7475.272 1.4683.757 2.0259.547.6334 1.233 1.124 2.002 1.4308 1.779.7038 3.751.7038 5.53 0 .768-.3074 1.454-.7979 2.001-1.4308.486-.5576.755-1.2784.758-2.0259-.006-.6558-.22-1.2919-.611-1.8111-.435-.5805-.991-1.0535-1.628-1.3842z"/><path d="m143.52 65.63c-.634-1.5263-1.819-2.7419-3.308-3.392-.76-.3264-1.575-.4946-2.398-.4946-.824 0-1.639.1682-2.398.4946-1.486.6542-2.671 1.8684-3.309 3.392-.32.778-.484 1.6137-.484 2.458 0 .8442.164 1.6799.484 2.4579.632 1.5278 1.819 2.744 3.309 3.392.761.3286 1.579.4949 2.405.489.839.0044 1.67-.1719 2.438-.5175.746-.3363 1.423-.8148 1.994-1.41.571-.5931 1.021-1.2967 1.323-2.0699l.066-.1708h-3.284l-.035.044c-.312.3658-.693.6617-1.121.8694-.533.2546-1.123.3594-1.709.3035-.586-.056-1.147-.2705-1.625-.6218-.503-.3706-.896-.8753-1.139-1.4592h9.125l.017-.0984c.081-.3983.122-.804.121-1.2108.006-.8427-.154-1.678-.472-2.4554zm-5.709-.9392c.684-.0067 1.352.2089 1.908.6158.501.3559.895.8478 1.139 1.4204h-6.091c.242-.5708.632-1.0622 1.129-1.4204.558-.4088 1.229-.6245 1.915-.6158z"/></g><path d="m53.926 745.07v-1.596h2.562c.4667 0 .8213-.126 1.064-.378.2427-.261.364-.616.364-1.064s-.1213-.793-.364-1.036c-.2427-.252-.5973-.378-1.064-.378h-2.562v-1.218h2.422c.6813 0 1.288.084 1.82.252.5413.159.9613.429 1.26.812.308.383.462.896.462 1.54v.196c0 .607-.1353 1.125-.406 1.554-.2613.42-.658.747-1.19.98-.5227.224-1.1713.336-1.946.336zm-1.666 0v-10.36h1.946v10.36zm1.666-4.774v-1.218h2.184c.476 0 .826-.126 1.05-.378s.336-.588.336-1.008-.112-.756-.336-1.008-.574-.378-1.05-.378h-2.184v-1.596h2.002c1.1573 0 2.0347.243 2.632.728.6067.485.91 1.181.91 2.086v.196c0 .635-.154 1.143-.462 1.526-.2987.373-.714.644-1.246.812-.532.159-1.1433.238-1.834.238zm7.8187 4.704v-7.602h1.54v3.22h-.042c0-1.092.2333-1.918.7-2.478.4666-.56 1.1526-.84 2.058-.84h.28v1.694h-.532c-.6534 0-1.162.177-1.526.532-.3547.345-.532.849-.532 1.512v3.962zm10.4028 0v-2.254h-.322v-2.506c0-.439-.1073-.765-.322-.98-.2146-.215-.546-.322-.994-.322-.2333 0-.5133.005-.84.014-.3266.009-.658.023-.994.042-.3266.009-.6206.023-.882.042v-1.652c.2147-.019.4574-.037.728-.056.2707-.019.546-.028.826-.028.2894-.009.56-.014.812-.014.784 0 1.4327.103 1.946.308.5227.205.9147.527 1.176.966.2707.439.406 1.013.406 1.722v4.718zm-2.45.196c-.5506 0-1.036-.098-1.456-.294-.4106-.196-.7326-.476-.966-.84-.224-.364-.336-.803-.336-1.316 0-.56.1354-1.017.406-1.372.28-.355.6674-.621 1.162-.798.504-.177 1.092-.266 1.764-.266h1.764v1.162h-1.792c-.448 0-.7933.112-1.036.336-.2333.215-.35.495-.35.84s.1167.625.35.84c.2427.215.588.322 1.036.322.2707 0 .518-.047.742-.14.2334-.103.4247-.271.574-.504.1587-.243.2474-.569.266-.98l.476.546c-.0466.532-.1773.98-.392 1.344-.2053.364-.4946.644-.868.84-.364.187-.812.28-1.344.28zm6.0745-.196v-7.602h1.54v3.262h-.14c0-.775.1027-1.419.308-1.932.2053-.523.5087-.915.91-1.176.4107-.261.9193-.392 1.526-.392h.084c.9053 0 1.5913.294 2.058.882.4667.579.7 1.447.7 2.604v4.354h-1.946v-4.522c0-.467-.1353-.845-.406-1.134-.2613-.289-.6253-.434-1.092-.434-.476 0-.8633.149-1.162.448-.2893.289-.434.681-.434 1.176v4.466zm12.2281.252c-.532 0-1.022-.098-1.47-.294s-.8353-.471-1.162-.826c-.3266-.355-.5786-.765-.756-1.232-.1773-.476-.266-.989-.266-1.54v-.294c0-.541.084-1.05.252-1.526.1774-.476.42-.891.728-1.246.3174-.355.6954-.63 1.134-.826.448-.205.9427-.308 1.484-.308.5974 0 1.12.131 1.568.392.4574.252.8214.635 1.092 1.148.2707.513.42 1.157.448 1.932l-.574-.672v-5.18h1.946v10.22h-1.54v-3.234h.336c-.028.775-.1866 1.423-.476 1.946-.2893.513-.672.901-1.148 1.162-.4666.252-.9986.378-1.596.378zm.434-1.638c.3827 0 .7327-.084 1.05-.252.3174-.177.5694-.429.756-.756.196-.336.294-.728.294-1.176v-.56c0-.448-.098-.821-.294-1.12-.196-.308-.4526-.541-.77-.7-.3173-.168-.6626-.252-1.036-.252-.42 0-.7933.103-1.12.308-.3173.196-.5693.476-.756.84-.1773.364-.266.789-.266 1.274s.0934.91.28 1.274c.1867.355.4387.63.756.826.3267.196.6954.294 1.106.294zm14.1409 1.652c-.878 0-1.652-.145-2.324-.434-.663-.299-1.223-.695-1.6803-1.19-.448-.504-.7887-1.069-1.022-1.694-.224-.635-.336-1.293-.336-1.974v-.308c0-.644.112-1.274.336-1.89s.5507-1.171.98-1.666c.4387-.495.9753-.887 1.6103-1.176.644-.299 1.381-.448 2.212-.448.896 0 1.689.168 2.38.504.69.327 1.246.789 1.666 1.386.42.588.667 1.274.742 2.058h-2.002c-.066-.439-.229-.812-.49-1.12-.262-.317-.593-.56-.994-.728-.392-.168-.826-.252-1.302-.252s-.91.084-1.302.252c-.383.168-.71.406-.98.714-.271.308-.481.677-.6303 1.106-.14.429-.21.905-.21 1.428 0 .569.0793 1.078.238 1.526s.3827.831.6723 1.148c.289.308.639.546 1.05.714.41.159.872.238 1.386.238.681 0 1.278-.14 1.792-.42.513-.289.886-.663 1.12-1.12l-.35 1.61v-2.632h1.834v2.268c-.439.663-1.036 1.181-1.792 1.554-.756.364-1.624.546-2.604.546zm-.322-3.976v-1.484h5.572v1.484zm9.646 3.948c-.877 0-1.559-.289-2.044-.868-.476-.579-.714-1.437-.714-2.576v-4.41h1.946v4.578c0 .467.131.84.392 1.12.261.271.616.406 1.064.406s.812-.145 1.092-.434c.289-.289.434-.681.434-1.176v-4.494h1.946v7.616h-1.54v-3.234h.154c0 .765-.098 1.405-.294 1.918s-.49.901-.882 1.162-.882.392-1.47.392zm6.716-.238v-7.602h1.946v7.602zm-1.064-6.146v-1.456h3.01v1.456zm1.778-2.366c-.383 0-.668-.098-.854-.294-.178-.205-.266-.457-.266-.756 0-.317.088-.574.266-.77.186-.196.471-.294.854-.294.382 0 .662.098.84.294.177.196.266.453.266.77 0 .299-.089.551-.266.756-.178.196-.458.294-.84.294zm6.624 8.764c-.532 0-1.022-.098-1.47-.294s-.835-.471-1.162-.826c-.326-.355-.578-.765-.756-1.232-.177-.476-.266-.989-.266-1.54v-.294c0-.541.084-1.05.252-1.526.178-.476.42-.891.728-1.246.318-.355.696-.63 1.134-.826.448-.205.943-.308 1.484-.308.598 0 1.12.131 1.568.392.458.252.822.635 1.092 1.148.271.513.42 1.157.448 1.932l-.574-.672v-5.18h1.946v10.22h-1.54v-3.234h.336c-.028.775-.186 1.423-.476 1.946-.289.513-.672.901-1.148 1.162-.466.252-.998.378-1.596.378zm.434-1.638c.383 0 .733-.084 1.05-.252.318-.177.57-.429.756-.756.196-.336.294-.728.294-1.176v-.56c0-.448-.098-.821-.294-1.12-.196-.308-.452-.541-.77-.7-.317-.168-.662-.252-1.036-.252-.42 0-.793.103-1.12.308-.317.196-.569.476-.756.84-.177.364-.266.789-.266 1.274s.094.91.28 1.274c.187.355.439.63.756.826.327.196.696.294 1.106.294zm9.607 1.652c-.653 0-1.227-.112-1.722-.336-.485-.224-.891-.523-1.218-.896-.317-.383-.56-.807-.728-1.274-.158-.467-.238-.943-.238-1.428v-.266c0-.504.08-.989.238-1.456.168-.476.411-.896.728-1.26.327-.373.728-.667 1.204-.882.476-.224 1.027-.336 1.652-.336.822 0 1.508.182 2.058.546.56.355.98.826 1.26 1.414.28.579.42 1.204.42 1.876v.7h-6.734v-1.19h5.516l-.602.588c0-.485-.07-.901-.21-1.246s-.354-.611-.644-.798c-.28-.187-.634-.28-1.064-.28-.429 0-.793.098-1.092.294-.298.196-.527.481-.686.854-.149.364-.224.803-.224 1.316 0 .476.075.901.224 1.274.15.364.378.653.686.868.308.205.7.308 1.176.308s.864-.093 1.162-.28c.299-.196.49-.434.574-.714h1.792c-.112.523-.326.98-.644 1.372-.317.392-.723.695-1.218.91-.485.215-1.04.322-1.666.322zm5.378-.266v-10.22h1.946v10.22zm-.952-8.764v-1.456h2.898v1.456zm5.484 8.764v-7.602h1.946v7.602zm-1.064-6.146v-1.456h3.01v1.456zm1.778-2.366c-.383 0-.668-.098-.854-.294-.178-.205-.266-.457-.266-.756 0-.317.088-.574.266-.77.186-.196.471-.294.854-.294.382 0 .662.098.84.294.177.196.266.453.266.77 0 .299-.089.551-.266.756-.178.196-.458.294-.84.294zm3.474 8.512v-7.602h1.54v3.262h-.14c0-.775.103-1.419.308-1.932.206-.523.509-.915.91-1.176.411-.261.92-.392 1.526-.392h.084c.906 0 1.592.294 2.058.882.467.579.7 1.447.7 2.604v4.354h-1.946v-4.522c0-.467-.135-.845-.406-1.134-.261-.289-.625-.434-1.092-.434-.476 0-.863.149-1.162.448-.289.289-.434.681-.434 1.176v4.466zm12.48.266c-.653 0-1.227-.112-1.722-.336-.485-.224-.891-.523-1.218-.896-.317-.383-.56-.807-.728-1.274-.158-.467-.238-.943-.238-1.428v-.266c0-.504.08-.989.238-1.456.168-.476.411-.896.728-1.26.327-.373.728-.667 1.204-.882.476-.224 1.027-.336 1.652-.336.822 0 1.508.182 2.058.546.56.355.98.826 1.26 1.414.28.579.42 1.204.42 1.876v.7h-6.734v-1.19h5.516l-.602.588c0-.485-.07-.901-.21-1.246s-.354-.611-.644-.798c-.28-.187-.634-.28-1.064-.28-.429 0-.793.098-1.092.294-.298.196-.527.481-.686.854-.149.364-.224.803-.224 1.316 0 .476.075.901.224 1.274.15.364.378.653.686.868.308.205.7.308 1.176.308s.864-.093 1.162-.28c.299-.196.49-.434.574-.714h1.792c-.112.523-.326.98-.644 1.372-.317.392-.723.695-1.218.91-.485.215-1.04.322-1.666.322zm8.038-.028c-1.045 0-1.867-.219-2.464-.658-.588-.448-.896-1.064-.924-1.848h1.75c.028.261.173.499.434.714s.672.322 1.232.322c.467 0 .835-.084 1.106-.252.28-.168.42-.397.42-.686 0-.252-.107-.453-.322-.602-.205-.149-.56-.247-1.064-.294l-.672-.07c-.849-.093-1.503-.336-1.96-.728s-.686-.915-.686-1.568c0-.523.131-.961.392-1.316s.621-.621 1.078-.798c.467-.187.999-.28 1.596-.28.933 0 1.689.205 2.268.616s.882 1.013.91 1.806h-1.75c-.019-.261-.149-.485-.392-.672s-.593-.28-1.05-.28c-.411 0-.728.079-.952.238s-.336.364-.336.616c0 .243.089.429.266.56.187.131.485.219.896.266l.672.07c.896.093 1.596.341 2.1.742.513.401.77.943.77 1.624 0 .504-.14.943-.42 1.316-.271.364-.653.649-1.148.854s-1.078.308-1.75.308z" fill="#2c245e"/></svg>