<svg fill="none" height="800" viewBox="0 0 1300 800" width="1300" xmlns="http://www.w3.org/2000/svg"><path d="m0 0h1300v800h-1300z" fill="#fff"/><path d="m741.26 73v-10.22h1.988v10.22zm1.708-4.256v-1.68l4.088-.014v1.68zm0-4.284v-1.68h4.284v1.68zm9.448 8.806c-.672 0-1.264-.1073-1.778-.322-.513-.2147-.947-.504-1.302-.868-.354-.3733-.625-.7933-.812-1.26-.177-.4667-.266-.952-.266-1.456v-.294c0-.5227.094-1.0173.28-1.484.196-.476.472-.896.826-1.26.364-.3733.803-.6627 1.316-.868.514-.2147 1.092-.322 1.736-.322s1.223.1073 1.736.322c.514.2053.948.4947 1.302.868.364.364.64.784.826 1.26.187.4667.28.9613.28 1.484v.294c0 .504-.093.9893-.28 1.456-.177.4667-.443.8867-.798 1.26-.354.364-.788.6533-1.302.868-.513.2147-1.101.322-1.764.322zm0-1.666c.476 0 .878-.1027 1.204-.308.327-.2147.574-.4993.742-.854.168-.364.252-.7747.252-1.232 0-.4667-.088-.8773-.266-1.232-.168-.364-.42-.6487-.756-.854-.326-.2147-.718-.322-1.176-.322-.457 0-.854.1073-1.19.322-.326.2053-.578.49-.756.854-.177.3547-.266.7653-.266 1.232 0 .4573.084.868.252 1.232.178.3547.43.6393.756.854.327.2053.728.308 1.204.308zm5.848 1.4v-7.602h1.54v3.262h-.14c0-.7747.103-1.4187.308-1.932.206-.5227.509-.9147.91-1.176.411-.2613.92-.392 1.526-.392h.084c.906 0 1.592.294 2.058.882.467.5787.7 1.4467.7 2.604v4.354h-1.946v-4.522c0-.4667-.135-.8447-.406-1.134-.261-.2893-.625-.434-1.092-.434-.476 0-.863.1493-1.162.448-.289.2893-.434.6813-.434 1.176v4.466zm12.382.098c-.7 0-1.278-.0887-1.736-.266-.448-.1867-.784-.4947-1.008-.924-.224-.4387-.336-1.0267-.336-1.764l.014-6.888h1.82l-.014 7.014c0 .3733.098.6627.294.868.206.196.495.294.868.294h1.19v1.666zm-4.284-6.272v-1.428h5.376v1.428z" fill="#2c245e"/><path d="m947.472 73v-9.268h1.372v9.268zm-3.108-8.988v-1.232h7.588v1.232zm9.237 8.988v-10.22h1.344v6.104h-.336c0-.7373.093-1.372.28-1.904.196-.5413.494-.9567.896-1.246.401-.2893.914-.434 1.54-.434h.056c.896 0 1.572.2987 2.03.896.457.588.686 1.4327.686 2.534v4.27h-1.344v-4.55c0-.6067-.173-1.078-.518-1.414-.336-.336-.775-.504-1.316-.504-.598 0-1.078.2007-1.442.602-.355.392-.532.91-.532 1.554v4.312zm12.133.252c-.654 0-1.218-.112-1.694-.336s-.864-.518-1.162-.882c-.299-.3733-.523-.7887-.672-1.246-.14-.4573-.21-.924-.21-1.4v-.252c0-.4853.07-.9567.21-1.414.149-.4573.373-.868.672-1.232.298-.3733.676-.6673 1.134-.882.466-.224 1.012-.336 1.638-.336.812 0 1.479.1773 2.002.532.532.3453.924.7933 1.176 1.344.261.5507.392 1.1387.392 1.764v.602h-6.636v-1.008h5.656l-.308.546c0-.532-.084-.9893-.252-1.372-.168-.392-.42-.6953-.756-.91s-.761-.322-1.274-.322c-.532 0-.976.1213-1.33.364-.346.2427-.607.574-.784.994-.168.42-.252.9053-.252 1.456 0 .532.084 1.0127.252 1.442.177.42.448.756.812 1.008.364.2427.826.364 1.386.364.588 0 1.064-.1307 1.428-.392.373-.2613.597-.5647.672-.91h1.26c-.103.5133-.308.9567-.616 1.33s-.696.658-1.162.854c-.467.196-.994.294-1.582.294zm8.663-.252v-10.22h1.344v10.22zm-1.036-9.156v-1.064h2.38v1.064zm8.402 9.408c-.653 0-1.227-.112-1.722-.336-.494-.224-.914-.518-1.26-.882-.336-.3733-.592-.7887-.77-1.246-.168-.4573-.252-.924-.252-1.4v-.252c0-.476.089-.9427.266-1.4.178-.4667.439-.882.784-1.246.346-.3733.766-.6673 1.26-.882.495-.224 1.06-.336 1.694-.336.635 0 1.2.112 1.694.336.495.2147.915.5087 1.26.882.346.364.607.7793.784 1.246.178.4573.266.924.266 1.4v.252c0 .476-.088.9427-.266 1.4-.168.4573-.424.8727-.77 1.246-.336.364-.751.658-1.246.882-.494.224-1.068.336-1.722.336zm0-1.204c.56 0 1.036-.1213 1.428-.364.402-.252.705-.588.91-1.008.215-.42.322-.8913.322-1.414 0-.532-.107-1.008-.322-1.428-.214-.42-.522-.7513-.924-.994-.392-.2427-.863-.364-1.414-.364-.541 0-1.012.1213-1.414.364-.401.2427-.709.574-.924.994-.214.42-.322.896-.322 1.428 0 .5227.103.994.308 1.414.215.42.518.756.91 1.008.402.2427.882.364 1.442.364zm8.845 3.864c-.345 0-.695-.014-1.05-.042-.345-.028-.676-.0653-.994-.112v-1.134c.336.0467.686.084 1.05.112.374.0373.724.056 1.05.056.682 0 1.223-.0933 1.624-.28.411-.1773.705-.462.882-.854.187-.3827.28-.8773.28-1.484v-1.428l.448-1.064c-.028.756-.186 1.386-.476 1.89-.289.4947-.667.868-1.134 1.12-.457.2427-.966.364-1.526.364-.522 0-1.003-.098-1.442-.294-.429-.2053-.802-.4853-1.12-.84-.308-.3547-.55-.7607-.728-1.218-.168-.4667-.252-.9567-.252-1.47v-.252c0-.5227.089-1.008.266-1.456.178-.4573.425-.854.742-1.19.318-.336.696-.5973 1.134-.784.448-.1867.938-.28 1.47-.28.626 0 1.176.1353 1.652.406.476.2613.85.6487 1.12 1.162.28.504.434 1.1247.462 1.862l-.392.014v-3.192h1.064v6.594c0 .896-.14 1.6193-.42 2.17-.27.56-.709.9707-1.316 1.232-.597.2613-1.395.392-2.394.392zm.406-4.088c.448 0 .854-.098 1.218-.294.374-.196.668-.476.882-.84.224-.3733.336-.8167.336-1.33v-.644c0-.504-.116-.9287-.35-1.274-.224-.3453-.518-.6067-.882-.784s-.76-.266-1.19-.266c-.485 0-.914.112-1.288.336-.373.224-.662.5413-.868.952-.205.4013-.308.8773-.308 1.428s.103 1.0313.308 1.442c.215.4107.504.728.868.952.374.2147.798.322 1.274.322zm9.656 1.428c-.65 0-1.226-.112-1.721-.336-.494-.224-.914-.518-1.26-.882-.336-.3733-.592-.7887-.77-1.246-.168-.4573-.252-.924-.252-1.4v-.252c0-.476.089-.9427.266-1.4.178-.4667.439-.882.784-1.246.346-.3733.766-.6673 1.26-.882.495-.224 1.063-.336 1.693-.336.64 0 1.2.112 1.7.336.49.2147.91.5087 1.26.882.34.364.6.7793.78 1.246.18.4573.27.924.27 1.4v.252c0 .476-.09.9427-.27 1.4-.17.4573-.43.8727-.77 1.246-.34.364-.75.658-1.25.882-.49.224-1.07.336-1.72.336zm0-1.204c.56 0 1.04-.1213 1.43-.364.4-.252.7-.588.91-1.008s.32-.8913.32-1.414c0-.532-.11-1.008-.32-1.428-.22-.42-.52-.7513-.92-.994s-.87-.364-1.42-.364c-.54 0-1.011.1213-1.413.364-.401.2427-.709.574-.924.994-.214.42-.322.896-.322 1.428 0 .5227.103.994.308 1.414.215.42.518.756.91 1.008.402.2427.881.364 1.441.364zm6.02.952v-7.476h1.06v3.206h-.17c0-.728.1-1.344.28-1.848.2-.5133.49-.9053.87-1.176.39-.2707.87-.406 1.46-.406h.05c.59 0 1.08.1353 1.46.406.39.2707.68.6627.87 1.176.19.504.28 1.12.28 1.848h-.39c0-.728.09-1.344.29-1.848.2-.5133.49-.9053.87-1.176.39-.2707.88-.406 1.47-.406h.05c.59 0 1.08.1353 1.47.406.4.2707.69.6627.87 1.176.2.504.3 1.12.3 1.848v4.27h-1.35v-4.564c0-.6067-.15-1.0733-.45-1.4-.29-.336-.71-.504-1.24-.504-.55 0-1 .1773-1.33.532-.34.3453-.51.8307-.51 1.456v4.48h-1.34v-4.564c0-.6067-.15-1.0733-.45-1.4-.3-.336-.71-.504-1.24-.504-.55 0-1 .1773-1.33.532-.34.3453-.51.8307-.51 1.456v4.48zm18.07 0v-2.24h-.22v-2.59c0-.5133-.14-.9007-.41-1.162-.26-.2613-.65-.392-1.16-.392-.29 0-.59.0047-.9.014s-.6.0187-.88.028-.52.0233-.73.042v-1.176c.21-.0187.42-.0327.65-.042.23-.0187.47-.028.71-.028.24-.0093.48-.014.7-.014.76 0 1.39.0933 1.88.28.48.1773.84.4713 1.07.882.24.4107.35.966.35 1.666v4.732zm-2.45.196c-.56 0-1.05-.0933-1.46-.28-.4-.196-.71-.476-.93-.84s-.33-.8027-.33-1.316c0-.532.12-.9753.35-1.33.25-.3547.6-.6207 1.05-.798.46-.1867 1.01-.28 1.66-.28h2.03v1.008h-2.09c-.54 0-.96.1307-1.25.392s-.43.5973-.43 1.008.14.742.43.994.71.378 1.25.378c.32 0 .62-.056.91-.168.29-.1213.53-.3173.71-.588.2-.28.31-.6627.33-1.148l.36.532c-.05.532-.18.98-.39 1.344-.21.3547-.5.6253-.87.812-.36.1867-.81.28-1.33.28zm5.98-.196v-7.476h1.06v3.08h-.05c0-1.092.24-1.89.71-2.394.49-.5133 1.21-.77 2.17-.77h.25v1.204h-.47c-.75 0-1.32.2007-1.72.602-.41.392-.61.9613-.61 1.708v4.046zm10.89 0-2.81-3.486h-1.23l3.43-3.99h1.41l-3.11 3.598.1-.714 3.77 4.592zm-5.15 0v-10.22h1.35v10.22zm11.21 0v-7.476h1.07v3.08h-.06c0-1.092.24-1.89.72-2.394.48-.5133 1.2-.77 2.17-.77h.25v1.204h-.48c-.75 0-1.32.2007-1.72.602-.4.392-.6.9613-.6 1.708v4.046zm8.84.252c-.65 0-1.22-.112-1.69-.336-.48-.224-.87-.518-1.16-.882-.3-.3733-.53-.7887-.68-1.246-.14-.4573-.21-.924-.21-1.4v-.252c0-.4853.07-.9567.21-1.414.15-.4573.38-.868.68-1.232.29-.3733.67-.6673 1.13-.882.47-.224 1.01-.336 1.64-.336.81 0 1.48.1773 2 .532.53.3453.92.7933 1.18 1.344s.39 1.1387.39 1.764v.602h-6.64v-1.008h5.66l-.31.546c0-.532-.08-.9893-.25-1.372-.17-.392-.42-.6953-.76-.91-.33-.2147-.76-.322-1.27-.322-.53 0-.98.1213-1.33.364s-.61.574-.79.994c-.16.42-.25.9053-.25 1.456 0 .532.09 1.0127.25 1.442.18.42.45.756.82 1.008.36.2427.82.364 1.38.364.59 0 1.07-.1307 1.43-.392.37-.2613.6-.5647.67-.91h1.26c-.1.5133-.31.9567-.61 1.33-.31.3733-.7.658-1.17.854-.46.196-.99.294-1.58.294zm5.4 2.548v-10.276h1.06v3.234l-.25-.028c.04-.8027.21-1.456.5-1.96.3-.5133.69-.8913 1.16-1.134.48-.2427 1-.364 1.56-.364.54 0 1.03.1027 1.47.308.45.2053.83.4853 1.15.84.31.3547.56.7653.72 1.232.17.4667.26.9613.26 1.484v.252c0 .5227-.09 1.0173-.27 1.484s-.43.8773-.76 1.232c-.31.3547-.7.6347-1.14.84s-.93.308-1.46.308-1.04-.1167-1.53-.35c-.48-.2333-.88-.6113-1.2-1.134s-.5-1.2087-.55-2.058l.62 1.12v4.97zm3.79-3.724c.5 0 .94-.1167 1.32-.35.37-.2427.66-.574.86-.994.21-.4293.31-.9193.31-1.47 0-.56-.1-1.05-.31-1.47-.2-.42-.49-.7467-.86-.98-.38-.2427-.82-.364-1.32-.364-.45 0-.86.1027-1.25.308-.38.196-.69.4853-.92.868-.22.3733-.34.826-.34 1.358v.644c0 .5133.12.952.35 1.316.24.364.54.644.93.84.38.196.79.294 1.23.294zm5.86.924v-7.476h1.06v3.08h-.05c0-1.092.23-1.89.71-2.394.49-.5133 1.21-.77 2.17-.77h.25v1.204h-.47c-.75 0-1.32.2007-1.73.602-.4.392-.6.9613-.6 1.708v4.046zm8.84.252c-.66 0-1.22-.112-1.7-.336-.47-.224-.86-.518-1.16-.882-.3-.3733-.52-.7887-.67-1.246-.14-.4573-.21-.924-.21-1.4v-.252c0-.4853.07-.9567.21-1.414.15-.4573.37-.868.67-1.232.3-.3733.68-.6673 1.13-.882.47-.224 1.02-.336 1.64-.336.81 0 1.48.1773 2 .532.54.3453.93.7933 1.18 1.344.26.5507.39 1.1387.39 1.764v.602h-6.63v-1.008h5.65l-.31.546c0-.532-.08-.9893-.25-1.372-.17-.392-.42-.6953-.75-.91-.34-.2147-.76-.322-1.28-.322-.53 0-.97.1213-1.33.364-.34.2427-.6.574-.78.994-.17.42-.25.9053-.25 1.456 0 .532.08 1.0127.25 1.442.18.42.45.756.81 1.008.36.2427.83.364 1.39.364.58 0 1.06-.1307 1.42-.392.38-.2613.6-.5647.68-.91h1.26c-.11.5133-.31.9567-.62 1.33s-.7.658-1.16.854c-.47.196-1 .294-1.58.294zm7.84-.028c-.98 0-1.74-.21-2.28-.63-.53-.42-.81-.994-.83-1.722h1.26c.02.2893.17.5647.44.826.28.252.75.378 1.41.378.6 0 1.05-.1167 1.37-.35.32-.2427.48-.5367.48-.882 0-.308-.12-.546-.35-.714-.24-.1773-.61-.294-1.14-.35l-.81-.084c-.71-.0747-1.29-.2847-1.73-.63-.45-.3547-.68-.8493-.68-1.484 0-.476.13-.882.37-1.218.24-.3453.58-.6067 1.01-.784.43-.1867.92-.28 1.48-.28.84 0 1.52.1867 2.04.56.53.3733.8.9287.82 1.666h-1.26c-.01-.2987-.15-.5507-.42-.756-.27-.2147-.66-.322-1.18-.322s-.92.1073-1.19.322-.41.4853-.41.812c0 .28.1.504.28.672.2.168.52.2753.96.322l.81.084c.8.084 1.44.308 1.93.672.49.3547.73.8587.73 1.512 0 .4667-.14.882-.41 1.246-.26.3547-.62.6347-1.09.84-.47.196-1 .294-1.61.294zm8.23.028c-.65 0-1.21-.112-1.69-.336s-.86-.518-1.16-.882c-.3-.3733-.52-.7887-.67-1.246-.14-.4573-.21-.924-.21-1.4v-.252c0-.4853.07-.9567.21-1.414.15-.4573.37-.868.67-1.232.3-.3733.67-.6673 1.13-.882.47-.224 1.01-.336 1.64-.336.81 0 1.48.1773 2 .532.53.3453.93.7933 1.18 1.344.26.5507.39 1.1387.39 1.764v.602h-6.64v-1.008h5.66l-.31.546c0-.532-.08-.9893-.25-1.372-.17-.392-.42-.6953-.76-.91-.33-.2147-.76-.322-1.27-.322-.53 0-.98.1213-1.33.364s-.61.574-.78.994-.26.9053-.26 1.456c0 .532.09 1.0127.26 1.442.17.42.44.756.81 1.008.36.2427.82.364 1.38.364.59 0 1.07-.1307 1.43-.392.38-.2613.6-.5647.67-.91h1.26c-.1.5133-.3.9567-.61 1.33s-.7.658-1.16.854c-.47.196-1 .294-1.59.294zm5.4-.252v-7.476h1.06v3.206h-.17c0-.7373.1-1.358.3-1.862.2-.5133.51-.9007.92-1.162.41-.2707.93-.406 1.56-.406h.05c.95 0 1.64.294 2.09.882.46.588.68 1.4373.68 2.548v4.27h-1.34v-4.55c0-.5787-.16-1.0407-.49-1.386-.33-.3547-.77-.532-1.34-.532-.59 0-1.07.182-1.43.546-.37.364-.55.8493-.55 1.456v4.466zm11.87.084c-.56 0-1.05-.0793-1.46-.238-.4-.1587-.71-.4293-.94-.812-.21-.392-.32-.9193-.32-1.582v-7.196h1.29v7.364c0 .4013.1.714.32.938.22.2147.54.322.94.322h1.31v1.204zm-4.01-6.552v-1.008h5.15v1.008zm9.45 6.692c-.98 0-1.74-.21-2.28-.63-.53-.42-.81-.994-.83-1.722h1.26c.02.2893.17.5647.44.826.28.252.75.378 1.41.378.6 0 1.05-.1167 1.37-.35.32-.2427.48-.5367.48-.882 0-.308-.12-.546-.35-.714-.24-.1773-.61-.294-1.14-.35l-.81-.084c-.71-.0747-1.29-.2847-1.73-.63-.45-.3547-.68-.8493-.68-1.484 0-.476.13-.882.37-1.218.24-.3453.58-.6067 1.01-.784.43-.1867.92-.28 1.48-.28.84 0 1.52.1867 2.04.56.53.3733.8.9287.82 1.666h-1.26c-.01-.2987-.15-.5507-.42-.756-.27-.2147-.66-.322-1.18-.322s-.92.1073-1.19.322-.41.4853-.41.812c0 .28.1.504.28.672.2.168.52.2753.96.322l.81.084c.8.084 1.44.308 1.93.672.49.3547.73.8587.73 1.512 0 .4667-.14.882-.41 1.246-.26.3547-.62.6347-1.09.84-.47.196-1 .294-1.61.294zm11.15-.14c-.56 0-1.04-.0793-1.45-.238-.4-.1587-.72-.4293-.94-.812-.22-.392-.32-.9193-.32-1.582v-7.196h1.29v7.364c0 .4013.1.714.32.938.22.2147.53.322.94.322h1.31v1.204zm-4-6.552v-1.008h5.15v1.008zm9.24 6.468 1.51-7.224h1.82l1.76 7.224h-1.15l-1.76-7.196h.45l-1.53 7.196zm-.69 0v-1.064h1.55v1.064zm-.31 0-2.11-7.476h1.29l2.05 7.476zm5.22 0v-1.064h1.56v1.064zm.63 0 1.8-7.476h1.21l-1.83 7.476zm8.14.252c-.66 0-1.23-.112-1.73-.336-.49-.224-.91-.518-1.26-.882-.33-.3733-.59-.7887-.77-1.246-.16-.4573-.25-.924-.25-1.4v-.252c0-.476.09-.9427.27-1.4.18-.4667.44-.882.78-1.246.35-.3733.77-.6673 1.26-.882.5-.224 1.06-.336 1.7-.336.63 0 1.2.112 1.69.336.5.2147.92.5087 1.26.882.35.364.61.7793.78 1.246.18.4573.27.924.27 1.4v.252c0 .476-.09.9427-.27 1.4-.16.4573-.42.8727-.77 1.246-.33.364-.75.658-1.24.882-.5.224-1.07.336-1.72.336zm0-1.204c.56 0 1.03-.1213 1.42-.364.41-.252.71-.588.91-1.008.22-.42.33-.8913.33-1.414 0-.532-.11-1.008-.33-1.428-.21-.42-.52-.7513-.92-.994-.39-.2427-.86-.364-1.41-.364-.54 0-1.02.1213-1.42.364s-.71.574-.92.994c-.22.42-.32.896-.32 1.428 0 .5227.1.994.3 1.414.22.42.52.756.91 1.008.41.2427.89.364 1.45.364zm12.32 1.204c-.53 0-1.02-.098-1.47-.294s-.84-.4713-1.17-.826-.59-.7653-.77-1.232-.27-.9707-.27-1.512v-.252c0-.532.09-1.0313.27-1.498.17-.4667.42-.8773.74-1.232s.71-.63 1.15-.826c.44-.2053.94-.308 1.48-.308.57 0 1.09.1213 1.55.364.47.2333.85.602 1.15 1.106s.47 1.1573.51 1.96l-.56-.896v-5.026h1.34v10.22h-1.06v-3.318h.39c-.04.8493-.22 1.54-.53 2.072-.32.5227-.72.9053-1.21 1.148-.47.2333-.99.35-1.54.35zm.18-1.176c.46 0 .88-.1027 1.25-.308s.67-.4993.9-.882c.22-.392.33-.8493.33-1.372v-.644c0-.5133-.12-.9473-.35-1.302-.22-.364-.53-.6393-.91-.826-.37-.196-.78-.294-1.23-.294-.5 0-.93.1167-1.32.35-.37.2333-.66.56-.88.98-.2.42-.31.9147-.31 1.484s.11 1.0687.33 1.498c.21.42.51.7467.89.98.38.224.82.336 1.3.336zm6.72.924v-7.476h1.34v7.476zm-1.15-6.412v-1.064h2.49v1.064zm1.52-2.268c-.3 0-.52-.0793-.67-.238-.14-.1587-.21-.3593-.21-.602s.07-.4433.21-.602c.15-.1587.37-.238.67-.238s.52.0793.66.238c.15.1587.23.3593.23.602s-.08.4433-.23.602c-.14.1587-.36.238-.66.238zm6.02 8.904c-.98 0-1.74-.21-2.28-.63s-.81-.994-.83-1.722h1.26c.02.2893.16.5647.43.826.28.252.76.378 1.42.378.6 0 1.05-.1167 1.37-.35.32-.2427.48-.5367.48-.882 0-.308-.12-.546-.35-.714-.24-.1773-.62-.294-1.14-.35l-.81-.084c-.71-.0747-1.29-.2847-1.74-.63-.44-.3547-.67-.8493-.67-1.484 0-.476.12-.882.37-1.218.24-.3453.57-.6067 1-.784.43-.1867.93-.28 1.49-.28.84 0 1.52.1867 2.04.56s.8.9287.81 1.666h-1.26c-.01-.2987-.15-.5507-.42-.756-.26-.2147-.65-.322-1.17-.322s-.92.1073-1.19.322-.41.4853-.41.812c0 .28.1.504.28.672.2.168.52.2753.95.322l.82.084c.8.084 1.44.308 1.93.672.48.3547.73.8587.73 1.512 0 .4667-.14.882-.41 1.246-.26.3547-.63.6347-1.09.84-.47.196-1.01.294-1.61.294zm7.97-.14c-.56 0-1.05-.0793-1.46-.238-.4-.1587-.71-.4293-.94-.812-.21-.392-.32-.9193-.32-1.582v-7.196h1.29v7.364c0 .4013.11.714.32.938.22.2147.54.322.94.322h1.31v1.204zm-4.01-6.552v-1.008h5.15v1.008zm7.42 6.468v-7.476h1.34v7.476zm-1.15-6.412v-1.064h2.49v1.064zm1.53-2.268c-.3 0-.53-.0793-.68-.238-.14-.1587-.21-.3593-.21-.602s.07-.4433.21-.602c.15-.1587.38-.238.68-.238s.51.0793.65.238c.15.1587.23.3593.23.602s-.08.4433-.23.602c-.14.1587-.35.238-.65.238zm3.56 8.68v-7.476h1.07v3.206h-.17c0-.7373.1-1.358.29-1.862.21-.5133.51-.9007.93-1.162.41-.2707.92-.406 1.55-.406h.06c.94 0 1.63.294 2.08.882.46.588.69 1.4373.69 2.548v4.27h-1.35v-4.55c0-.5787-.16-1.0407-.49-1.386-.32-.3547-.77-.532-1.34-.532-.59 0-1.06.182-1.43.546-.36.364-.54.8493-.54 1.456v4.466zm12.16.252c-.64 0-1.2-.112-1.68-.336-.46-.224-.85-.5227-1.16-.896-.31-.3827-.54-.8027-.7-1.26-.15-.4573-.22-.9147-.22-1.372v-.252c0-.476.07-.9427.22-1.4.16-.4573.39-.868.7-1.232.32-.3733.71-.672 1.18-.896.46-.224 1.01-.336 1.63-.336.63 0 1.19.1167 1.68.35.51.2333.91.5647 1.21.994.31.42.48.9193.52 1.498h-1.29c-.07-.4667-.28-.854-.65-1.162-.36-.3173-.85-.476-1.47-.476-.53 0-.97.1213-1.33.364-.35.2427-.62.574-.79.994-.18.42-.27.896-.27 1.428 0 .5133.09.9847.27 1.414.17.42.44.756.79 1.008.37.2427.82.364 1.36.364.42 0 .79-.0747 1.09-.224.31-.1493.56-.35.75-.602.18-.252.3-.5367.33-.854h1.29c-.03.588-.2 1.0967-.52 1.526-.31.4293-.72.7653-1.23 1.008-.5.2333-1.07.35-1.71.35zm8.2-.168c-.56 0-1.05-.0793-1.46-.238-.4-.1587-.71-.4293-.94-.812-.21-.392-.32-.9193-.32-1.582v-7.196h1.29v7.364c0 .4013.11.714.32.938.23.2147.54.322.94.322h1.32v1.204zm-4.01-6.552v-1.008h5.16v1.008zm-254.944 26.72c-.653 0-1.218-.112-1.694-.336s-.863-.518-1.162-.882c-.299-.3733-.523-.7887-.672-1.246-.14-.4573-.21-.924-.21-1.4v-.252c0-.4853.07-.9567.21-1.414.149-.4573.373-.868.672-1.232.299-.3733.677-.6673 1.134-.882.467-.224 1.013-.336 1.638-.336.812 0 1.479.1773 2.002.532.532.3453.924.7933 1.176 1.344.261.5507.392 1.1387.392 1.764v.602h-6.636v-1.008h5.656l-.308.546c0-.532-.084-.9893-.252-1.372-.168-.392-.42-.6953-.756-.91s-.761-.322-1.274-.322c-.532 0-.975.1213-1.33.364-.345.2427-.607.574-.784.994-.168.42-.252.9053-.252 1.456 0 .532.084 1.0127.252 1.442.177.42.448.756.812 1.008.364.2427.826.364 1.386.364.588 0 1.064-.1307 1.428-.392.373-.2613.597-.5647.672-.91h1.26c-.103.5133-.308.9567-.616 1.33s-.695.658-1.162.854-.994.294-1.582.294zm5.394-.252v-7.476h1.064v3.206h-.168c0-.7373.098-1.358.294-1.862.206-.5133.514-.9007.924-1.162.411-.2707.929-.406 1.554-.406h.056c.943 0 1.638.294 2.086.882.458.588.686 1.4373.686 2.548v4.27h-1.344v-4.55c0-.5787-.163-1.0407-.49-1.386-.326-.3547-.774-.532-1.344-.532-.588 0-1.064.182-1.428.546s-.546.8493-.546 1.456v4.466zm11.867.084c-.56 0-1.045-.0793-1.456-.238-.401-.1587-.714-.4293-.938-.812-.214-.392-.322-.9193-.322-1.582v-7.196h1.288v7.364c0 .4013.108.714.322.938.224.2147.537.322.938.322h1.316v1.204zm-4.004-6.552v-1.008h5.152v1.008zm7.417 6.468v-7.476h1.344v7.476zm-1.148-6.412v-1.064h2.492v1.064zm1.526-2.268c-.298 0-.522-.0793-.672-.238-.14-.1587-.21-.3593-.21-.602s.07-.4433.21-.602c.15-.1587.374-.238.672-.238.299 0 .518.0793.658.238.15.1587.224.3593.224.602s-.074.4433-.224.602c-.14.1587-.359.238-.658.238zm6.477 8.764c-.56 0-1.045-.0793-1.456-.238-.401-.1587-.714-.4293-.938-.812-.215-.392-.322-.9193-.322-1.582v-7.196h1.288v7.364c0 .4013.107.714.322.938.224.2147.537.322.938.322h1.316v1.204zm-4.004-6.552v-1.008h5.152v1.008zm7.417 6.468v-7.476h1.344v7.476zm-1.148-6.412v-1.064h2.492v1.064zm1.526-2.268c-.299 0-.523-.0793-.672-.238-.14-.1587-.21-.3593-.21-.602s.07-.4433.21-.602c.149-.1587.373-.238.672-.238s.518.0793.658.238c.149.1587.224.3593.224.602s-.075.4433-.224.602c-.14.1587-.359.238-.658.238zm6.743 8.932c-.654 0-1.218-.112-1.694-.336s-.864-.518-1.162-.882c-.299-.3733-.523-.7887-.672-1.246-.14-.4573-.21-.924-.21-1.4v-.252c0-.4853.07-.9567.21-1.414.149-.4573.373-.868.672-1.232.298-.3733.676-.6673 1.134-.882.466-.224 1.012-.336 1.638-.336.812 0 1.479.1773 2.002.532.532.3453.924.7933 1.176 1.344.261.5507.392 1.1387.392 1.764v.602h-6.636v-1.008h5.656l-.308.546c0-.532-.084-.9893-.252-1.372-.168-.392-.42-.6953-.756-.91s-.761-.322-1.274-.322c-.532 0-.976.1213-1.33.364-.346.2427-.607.574-.784.994-.168.42-.252.9053-.252 1.456 0 .532.084 1.0127.252 1.442.177.42.448.756.812 1.008.364.2427.826.364 1.386.364.588 0 1.064-.1307 1.428-.392.373-.2613.597-.5647.672-.91h1.26c-.103.5133-.308.9567-.616 1.33s-.696.658-1.162.854c-.467.196-.994.294-1.582.294zm7.844-.028c-.98 0-1.741-.21-2.282-.63-.532-.42-.808-.994-.826-1.722h1.26c.018.2893.163.5647.434.826.28.252.751.378 1.414.378.597 0 1.054-.1167 1.372-.35.317-.2427.476-.5367.476-.882 0-.308-.117-.546-.35-.714-.234-.1773-.612-.294-1.134-.35l-.812-.084c-.71-.0747-1.288-.2847-1.736-.63-.448-.3547-.672-.8493-.672-1.484 0-.476.121-.882.364-1.218.242-.3453.578-.6067 1.008-.784.429-.1867.924-.28 1.484-.28.84 0 1.521.1867 2.044.56.522.3733.793.9287.812 1.666h-1.26c-.01-.2987-.15-.5507-.42-.756-.262-.2147-.654-.322-1.176-.322-.523 0-.92.1073-1.19.322-.271.2147-.406.4853-.406.812 0 .28.093.504.28.672.196.168.513.2753.952.322l.812.084c.802.084 1.446.308 1.932.672.485.3547.728.8587.728 1.512 0 .4667-.136.882-.406 1.246-.262.3547-.626.6347-1.092.84-.467.196-1.004.294-1.61.294zm11.447.028c-.64 0-1.2-.112-1.68-.336-.47-.224-.85-.5227-1.16-.896-.31-.3827-.54-.8027-.7-1.26-.15-.4573-.23-.9147-.23-1.372v-.252c0-.476.08-.9427.23-1.4.16-.4573.39-.868.7-1.232.32-.3733.71-.672 1.17-.896.47-.224 1.02-.336 1.64-.336.63 0 1.19.1167 1.68.35.51.2333.91.5647 1.21.994.3.42.48.9193.51 1.498h-1.28c-.07-.4667-.28-.854-.65-1.162-.36-.3173-.85-.476-1.47-.476-.53 0-.97.1213-1.33.364-.35.2427-.62.574-.8.994-.17.42-.26.896-.26 1.428 0 .5133.09.9847.26 1.414.18.42.45.756.8 1.008.37.2427.82.364 1.36.364.42 0 .78-.0747 1.09-.224s.56-.35.74-.602c.19-.252.3-.5367.34-.854h1.29c-.03.588-.2 1.0967-.52 1.526-.31.4293-.72.7653-1.23 1.008-.51.2333-1.08.35-1.71.35zm8.73 0c-.65 0-1.23-.112-1.72-.336-.5-.224-.92-.518-1.26-.882-.34-.3733-.6-.7887-.77-1.246s-.26-.924-.26-1.4v-.252c0-.476.09-.9427.27-1.4.18-.4667.44-.882.78-1.246.35-.3733.77-.6673 1.26-.882.5-.224 1.06-.336 1.7-.336.63 0 1.2.112 1.69.336.5.2147.92.5087 1.26.882.35.364.61.7793.79 1.246.17.4573.26.924.26 1.4v.252c0 .476-.09.9427-.26 1.4s-.43.8727-.77 1.246c-.34.364-.75.658-1.25.882-.49.224-1.07.336-1.72.336zm0-1.204c.56 0 1.03-.1213 1.43-.364.4-.252.7-.588.91-1.008s.32-.8913.32-1.414c0-.532-.11-1.008-.32-1.428-.22-.42-.53-.7513-.93-.994-.39-.2427-.86-.364-1.41-.364-.54 0-1.01.1213-1.42.364-.4.2427-.7.574-.92.994-.21.42-.32.896-.32 1.428 0 .5227.1.994.31 1.414s.51.756.91 1.008c.4.2427.88.364 1.44.364zm6.02.952v-7.476h1.06v3.206h-.17c0-.728.09-1.344.28-1.848.2-.5133.49-.9053.87-1.176s.87-.406 1.46-.406h.05c.59 0 1.07.1353 1.46.406s.68.6627.87 1.176c.18.504.28 1.12.28 1.848h-.4c0-.728.1-1.344.3-1.848.19-.5133.48-.9053.87-1.176s.88-.406 1.47-.406h.05c.59 0 1.08.1353 1.47.406s.68.6627.87 1.176c.2.504.29 1.12.29 1.848v4.27h-1.34v-4.564c0-.6067-.15-1.0733-.45-1.4-.3-.336-.71-.504-1.24-.504-.56 0-1 .1773-1.33.532-.34.3453-.51.8307-.51 1.456v4.48h-1.34v-4.564c0-.6067-.15-1.0733-.45-1.4-.3-.336-.71-.504-1.25-.504-.55 0-.99.1773-1.33.532-.33.3453-.5.8307-.5 1.456v4.48zm13.91 0v-7.476h1.34v7.476zm-1.15-6.412v-1.064h2.49v1.064zm1.53-2.268c-.3 0-.53-.0793-.68-.238-.14-.1587-.21-.3593-.21-.602s.07-.4433.21-.602c.15-.1587.38-.238.68-.238.29 0 .51.0793.65.238.15.1587.23.3593.23.602s-.08.4433-.23.602c-.14.1587-.36.238-.65.238zm3.56 8.68v-7.476h1.06v3.206h-.16c0-.7373.09-1.358.29-1.862.21-.5133.51-.9007.92-1.162.42-.2707.93-.406 1.56-.406h.05c.95 0 1.64.294 2.09.882.46.588.69 1.4373.69 2.548v4.27h-1.35v-4.55c0-.5787-.16-1.0407-.49-1.386-.32-.3547-.77-.532-1.34-.532-.59 0-1.07.182-1.43.546s-.55.8493-.55 1.456v4.466zm11.78 2.912c-.34 0-.69-.014-1.05-.042-.34-.028-.67-.0653-.99-.112v-1.134c.34.0467.69.084 1.05.112.37.0373.72.056 1.05.056.68 0 1.22-.0933 1.62-.28.41-.1773.71-.462.89-.854.18-.3827.28-.8773.28-1.484v-1.428l.44-1.064c-.02.756-.18 1.386-.47 1.89-.29.4947-.67.868-1.14 1.12-.45.2427-.96.364-1.52.364-.52 0-1.01-.098-1.44-.294-.43-.2053-.81-.4853-1.12-.84s-.55-.7607-.73-1.218c-.17-.4667-.25-.9567-.25-1.47v-.252c0-.5227.08-1.008.26-1.456.18-.4573.43-.854.74-1.19.32-.336.7-.5973 1.14-.784.45-.1867.94-.28 1.47-.28.62 0 1.17.1353 1.65.406.48.2613.85.6487 1.12 1.162.28.504.43 1.1247.46 1.862l-.39.014v-3.192h1.06v6.594c0 .896-.14 1.6193-.42 2.17-.27.56-.71.9707-1.31 1.232s-1.4.392-2.4.392zm.41-4.088c.45 0 .85-.098 1.22-.294s.67-.476.88-.84c.22-.3733.34-.8167.34-1.33v-.644c0-.504-.12-.9287-.35-1.274s-.52-.6067-.89-.784c-.36-.1773-.76-.266-1.19-.266-.48 0-.91.112-1.28.336-.38.224-.67.5413-.87.952-.21.4013-.31.8773-.31 1.428s.1 1.0313.31 1.442.5.728.87.952c.37.2147.79.322 1.27.322zm12.31 1.26c-.56 0-1.04-.0793-1.46-.238-.4-.1587-.71-.4293-.93-.812-.22-.392-.33-.9193-.33-1.582v-7.196h1.29v7.364c0 .4013.11.714.32.938.23.2147.54.322.94.322h1.32v1.204zm-4-6.552v-1.008h5.15v1.008zm10.44 6.72c-.65 0-1.23-.112-1.72-.336-.5-.224-.92-.518-1.26-.882-.34-.3733-.6-.7887-.77-1.246s-.26-.924-.26-1.4v-.252c0-.476.09-.9427.27-1.4.18-.4667.44-.882.78-1.246.35-.3733.77-.6673 1.26-.882.5-.224 1.06-.336 1.7-.336.63 0 1.2.112 1.69.336.5.2147.92.5087 1.26.882.35.364.61.7793.79 1.246.17.4573.26.924.26 1.4v.252c0 .476-.09.9427-.26 1.4s-.43.8727-.77 1.246c-.34.364-.75.658-1.25.882-.49.224-1.07.336-1.72.336zm0-1.204c.56 0 1.03-.1213 1.43-.364.4-.252.7-.588.91-1.008s.32-.8913.32-1.414c0-.532-.11-1.008-.32-1.428-.22-.42-.53-.7513-.93-.994-.39-.2427-.86-.364-1.41-.364-.54 0-1.01.1213-1.42.364-.4.2427-.7.574-.92.994-.21.42-.32.896-.32 1.428 0 .5227.1.994.31 1.414s.51.756.91 1.008c.4.2427.88.364 1.44.364zm8.84 3.864c-.34 0-.69-.014-1.05-.042-.34-.028-.67-.0653-.99-.112v-1.134c.34.0467.69.084 1.05.112.37.0373.72.056 1.05.056.68 0 1.22-.0933 1.62-.28.41-.1773.71-.462.89-.854.18-.3827.28-.8773.28-1.484v-1.428l.44-1.064c-.02.756-.18 1.386-.47 1.89-.29.4947-.67.868-1.14 1.12-.45.2427-.96.364-1.52.364-.52 0-1.01-.098-1.44-.294-.43-.2053-.81-.4853-1.12-.84s-.55-.7607-.73-1.218c-.17-.4667-.25-.9567-.25-1.47v-.252c0-.5227.08-1.008.26-1.456.18-.4573.43-.854.74-1.19.32-.336.7-.5973 1.14-.784.45-.1867.94-.28 1.47-.28.62 0 1.17.1353 1.65.406.48.2613.85.6487 1.12 1.162.28.504.43 1.1247.46 1.862l-.39.014v-3.192h1.06v6.594c0 .896-.14 1.6193-.42 2.17-.27.56-.71.9707-1.31 1.232s-1.4.392-2.4.392zm.41-4.088c.45 0 .85-.098 1.22-.294s.67-.476.88-.84c.22-.3733.34-.8167.34-1.33v-.644c0-.504-.12-.9287-.35-1.274s-.52-.6067-.89-.784c-.36-.1773-.76-.266-1.19-.266-.48 0-.91.112-1.28.336-.38.224-.67.5413-.87.952-.21.4013-.31.8773-.31 1.428s.1 1.0313.31 1.442.5.728.87.952c.37.2147.79.322 1.27.322zm9.39 1.428c-.65 0-1.22-.112-1.69-.336-.48-.224-.87-.518-1.16-.882-.3-.3733-.53-.7887-.68-1.246-.14-.4573-.21-.924-.21-1.4v-.252c0-.4853.07-.9567.21-1.414.15-.4573.38-.868.68-1.232.29-.3733.67-.6673 1.13-.882.47-.224 1.01-.336 1.64-.336.81 0 1.48.1773 2 .532.53.3453.92.7933 1.18 1.344s.39 1.1387.39 1.764v.602h-6.64v-1.008h5.66l-.31.546c0-.532-.08-.9893-.25-1.372-.17-.392-.42-.6953-.76-.91-.33-.2147-.76-.322-1.27-.322-.53 0-.98.1213-1.33.364s-.61.574-.79.994c-.16.42-.25.9053-.25 1.456 0 .532.09 1.0127.25 1.442.18.42.45.756.82 1.008.36.2427.82.364 1.38.364.59 0 1.07-.1307 1.43-.392.37-.2613.6-.5647.67-.91h1.26c-.1.5133-.31.9567-.61 1.33-.31.3733-.7.658-1.17.854-.46.196-.99.294-1.58.294zm8.31-.168c-.56 0-1.05-.0793-1.46-.238-.4-.1587-.71-.4293-.94-.812-.21-.392-.32-.9193-.32-1.582v-7.196h1.29v7.364c0 .4013.11.714.32.938.23.2147.54.322.94.322h1.32v1.204zm-4.01-6.552v-1.008h5.16v1.008zm7.06 6.468v-10.22h1.34v6.104h-.34c0-.7373.1-1.372.28-1.904.2-.5413.5-.9567.9-1.246s.92-.434 1.54-.434h.06c.89 0 1.57.2987 2.03.896.45.588.68 1.4327.68 2.534v4.27h-1.34v-4.55c0-.6067-.17-1.078-.52-1.414-.34-.336-.77-.504-1.32-.504-.59 0-1.07.2007-1.44.602-.35.392-.53.91-.53 1.554v4.312zm12.13.252c-.65 0-1.22-.112-1.69-.336-.48-.224-.87-.518-1.17-.882-.3-.3733-.52-.7887-.67-1.246-.14-.4573-.21-.924-.21-1.4v-.252c0-.4853.07-.9567.21-1.414.15-.4573.37-.868.67-1.232.3-.3733.68-.6673 1.14-.882.46-.224 1.01-.336 1.64-.336.81 0 1.47.1773 2 .532.53.3453.92.7933 1.17 1.344.26.5507.4 1.1387.4 1.764v.602h-6.64v-1.008h5.66l-.31.546c0-.532-.09-.9893-.25-1.372-.17-.392-.42-.6953-.76-.91s-.76-.322-1.27-.322c-.54 0-.98.1213-1.33.364s-.61.574-.79.994c-.17.42-.25.9053-.25 1.456 0 .532.08 1.0127.25 1.442.18.42.45.756.81 1.008.37.2427.83.364 1.39.364.59 0 1.06-.1307 1.43-.392s.59-.5647.67-.91h1.26c-.1.5133-.31.9567-.62 1.33-.3.3733-.69.658-1.16.854s-.99.294-1.58.294zm5.39-.252v-7.476h1.07v3.08h-.06c0-1.092.24-1.89.72-2.394.48-.5133 1.2-.77 2.17-.77h.25v1.204h-.48c-.74 0-1.32.2007-1.72.602-.4.392-.6.9613-.6 1.708v4.046zm11.84.084c-.56 0-1.04-.0793-1.45-.238-.4-.1587-.72-.4293-.94-.812-.22-.392-.32-.9193-.32-1.582v-7.196h1.29v7.364c0 .4013.1.714.32.938.22.2147.53.322.94.322h1.31v1.204zm-4-6.552v-1.008h5.15v1.008zm10.44 6.72c-.65 0-1.23-.112-1.72-.336s-.91-.518-1.26-.882c-.34-.3733-.59-.7887-.77-1.246-.17-.4573-.25-.924-.25-1.4v-.252c0-.476.09-.9427.26-1.4.18-.4667.44-.882.79-1.246.34-.3733.76-.6673 1.26-.882.49-.224 1.06-.336 1.69-.336.64 0 1.2.112 1.7.336.49.2147.91.5087 1.26.882.34.364.6.7793.78 1.246.18.4573.27.924.27 1.4v.252c0 .476-.09.9427-.27 1.4-.17.4573-.42.8727-.77 1.246-.34.364-.75.658-1.25.882-.49.224-1.06.336-1.72.336zm0-1.204c.56 0 1.04-.1213 1.43-.364.4-.252.7-.588.91-1.008s.32-.8913.32-1.414c0-.532-.11-1.008-.32-1.428s-.52-.7513-.92-.994-.87-.364-1.42-.364c-.54 0-1.01.1213-1.41.364s-.71.574-.93.994c-.21.42-.32.896-.32 1.428 0 .5227.1.994.31 1.414s.52.756.91 1.008c.4.2427.88.364 1.44.364zm9.4.952v-7.854c0-.8307.22-1.442.66-1.834s1.08-.588 1.93-.588h.92v1.12h-1.14c-.35 0-.62.098-.8.294-.19.1867-.28.448-.28.784v8.078zm-1.04-6.384v-1.008h4.69v1.008zm9.54 6.636c-.66 0-1.23-.112-1.72-.336-.5-.224-.92-.518-1.26-.882-.34-.3733-.6-.7887-.77-1.246s-.26-.924-.26-1.4v-.252c0-.476.09-.9427.27-1.4.18-.4667.44-.882.78-1.246.35-.3733.77-.6673 1.26-.882.5-.224 1.06-.336 1.7-.336.63 0 1.2.112 1.69.336.5.2147.92.5087 1.26.882.35.364.61.7793.79 1.246.17.4573.26.924.26 1.4v.252c0 .476-.09.9427-.26 1.4s-.43.8727-.77 1.246c-.34.364-.76.658-1.25.882s-1.07.336-1.72.336zm0-1.204c.56 0 1.03-.1213 1.43-.364.4-.252.7-.588.91-1.008s.32-.8913.32-1.414c0-.532-.11-1.008-.32-1.428-.22-.42-.53-.7513-.93-.994-.39-.2427-.86-.364-1.41-.364-.54 0-1.01.1213-1.42.364-.4.2427-.71.574-.92.994s-.32.896-.32 1.428c0 .5227.1.994.31 1.414s.51.756.91 1.008c.4.2427.88.364 1.44.364zm6.02.952v-7.476h1.06v3.08h-.06c0-1.092.24-1.89.72-2.394.48-.5133 1.21-.77 2.17-.77h.25v1.204h-.48c-.74 0-1.32.2007-1.72.602-.4.392-.6.9613-.6 1.708v4.046zm5.74 0v-7.476h1.06v3.206h-.17c0-.728.1-1.344.28-1.848.2-.5133.49-.9053.87-1.176s.87-.406 1.46-.406h.05c.59 0 1.08.1353 1.46.406.39.2707.68.6627.87 1.176.18.504.28 1.12.28 1.848h-.39c0-.728.09-1.344.29-1.848.2-.5133.48-.9053.87-1.176s.88-.406 1.47-.406h.05c.59 0 1.08.1353 1.47.406.4.2707.68.6627.87 1.176.2.504.3 1.12.3 1.848v4.27h-1.35v-4.564c0-.6067-.15-1.0733-.45-1.4-.3-.336-.71-.504-1.24-.504-.55 0-1 .1773-1.33.532-.34.3453-.51.8307-.51 1.456v4.48h-1.34v-4.564c0-.6067-.15-1.0733-.45-1.4-.3-.336-.71-.504-1.24-.504-.56 0-1 .1773-1.33.532-.34.3453-.51.8307-.51 1.456v4.48zm21.25 0v-2.24h-.22v-2.59c0-.5133-.14-.9007-.41-1.162-.26-.2613-.64-.392-1.16-.392-.29 0-.59.0047-.89.014-.31.0093-.61.0187-.89.028s-.52.0233-.72.042v-1.176c.2-.0187.42-.0327.64-.042.23-.0187.47-.028.71-.028.25-.0093.48-.014.7-.014.77 0 1.39.0933 1.88.28.49.1773.84.4713 1.08.882.23.4107.35.966.35 1.666v4.732zm-2.45.196c-.56 0-1.04-.0933-1.45-.28-.4-.196-.72-.476-.94-.84-.21-.364-.32-.8027-.32-1.316 0-.532.11-.9753.35-1.33s.59-.6207 1.05-.798c.46-.1867 1.01-.28 1.65-.28h2.03v1.008h-2.09c-.54 0-.95.1307-1.24.392s-.44.5973-.44 1.008.15.742.44.994.7.378 1.24.378c.32 0 .62-.056.91-.168.29-.1213.53-.3173.72-.588.19-.28.3-.6627.32-1.148l.36.532c-.04.532-.17.98-.39 1.344-.2.3547-.49.6253-.87.812-.36.1867-.8.28-1.33.28zm13.12.056c-.62 0-1.17-.1353-1.65-.406s-.86-.6627-1.14-1.176c-.28-.5227-.43-1.148-.46-1.876h.36v3.206h-1.06v-10.22h1.34v4.97l-.47 1.022c.04-.812.2-1.4747.49-1.988s.67-.8913 1.13-1.134c.48-.252 1-.378 1.57-.378.53 0 1.02.1027 1.46.308.43.196.81.4713 1.13.826.32.3453.56.7513.73 1.218.17.4573.25.952.25 1.484v.252c0 .532-.09 1.0313-.27 1.498-.16.4667-.41.882-.74 1.246-.32.3547-.72.6347-1.17.84s-.95.308-1.5.308zm-.16-1.176c.51 0 .95-.1213 1.32-.364s.66-.574.87-.994c.2-.4293.31-.924.31-1.484s-.11-1.05-.33-1.47c-.2-.42-.49-.742-.86-.966-.38-.2333-.81-.35-1.31-.35-.44 0-.86.1027-1.24.308-.38.196-.69.4853-.93.868-.22.3733-.33.826-.33 1.358v.644c0 .5133.11.952.35 1.316.23.364.54.644.92.84s.8.294 1.23.294zm9.31 1.176c-.66 0-1.23-.112-1.73-.336-.49-.224-.91-.518-1.26-.882-.33-.3733-.59-.7887-.77-1.246-.16-.4573-.25-.924-.25-1.4v-.252c0-.476.09-.9427.27-1.4.18-.4667.44-.882.78-1.246.35-.3733.77-.6673 1.26-.882.5-.224 1.06-.336 1.7-.336.63 0 1.2.112 1.69.336.49.2147.91.5087 1.26.882.35.364.61.7793.78 1.246.18.4573.27.924.27 1.4v.252c0 .476-.09.9427-.27 1.4-.16.4573-.42.8727-.77 1.246-.33.364-.75.658-1.24.882-.5.224-1.07.336-1.72.336zm0-1.204c.56 0 1.03-.1213 1.42-.364.41-.252.71-.588.91-1.008.22-.42.33-.8913.33-1.414 0-.532-.11-1.008-.33-1.428-.21-.42-.52-.7513-.92-.994-.39-.2427-.86-.364-1.41-.364s-1.02.1213-1.42.364-.71.574-.92.994c-.22.42-.32.896-.32 1.428 0 .5227.1.994.3 1.414.22.42.52.756.91 1.008.41.2427.89.364 1.45.364zm6.01.952v-7.476h1.07v3.206h-.17c0-.7373.1-1.358.29-1.862.21-.5133.52-.9007.93-1.162.41-.2707.93-.406 1.55-.406h.06c.94 0 1.64.294 2.08.882.46.588.69 1.4373.69 2.548v4.27h-1.34v-4.55c0-.5787-.17-1.0407-.49-1.386-.33-.3547-.78-.532-1.35-.532-.59 0-1.06.182-1.43.546-.36.364-.54.8493-.54 1.456v4.466zm12.08.252c-.53 0-1.02-.098-1.47-.294s-.84-.4713-1.18-.826c-.32-.3547-.58-.7653-.77-1.232-.17-.4667-.26-.9707-.26-1.512v-.252c0-.532.09-1.0313.26-1.498.18-.4667.43-.8773.75-1.232s.71-.63 1.14-.826c.45-.2053.95-.308 1.49-.308.57 0 1.09.1213 1.55.364.47.2333.85.602 1.15 1.106s.47 1.1573.5 1.96l-.56-.896v-5.026h1.35v10.22h-1.07v-3.318h.4c-.04.8493-.22 1.54-.54 2.072-.31.5227-.71.9053-1.2 1.148-.48.2333-.99.35-1.54.35zm.18-1.176c.46 0 .87-.1027 1.25-.308.37-.2053.67-.4993.89-.882.23-.392.34-.8493.34-1.372v-.644c0-.5133-.12-.9473-.35-1.302-.22-.364-.53-.6393-.91-.826-.37-.196-.78-.294-1.23-.294-.5 0-.94.1167-1.32.35-.37.2333-.67.56-.88.98s-.31.9147-.31 1.484.11 1.0687.32 1.498c.22.42.52.7467.9.98.38.224.82.336 1.3.336zm6.08.924v-1.708h1.63v1.708z" fill="#a19db6"/><path d="m1238.78 741.266c-.81 0-1.49-.131-2.05-.392-.56-.271-1.01-.635-1.37-1.092-.35-.467-.62-.999-.78-1.596-.16-.607-.24-1.241-.24-1.904v-.784c0-.943.16-1.792.47-2.548.32-.756.81-1.353 1.46-1.792.65-.448 1.49-.672 2.51-.672 1 0 1.84.224 2.49.672.65.439 1.13 1.036 1.44 1.792.32.756.48 1.605.48 2.548v.784c0 .663-.09 1.297-.26 1.904-.15.597-.41 1.129-.77 1.596-.34.457-.79.821-1.35 1.092-.56.261-1.24.392-2.03.392zm0-1.82c.83 0 1.44-.285 1.83-.854.39-.579.59-1.475.59-2.688 0-1.288-.2-2.207-.6-2.758-.4-.56-1.01-.84-1.82-.84-.82 0-1.44.28-1.85.84-.4.551-.6 1.461-.6 2.73 0 1.223.2 2.123.6 2.702s1.02.868 1.85.868zm7.86 1.554v-8.988l.62.476h-2.7v-1.708h4.06v10.22z" fill="#2c245e"/><path d="m56.8147 66.74v7.9534c.0055.2093-.0511.4153-.1623.5909s-.2717.3126-.4603.3927c-.1887.0802-.3966.0998-.5964.0563-.1997-.0435-.3819-.1481-.5225-.2999l-3.0919-3.1746c-.2261-.232-.3952-.5157-.4934-.8277-.0982-.3121-.1227-.6436-.0714-.9672.0512-.3237.1768-.6302.3663-.8944.1894-.2642.4374-.4784.7235-.6251z" fill="#2c2260"/><path d="m63.6294 51.1824v10.7477c-.0001.3961-.1079.7843-.3111 1.1211-.2033.3368-.4941.6089-.8398.7858l-5.6638 2.903-4.3084 2.2095c-.2852.1469-.5323.361-.7212.6248-.1888.2637-.314.5696-.3652.8925s-.027.6537.0705.9651c.0976.3115.2658.5949.4909.8268l-.2902-.2975c-.5363-.5498-.9616-1.2025-1.2517-1.9207-.2902-.7183-.4395-1.4882-.4394-2.2656v-10.1966c.0001-.3961.1079-.7843.3112-1.1211.2032-.3368.494-.6089.8397-.7858l10.8152-5.5446c.1754-.0894.3702-.1314.5659-.1221.1956.0093.3858.0697.5523.1754.1666.1057.3041.2532.3995.4286.0953.1754.1455.3729.1456.5737z" fill="#69daff"/><path d="m72.481 63.0529-4.3085 2.2199v-7.9637c-.0054-.2093.0512-.4153.1624-.591.1111-.1756.2716-.3125.4603-.3926.1886-.0802.3966-.0998.5963-.0563.1998.0435.382.148.5226.2999l2.8016 2.8719.2902.2976c.2261.2319.3953.5156.4935.8276.0982.3121.1226.6436.0714.9673-.0513.3236-.1768.6301-.3663.8943s-.4375.4784-.7235.6251z" fill="#2c2260"/><path d="m74.9873 64.2225v10.1992c.0003.3965-.1072.7853-.3105 1.1226s-.4944.6098-.8405.7869l-10.8152 5.542c-.1751.0901-.3698.1327-.5656.1238-.1957-.0089-.386-.0689-.5527-.1745-.1667-.1055-.3043-.253-.3997-.4285-.0954-.1754-.1454-.373-.1453-.5738v-10.7478c.0002-.396.1079-.7842.3112-1.121s.4941-.6089.8398-.7858l5.6638-2.8926 4.3084-2.2096c.286-.1467.534-.3609.7235-.6251s.315-.5707.3663-.8944.0268-.6552-.0714-.9672c-.0982-.3121-.2673-.5957-.4934-.8277l.2902.295c1.0802 1.109 1.6881 2.6113 1.6911 4.1785z" fill="#ff86a1"/><g fill="#2c2260"><path d="m92.5036 58.4036c-.8198-.4964-1.7562-.754-2.7082-.7452h-6.7718v16.7814h2.8773v-5.749h3.8945c.9521.0091 1.8885-.2486 2.7082-.7452.8024-.4871 1.4718-1.1742 1.9459-1.9974.4777-.8428.7293-1.8002.7293-2.7749s-.2516-1.9321-.7293-2.7749c-.475-.8218-1.1442-1.5078-1.9459-1.9948zm-1.4513 7.0013c-.3817.2322-.8181.353-1.262.3492h-3.8945v-5.1591h3.8945c.444-.0049.8808.116 1.262.3493.3775.2279.6933.549.9187.934.2243.3924.3425.8389.3425 1.2937s-.1182.9013-.3425 1.2937c-.225.3867-.5408.7096-.9187.9392z"/><path d="m101.741 62.2148c-.553.1926-1.078.4597-1.562.7943v-1.1307h-2.8799v12.5615h2.8799v-5.9327c-.007-.651.16-1.2915.482-1.8526.316-.5486.762-1.0062 1.297-1.3298.548-.3302 1.172-.5011 1.807-.4942h1.192v-2.9522h-1.192c-.688-.0021-1.372.1115-2.024.3364z"/><path d="m116.612 63.643c-.568-.5817-1.24-1.0471-1.978-1.3713-.76-.3265-1.575-.4946-2.398-.4946s-1.639.1681-2.398.4946c-1.486.6541-2.671 1.8684-3.309 3.392-.32.778-.484 1.6137-.484 2.458 0 .8442.164 1.6799.484 2.4579.625 1.5288 1.804 2.7494 3.289 3.4049.76.3231 1.575.4895 2.398.4895s1.637-.1664 2.397-.4895c1.494-.6438 2.681-1.8614 3.309-3.392.316-.7791.478-1.6144.478-2.4579s-.162-1.6788-.478-2.458c-.304-.7581-.749-1.4487-1.31-2.0336zm-4.379 7.8965c-.588.0061-1.167-.1541-1.673-.4631-.496-.3014-.91-.7258-1.204-1.2342-.297-.5179-.451-1.1093-.444-1.7102-.006-.6033.147-1.197.444-1.718.291-.5099.706-.934 1.204-1.2315.509-.2984 1.085-.4554 1.671-.4554s1.162.157 1.671.4554c.496.3006.91.7252 1.204 1.2341.295.5199.451 1.111.451 1.7128 0 .6019-.156 1.1929-.451 1.7128-.298.5058-.711.9295-1.204 1.2342-.504.3095-1.081.4698-1.669.4631z"/><path d="m128.296 67.2523c-.724-.3783-1.506-.6269-2.312-.7348l-1.716-.2251c-.415-.0377-.818-.1628-1.184-.3674-.28-.1708-.424-.3545-.424-.546 0-.2458.219-.4683.654-.6597 1.098-.4175 2.306-.4175 3.404 0 .435.1914.654.4139.654.6597v.1242h2.966v-.1242c-.002-.7249-.263-1.4242-.732-1.9663-.527-.6128-1.188-1.0896-1.928-1.392-1.71-.6933-3.614-.6933-5.323 0-.741.3024-1.402.7792-1.929 1.392-.469.5421-.73 1.2414-.732 1.9663-.001.6437.206 1.2697.588 1.7801.423.5611.962 1.0189 1.578 1.3403.694.3735 1.451.6105 2.231.6985l1.716.2251c.456.0449.899.1849 1.3.4114.313.1915.47.4011.47.621 0 .2768-.24.5174-.712.7374-1.193.455-2.505.455-3.698 0-.472-.2148-.712-.4606-.712-.7374v-.1216h-2.968v.1138c.002.7475.272 1.4683.757 2.0259.547.6334 1.233 1.124 2.002 1.4308 1.779.7038 3.751.7038 5.53 0 .768-.3074 1.454-.7979 2.001-1.4308.486-.5576.755-1.2784.758-2.0259-.006-.6558-.22-1.2919-.611-1.8111-.435-.5805-.991-1.0535-1.628-1.3842z"/><path d="m143.52 65.63c-.634-1.5263-1.819-2.7419-3.308-3.392-.76-.3264-1.575-.4946-2.398-.4946-.824 0-1.639.1682-2.398.4946-1.486.6542-2.671 1.8684-3.309 3.392-.32.778-.484 1.6137-.484 2.458 0 .8442.164 1.6799.484 2.4579.632 1.5278 1.819 2.744 3.309 3.392.761.3286 1.579.4949 2.405.489.839.0044 1.67-.1719 2.438-.5175.746-.3363 1.423-.8148 1.994-1.41.571-.5931 1.021-1.2967 1.323-2.0699l.066-.1708h-3.284l-.035.044c-.312.3658-.693.6617-1.121.8694-.533.2546-1.123.3594-1.709.3035-.586-.056-1.147-.2705-1.625-.6218-.503-.3706-.896-.8753-1.139-1.4592h9.125l.017-.0984c.081-.3983.122-.804.121-1.2108.006-.8427-.154-1.678-.472-2.4554zm-5.709-.9392c.684-.0067 1.352.2089 1.908.6158.501.3559.895.8478 1.139 1.4204h-6.091c.242-.5708.632-1.0622 1.129-1.4204.558-.4088 1.229-.6245 1.915-.6158z"/></g><path d="m53.926 745.07v-1.596h2.562c.4667 0 .8213-.126 1.064-.378.2427-.261.364-.616.364-1.064s-.1213-.793-.364-1.036c-.2427-.252-.5973-.378-1.064-.378h-2.562v-1.218h2.422c.6813 0 1.288.084 1.82.252.5413.159.9613.429 1.26.812.308.383.462.896.462 1.54v.196c0 .607-.1353 1.125-.406 1.554-.2613.42-.658.747-1.19.98-.5227.224-1.1713.336-1.946.336zm-1.666 0v-10.36h1.946v10.36zm1.666-4.774v-1.218h2.184c.476 0 .826-.126 1.05-.378s.336-.588.336-1.008-.112-.756-.336-1.008-.574-.378-1.05-.378h-2.184v-1.596h2.002c1.1573 0 2.0347.243 2.632.728.6067.485.91 1.181.91 2.086v.196c0 .635-.154 1.143-.462 1.526-.2987.373-.714.644-1.246.812-.532.159-1.1433.238-1.834.238zm7.8187 4.704v-7.602h1.54v3.22h-.042c0-1.092.2333-1.918.7-2.478.4666-.56 1.1526-.84 2.058-.84h.28v1.694h-.532c-.6534 0-1.162.177-1.526.532-.3547.345-.532.849-.532 1.512v3.962zm10.4028 0v-2.254h-.322v-2.506c0-.439-.1073-.765-.322-.98-.2146-.215-.546-.322-.994-.322-.2333 0-.5133.005-.84.014-.3266.009-.658.023-.994.042-.3266.009-.6206.023-.882.042v-1.652c.2147-.019.4574-.037.728-.056.2707-.019.546-.028.826-.028.2894-.009.56-.014.812-.014.784 0 1.4327.103 1.946.308.5227.205.9147.527 1.176.966.2707.439.406 1.013.406 1.722v4.718zm-2.45.196c-.5506 0-1.036-.098-1.456-.294-.4106-.196-.7326-.476-.966-.84-.224-.364-.336-.803-.336-1.316 0-.56.1354-1.017.406-1.372.28-.355.6674-.621 1.162-.798.504-.177 1.092-.266 1.764-.266h1.764v1.162h-1.792c-.448 0-.7933.112-1.036.336-.2333.215-.35.495-.35.84s.1167.625.35.84c.2427.215.588.322 1.036.322.2707 0 .518-.047.742-.14.2334-.103.4247-.271.574-.504.1587-.243.2474-.569.266-.98l.476.546c-.0466.532-.1773.98-.392 1.344-.2053.364-.4946.644-.868.84-.364.187-.812.28-1.344.28zm6.0745-.196v-7.602h1.54v3.262h-.14c0-.775.1027-1.419.308-1.932.2053-.523.5087-.915.91-1.176.4107-.261.9193-.392 1.526-.392h.084c.9053 0 1.5913.294 2.058.882.4667.579.7 1.447.7 2.604v4.354h-1.946v-4.522c0-.467-.1353-.845-.406-1.134-.2613-.289-.6253-.434-1.092-.434-.476 0-.8633.149-1.162.448-.2893.289-.434.681-.434 1.176v4.466zm12.2281.252c-.532 0-1.022-.098-1.47-.294s-.8353-.471-1.162-.826c-.3266-.355-.5786-.765-.756-1.232-.1773-.476-.266-.989-.266-1.54v-.294c0-.541.084-1.05.252-1.526.1774-.476.42-.891.728-1.246.3174-.355.6954-.63 1.134-.826.448-.205.9427-.308 1.484-.308.5974 0 1.12.131 1.568.392.4574.252.8214.635 1.092 1.148.2707.513.42 1.157.448 1.932l-.574-.672v-5.18h1.946v10.22h-1.54v-3.234h.336c-.028.775-.1866 1.423-.476 1.946-.2893.513-.672.901-1.148 1.162-.4666.252-.9986.378-1.596.378zm.434-1.638c.3827 0 .7327-.084 1.05-.252.3174-.177.5694-.429.756-.756.196-.336.294-.728.294-1.176v-.56c0-.448-.098-.821-.294-1.12-.196-.308-.4526-.541-.77-.7-.3173-.168-.6626-.252-1.036-.252-.42 0-.7933.103-1.12.308-.3173.196-.5693.476-.756.84-.1773.364-.266.789-.266 1.274s.0934.91.28 1.274c.1867.355.4387.63.756.826.3267.196.6954.294 1.106.294zm14.1409 1.652c-.878 0-1.652-.145-2.324-.434-.663-.299-1.223-.695-1.6803-1.19-.448-.504-.7887-1.069-1.022-1.694-.224-.635-.336-1.293-.336-1.974v-.308c0-.644.112-1.274.336-1.89s.5507-1.171.98-1.666c.4387-.495.9753-.887 1.6103-1.176.644-.299 1.381-.448 2.212-.448.896 0 1.689.168 2.38.504.69.327 1.246.789 1.666 1.386.42.588.667 1.274.742 2.058h-2.002c-.066-.439-.229-.812-.49-1.12-.262-.317-.593-.56-.994-.728-.392-.168-.826-.252-1.302-.252s-.91.084-1.302.252c-.383.168-.71.406-.98.714-.271.308-.481.677-.6303 1.106-.14.429-.21.905-.21 1.428 0 .569.0793 1.078.238 1.526s.3827.831.6723 1.148c.289.308.639.546 1.05.714.41.159.872.238 1.386.238.681 0 1.278-.14 1.792-.42.513-.289.886-.663 1.12-1.12l-.35 1.61v-2.632h1.834v2.268c-.439.663-1.036 1.181-1.792 1.554-.756.364-1.624.546-2.604.546zm-.322-3.976v-1.484h5.572v1.484zm9.646 3.948c-.877 0-1.559-.289-2.044-.868-.476-.579-.714-1.437-.714-2.576v-4.41h1.946v4.578c0 .467.131.84.392 1.12.261.271.616.406 1.064.406s.812-.145 1.092-.434c.289-.289.434-.681.434-1.176v-4.494h1.946v7.616h-1.54v-3.234h.154c0 .765-.098 1.405-.294 1.918s-.49.901-.882 1.162-.882.392-1.47.392zm6.716-.238v-7.602h1.946v7.602zm-1.064-6.146v-1.456h3.01v1.456zm1.778-2.366c-.383 0-.668-.098-.854-.294-.178-.205-.266-.457-.266-.756 0-.317.088-.574.266-.77.186-.196.471-.294.854-.294.382 0 .662.098.84.294.177.196.266.453.266.77 0 .299-.089.551-.266.756-.178.196-.458.294-.84.294zm6.624 8.764c-.532 0-1.022-.098-1.47-.294s-.835-.471-1.162-.826c-.326-.355-.578-.765-.756-1.232-.177-.476-.266-.989-.266-1.54v-.294c0-.541.084-1.05.252-1.526.178-.476.42-.891.728-1.246.318-.355.696-.63 1.134-.826.448-.205.943-.308 1.484-.308.598 0 1.12.131 1.568.392.458.252.822.635 1.092 1.148.271.513.42 1.157.448 1.932l-.574-.672v-5.18h1.946v10.22h-1.54v-3.234h.336c-.028.775-.186 1.423-.476 1.946-.289.513-.672.901-1.148 1.162-.466.252-.998.378-1.596.378zm.434-1.638c.383 0 .733-.084 1.05-.252.318-.177.57-.429.756-.756.196-.336.294-.728.294-1.176v-.56c0-.448-.098-.821-.294-1.12-.196-.308-.452-.541-.77-.7-.317-.168-.662-.252-1.036-.252-.42 0-.793.103-1.12.308-.317.196-.569.476-.756.84-.177.364-.266.789-.266 1.274s.094.91.28 1.274c.187.355.439.63.756.826.327.196.696.294 1.106.294zm9.607 1.652c-.653 0-1.227-.112-1.722-.336-.485-.224-.891-.523-1.218-.896-.317-.383-.56-.807-.728-1.274-.158-.467-.238-.943-.238-1.428v-.266c0-.504.08-.989.238-1.456.168-.476.411-.896.728-1.26.327-.373.728-.667 1.204-.882.476-.224 1.027-.336 1.652-.336.822 0 1.508.182 2.058.546.56.355.98.826 1.26 1.414.28.579.42 1.204.42 1.876v.7h-6.734v-1.19h5.516l-.602.588c0-.485-.07-.901-.21-1.246s-.354-.611-.644-.798c-.28-.187-.634-.28-1.064-.28-.429 0-.793.098-1.092.294-.298.196-.527.481-.686.854-.149.364-.224.803-.224 1.316 0 .476.075.901.224 1.274.15.364.378.653.686.868.308.205.7.308 1.176.308s.864-.093 1.162-.28c.299-.196.49-.434.574-.714h1.792c-.112.523-.326.98-.644 1.372-.317.392-.723.695-1.218.91-.485.215-1.04.322-1.666.322zm5.378-.266v-10.22h1.946v10.22zm-.952-8.764v-1.456h2.898v1.456zm5.484 8.764v-7.602h1.946v7.602zm-1.064-6.146v-1.456h3.01v1.456zm1.778-2.366c-.383 0-.668-.098-.854-.294-.178-.205-.266-.457-.266-.756 0-.317.088-.574.266-.77.186-.196.471-.294.854-.294.382 0 .662.098.84.294.177.196.266.453.266.77 0 .299-.089.551-.266.756-.178.196-.458.294-.84.294zm3.474 8.512v-7.602h1.54v3.262h-.14c0-.775.103-1.419.308-1.932.206-.523.509-.915.91-1.176.411-.261.92-.392 1.526-.392h.084c.906 0 1.592.294 2.058.882.467.579.7 1.447.7 2.604v4.354h-1.946v-4.522c0-.467-.135-.845-.406-1.134-.261-.289-.625-.434-1.092-.434-.476 0-.863.149-1.162.448-.289.289-.434.681-.434 1.176v4.466zm12.48.266c-.653 0-1.227-.112-1.722-.336-.485-.224-.891-.523-1.218-.896-.317-.383-.56-.807-.728-1.274-.158-.467-.238-.943-.238-1.428v-.266c0-.504.08-.989.238-1.456.168-.476.411-.896.728-1.26.327-.373.728-.667 1.204-.882.476-.224 1.027-.336 1.652-.336.822 0 1.508.182 2.058.546.56.355.98.826 1.26 1.414.28.579.42 1.204.42 1.876v.7h-6.734v-1.19h5.516l-.602.588c0-.485-.07-.901-.21-1.246s-.354-.611-.644-.798c-.28-.187-.634-.28-1.064-.28-.429 0-.793.098-1.092.294-.298.196-.527.481-.686.854-.149.364-.224.803-.224 1.316 0 .476.075.901.224 1.274.15.364.378.653.686.868.308.205.7.308 1.176.308s.864-.093 1.162-.28c.299-.196.49-.434.574-.714h1.792c-.112.523-.326.98-.644 1.372-.317.392-.723.695-1.218.91-.485.215-1.04.322-1.666.322zm8.038-.028c-1.045 0-1.867-.219-2.464-.658-.588-.448-.896-1.064-.924-1.848h1.75c.028.261.173.499.434.714s.672.322 1.232.322c.467 0 .835-.084 1.106-.252.28-.168.42-.397.42-.686 0-.252-.107-.453-.322-.602-.205-.149-.56-.247-1.064-.294l-.672-.07c-.849-.093-1.503-.336-1.96-.728s-.686-.915-.686-1.568c0-.523.131-.961.392-1.316s.621-.621 1.078-.798c.467-.187.999-.28 1.596-.28.933 0 1.689.205 2.268.616s.882 1.013.91 1.806h-1.75c-.019-.261-.149-.485-.392-.672s-.593-.28-1.05-.28c-.411 0-.728.079-.952.238s-.336.364-.336.616c0 .243.089.429.266.56.187.131.485.219.896.266l.672.07c.896.093 1.596.341 2.1.742.513.401.77.943.77 1.624 0 .504-.14.943-.42 1.316-.271.364-.653.649-1.148.854s-1.078.308-1.75.308z" fill="#2c245e"/><path d="m189.104 547.866c-27.324 0-50.37-4.278-69.138-12.834-18.768-8.832-32.982-20.7-42.642-35.604-9.66-15.18-14.49-32.568-14.49-52.164h65.826c0 7.728 2.07 14.904 6.21 21.528 4.416 6.624 11.04 12.006 19.872 16.146 8.832 3.864 20.286 5.796 34.362 5.796 12.696 0 23.322-1.656 31.878-4.968s15.042-7.866 19.458-13.662c4.416-6.072 6.624-12.972 6.624-20.7 0-9.66-4.14-17.25-12.42-22.77-8.28-5.796-21.666-9.522-40.158-11.178l-22.77-2.07c-30.084-2.484-54.096-11.868-72.036-28.152s-26.91-37.812-26.91-64.584c0-19.32 4.554-36.018 13.662-50.094 9.384-14.076 22.356-24.84 38.916-32.292 16.56-7.728 36.156-11.592 58.788-11.592 23.736 0 44.022 4.14 60.858 12.42 17.112 8.004 30.222 19.458 39.33 34.362 9.108 14.628 13.662 31.878 13.662 51.75h-66.24c0-7.452-1.794-14.214-5.382-20.286-3.588-6.348-8.97-11.454-16.146-15.318-6.9-3.864-15.594-5.796-26.082-5.796-9.936 0-18.354 1.656-25.254 4.968-6.624 3.312-11.592 7.866-14.904 13.662-3.312 5.52-4.968 11.592-4.968 18.216 0 8.556 3.036 16.008 9.108 22.356s16.008 10.074 29.808 11.178l23.184 2.07c22.08 1.932 41.538 6.762 58.374 14.49 16.836 7.452 29.946 17.802 39.33 31.05 9.66 12.972 14.49 28.842 14.49 47.61 0 19.32-5.106 36.294-15.318 50.922-9.936 14.352-24.15 25.53-42.642 33.534s-40.572 12.006-66.24 12.006zm277.791 0c-19.872 0-37.536-3.036-52.992-9.108-15.456-6.348-28.566-14.904-39.33-25.668-10.488-10.764-18.492-23.046-24.012-36.846-5.52-14.076-8.28-28.842-8.28-44.298v-9.522c0-15.732 2.76-30.636 8.28-44.712 5.796-14.352 14.076-26.91 24.84-37.674 11.04-10.764 24.288-19.182 39.744-25.254 15.456-6.348 32.706-9.522 51.75-9.522 19.596 0 36.984 3.174 52.164 9.522 15.456 6.072 28.566 14.49 39.33 25.254s19.044 23.322 24.84 37.674c5.796 14.076 8.694 28.98 8.694 44.712v9.522c0 15.456-2.76 30.222-8.28 44.298-5.52 13.8-13.662 26.082-24.426 36.846-10.488 10.764-23.46 19.32-38.916 25.668-15.456 6.072-33.258 9.108-53.406 9.108zm0-55.89c12.972 0 23.736-2.76 32.292-8.28s15.042-13.248 19.458-23.184c4.692-9.936 7.038-20.976 7.038-33.12 0-12.972-2.346-24.288-7.038-33.948-4.692-9.936-11.454-17.802-20.286-23.598-8.556-5.796-19.044-8.694-31.464-8.694-12.144 0-22.632 2.898-31.464 8.694s-15.594 13.662-20.286 23.598c-4.416 9.66-6.624 20.976-6.624 33.948 0 12.144 2.208 23.184 6.624 33.12s11.04 17.664 19.872 23.184 19.458 8.28 31.878 8.28zm171.257 48.024v-226.872h52.578v97.29h-1.242c0-32.016 6.762-56.718 20.286-74.106 13.8-17.388 33.672-26.082 59.616-26.082h8.694v57.132h-16.56c-18.216 0-32.292 4.968-42.228 14.904-9.936 9.66-14.904 23.736-14.904 42.228v115.506zm310.073 0v-67.068h-11.178v-72.864c0-11.592-2.76-20.286-8.28-26.082s-14.352-8.694-26.496-8.694c-6.072 0-14.076.138-24.012.414s-20.148.69-30.636 1.242-20.01 1.104-28.566 1.656v-55.89c6.348-.552 13.8-1.104 22.356-1.656s17.388-.966 26.496-1.242 17.664-.414 25.668-.414c23.184 0 42.642 3.312 58.374 9.936 16.008 6.624 28.152 16.698 36.432 30.222 8.28 13.248 12.417 30.36 12.417 51.336v139.104zm-72.45 5.796c-16.284 0-30.636-2.898-43.056-8.694-12.144-5.796-21.666-14.076-28.566-24.84-6.9-11.04-10.35-24.15-10.35-39.33 0-16.56 4.278-30.084 12.834-40.572 8.556-10.764 20.562-18.63 36.018-23.598 15.456-5.244 33.258-7.866 53.406-7.866h48.438v36.846h-48.852c-11.592 0-20.562 2.898-26.91 8.694-6.072 5.52-9.108 13.11-9.108 22.77 0 9.108 3.036 16.56 9.108 22.356 6.348 5.52 15.318 8.28 26.91 8.28 7.452 0 14.076-1.242 19.872-3.726 6.072-2.76 11.04-7.314 14.904-13.662s6.072-15.18 6.624-26.496l15.732 16.56c-1.38 15.732-5.244 28.98-11.592 39.744-6.072 10.764-14.628 19.044-25.668 24.84-10.764 5.796-24.012 8.694-39.744 8.694z" fill="#2c245e"/></svg>