<svg fill="none" height="800" viewBox="0 0 1300 800" width="1300" xmlns="http://www.w3.org/2000/svg" xmlns:xlink="http://www.w3.org/1999/xlink"><filter id="a" color-interpolation-filters="sRGB" filterUnits="userSpaceOnUse" height="2691.82" width="2782.57" x="-447.97" y="-1325.6"><feFlood flood-opacity="0" result="BackgroundImageFix"/><feBlend in="SourceGraphic" in2="BackgroundImageFix" mode="normal" result="shape"/><feGaussianBlur result="effect1_foregroundBlur_2_28" stdDeviation="164.8"/></filter><clipPath id="b"><path d="m0 0h1300v800h-1300z"/></clipPath><g clip-path="url(#b)"><path d="m0 0h1300v800h-1300z" fill="#fff"/><g filter="url(#a)" opacity=".27"><ellipse cx="809.839" cy="24.9061" fill="#f5f6fa" rx="283.105" ry="277.371"/><ellipse cx="412" cy="412" fill="#fff" rx="292.539" ry="323.066"/><ellipse cx="205.106" cy="110.175" fill="#fff" rx="269.285" ry="273.664"/><ellipse cx="195.751" cy="813.202" fill="#6edbff" rx="314.121" ry="223.421"/><ellipse cx="1312" cy="-369" fill="#ff88a3" rx="693" ry="627"/></g><path d="m681.98 571.45v-11.52h15.39c2.76 0 4.83-.72 6.21-2.16s2.07-3.48 2.07-6.12-.69-4.65-2.07-6.03c-1.38-1.44-3.45-2.16-6.21-2.16h-15.39v-8.91h14.67c4.56 0 8.61.57 12.15 1.71 3.54 1.08 6.33 2.85 8.37 5.31s3.06 5.79 3.06 9.99v1.26c0 3.9-.9 7.26-2.7 10.08-1.8 2.76-4.44 4.89-7.92 6.39-3.48 1.44-7.8 2.16-12.96 2.16zm-12.6 0v-66.69h14.4v66.69zm12.6-30.33v-8.82h12.96c2.82 0 4.86-.72 6.12-2.16s1.89-3.36 1.89-5.76c0-2.52-.63-4.5-1.89-5.94s-3.3-2.16-6.12-2.16h-12.96v-11.52h12.06c7.56 0 13.35 1.59 17.37 4.77 4.08 3.18 6.12 7.71 6.12 13.59v1.35c0 4.08-1.05 7.35-3.15 9.81-2.04 2.46-4.83 4.23-8.37 5.31-3.48 1.02-7.47 1.53-11.97 1.53zm48.904 29.88v-49.32h11.43v21.15h-.27c0-6.96 1.47-12.33 4.41-16.11 3-3.78 7.32-5.67 12.96-5.67h1.89v12.42h-3.6c-3.96 0-7.02 1.08-9.18 3.24-2.16 2.1-3.24 5.16-3.24 9.18v25.11zm67.408 0v-14.58h-2.43v-15.84c0-2.52-.6-4.41-1.8-5.67s-3.12-1.89-5.76-1.89c-1.32 0-3.06.03-5.22.09s-4.38.15-6.66.27-4.35.24-6.21.36v-12.15c1.38-.12 3-.24 4.86-.36s3.78-.21 5.76-.27 3.84-.09 5.58-.09c5.04 0 9.27.72 12.69 2.16 3.48 1.44 6.12 3.63 7.92 6.57 1.8 2.88 2.7 6.6 2.7 11.16v30.24zm-15.75 1.26c-3.54 0-6.66-.63-9.36-1.89-2.64-1.26-4.71-3.06-6.21-5.4-1.5-2.4-2.25-5.25-2.25-8.55 0-3.6.93-6.54 2.79-8.82 1.86-2.34 4.47-4.05 7.83-5.13 3.36-1.14 7.23-1.71 11.61-1.71h10.53v8.01h-10.62c-2.52 0-4.47.63-5.85 1.89-1.32 1.2-1.98 2.85-1.98 4.95 0 1.98.66 3.6 1.98 4.86 1.38 1.2 3.33 1.8 5.85 1.8 1.62 0 3.06-.27 4.32-.81 1.32-.6 2.4-1.59 3.24-2.97s1.32-3.3 1.44-5.76l3.42 3.6c-.3 3.42-1.14 6.3-2.52 8.64-1.32 2.34-3.18 4.14-5.58 5.4-2.34 1.26-5.22 1.89-8.64 1.89zm39.397-1.26v-49.32h11.43v21.15h-.81c0-5.04.63-9.24 1.89-12.6 1.32-3.36 3.3-5.88 5.94-7.56s5.85-2.52 9.63-2.52h.63c5.76 0 10.14 1.89 13.14 5.67 3.06 3.72 4.59 9.39 4.59 17.01v28.17h-14.4v-28.98c0-2.64-.78-4.8-2.34-6.48s-3.66-2.52-6.3-2.52c-2.7 0-4.89.87-6.57 2.61-1.62 1.68-2.43 3.9-2.43 6.66v28.71zm79.051 1.62c-3.48 0-6.66-.63-9.54-1.89-2.82-1.26-5.28-3-7.38-5.22-2.1-2.28-3.72-4.95-4.86-8.01-1.08-3.06-1.62-6.36-1.62-9.9v-2.07c0-3.54.51-6.84 1.53-9.9 1.08-3.06 2.61-5.73 4.59-8.01 2.04-2.34 4.47-4.14 7.29-5.4 2.82-1.32 5.97-1.98 9.45-1.98 3.96 0 7.38.87 10.26 2.61 2.88 1.68 5.13 4.2 6.75 7.56 1.62 3.3 2.52 7.38 2.7 12.24l-3.78-3.51v-33.84h14.49v65.7h-11.43v-20.43h1.98c-.18 4.68-1.17 8.67-2.97 11.97-1.74 3.3-4.11 5.82-7.11 7.56-3 1.68-6.45 2.52-10.35 2.52zm3.6-12.06c2.22 0 4.23-.48 6.03-1.44 1.86-1.02 3.33-2.49 4.41-4.41 1.14-1.92 1.71-4.23 1.71-6.93v-3.33c0-2.64-.57-4.86-1.71-6.66s-2.64-3.18-4.5-4.14-3.87-1.44-6.03-1.44c-2.4 0-4.56.63-6.48 1.89-1.86 1.2-3.33 2.88-4.41 5.04-1.08 2.1-1.62 4.56-1.62 7.38 0 2.88.54 5.37 1.62 7.47s2.58 3.72 4.5 4.86 4.08 1.71 6.48 1.71zm-204.07 120.15c-5.88 0-11.01-.96-15.39-2.88-4.38-1.98-8.01-4.62-10.89-7.92-2.82-3.3-4.92-6.96-6.3-10.98s-2.07-8.04-2.07-12.06v-1.98c0-4.14.69-8.19 2.07-12.15s3.45-7.56 6.21-10.8c2.82-3.24 6.3-5.82 10.44-7.74 4.2-1.92 9.03-2.88 14.49-2.88 5.94 0 11.19 1.11 15.75 3.33 4.56 2.16 8.22 5.19 10.98 9.09 2.76 3.84 4.35 8.31 4.77 13.41h-14.76c-.36-2.4-1.32-4.5-2.88-6.3-1.5-1.8-3.45-3.21-5.85-4.23-2.34-1.02-5.01-1.53-8.01-1.53-2.88 0-5.46.51-7.74 1.53-2.22 1.02-4.14 2.46-5.76 4.32-1.56 1.86-2.76 4.08-3.6 6.66-.78 2.52-1.17 5.31-1.17 8.37 0 3.18.42 6.09 1.26 8.73.9 2.58 2.19 4.83 3.87 6.75 1.68 1.86 3.75 3.3 6.21 4.32 2.52 1.02 5.31 1.53 8.37 1.53 4.08 0 7.62-.84 10.62-2.52s5.16-3.9 6.48-6.66l-1.8 10.08v-15.66h13.59v14.04c-2.82 4.56-6.72 8.07-11.7 10.53-4.92 2.4-10.65 3.6-17.19 3.6zm-1.89-25.29v-10.62h36.18v10.62zm61.561 25.11c-5.7 0-10.08-1.83-13.14-5.49-3.06-3.72-4.59-9.3-4.59-16.74v-28.62h14.4v29.34c0 2.64.75 4.74 2.25 6.3s3.51 2.34 6.03 2.34c2.58 0 4.68-.81 6.3-2.43s2.43-3.81 2.43-6.57v-28.98h14.4v49.32h-11.43v-20.79h.99c0 4.98-.66 9.15-1.98 12.51-1.26 3.3-3.15 5.76-5.67 7.38s-5.64 2.43-9.36 2.43zm43.698-1.53v-49.32h14.4v49.32zm-6.57-38.7v-10.62h20.97v10.62zm12.15-15.48c-2.7 0-4.71-.69-6.03-2.07-1.26-1.44-1.89-3.24-1.89-5.4 0-2.22.63-4.02 1.89-5.4 1.32-1.44 3.33-2.16 6.03-2.16s4.68.72 5.94 2.16c1.32 1.38 1.98 3.18 1.98 5.4 0 2.16-.66 3.96-1.98 5.4-1.26 1.38-3.24 2.07-5.94 2.07zm42.478 55.8c-3.48 0-6.66-.63-9.54-1.89-2.82-1.26-5.28-3-7.38-5.22-2.1-2.28-3.72-4.95-4.86-8.01-1.08-3.06-1.62-6.36-1.62-9.9v-2.07c0-3.54.51-6.84 1.53-9.9 1.08-3.06 2.61-5.73 4.59-8.01 2.04-2.34 4.47-4.14 7.29-5.4 2.82-1.32 5.97-1.98 9.45-1.98 3.96 0 7.38.87 10.26 2.61 2.88 1.68 5.13 4.2 6.75 7.56 1.62 3.3 2.52 7.38 2.7 12.24l-3.78-3.51v-33.84h14.49v65.7h-11.43v-20.43h1.98c-.18 4.68-1.17 8.67-2.97 11.97-1.74 3.3-4.11 5.82-7.11 7.56-3 1.68-6.45 2.52-10.35 2.52zm3.6-12.06c2.22 0 4.23-.48 6.03-1.44 1.86-1.02 3.33-2.49 4.41-4.41 1.14-1.92 1.71-4.23 1.71-6.93v-3.33c0-2.64-.57-4.86-1.71-6.66s-2.64-3.18-4.5-4.14-3.87-1.44-6.03-1.44c-2.4 0-4.56.63-6.48 1.89-1.86 1.2-3.33 2.88-4.41 5.04-1.08 2.1-1.62 4.56-1.62 7.38 0 2.88.54 5.37 1.62 7.47s2.58 3.72 4.5 4.86 4.08 1.71 6.48 1.71zm61.931 12.15c-4.2 0-7.92-.72-11.16-2.16-3.18-1.44-5.85-3.36-8.01-5.76-2.1-2.46-3.72-5.19-4.86-8.19-1.08-3.06-1.62-6.18-1.62-9.36v-1.8c0-3.3.54-6.45 1.62-9.45 1.14-3.06 2.76-5.79 4.86-8.19s4.71-4.29 7.83-5.67c3.18-1.44 6.78-2.16 10.8-2.16 5.28 0 9.72 1.2 13.32 3.6 3.66 2.34 6.45 5.43 8.37 9.27 1.92 3.78 2.88 7.92 2.88 12.42v4.86h-43.65v-8.19h34.92l-4.68 3.78c0-2.94-.42-5.46-1.26-7.56s-2.1-3.69-3.78-4.77c-1.62-1.14-3.66-1.71-6.12-1.71-2.52 0-4.65.57-6.39 1.71s-3.06 2.82-3.96 5.04c-.9 2.16-1.35 4.83-1.35 8.01 0 2.94.42 5.52 1.26 7.74.84 2.16 2.16 3.84 3.96 5.04s4.14 1.8 7.02 1.8c2.64 0 4.8-.51 6.48-1.53s2.82-2.28 3.42-3.78h13.23c-.72 3.3-2.13 6.24-4.23 8.82s-4.74 4.59-7.92 6.03-6.84 2.16-10.98 2.16zm34.202-1.71v-65.7h14.49v65.7zm-5.85-55.08v-10.62h20.34v10.62zm35.949 55.08v-49.32h14.4v49.32zm-6.57-38.7v-10.62h20.97v10.62zm12.15-15.48c-2.7 0-4.71-.69-6.03-2.07-1.26-1.44-1.89-3.24-1.89-5.4 0-2.22.63-4.02 1.89-5.4 1.32-1.44 3.33-2.16 6.03-2.16s4.68.72 5.94 2.16c1.32 1.38 1.98 3.18 1.98 5.4 0 2.16-.66 3.96-1.98 5.4-1.26 1.38-3.24 2.07-5.94 2.07zm22.141 54.18v-49.32h11.43v21.15h-.81c0-5.04.63-9.24 1.89-12.6 1.32-3.36 3.3-5.88 5.94-7.56s5.85-2.52 9.63-2.52h.63c5.76 0 10.14 1.89 13.14 5.67 3.06 3.72 4.59 9.39 4.59 17.01v28.17h-14.4v-28.98c0-2.64-.78-4.8-2.34-6.48s-3.66-2.52-6.3-2.52c-2.7 0-4.89.87-6.57 2.61-1.62 1.68-2.43 3.9-2.43 6.66v28.71zm81.3 1.71c-4.2 0-7.92-.72-11.16-2.16-3.18-1.44-5.85-3.36-8.01-5.76-2.1-2.46-3.72-5.19-4.86-8.19-1.08-3.06-1.62-6.18-1.62-9.36v-1.8c0-3.3.54-6.45 1.62-9.45 1.14-3.06 2.76-5.79 4.86-8.19s4.71-4.29 7.83-5.67c3.18-1.44 6.78-2.16 10.8-2.16 5.28 0 9.72 1.2 13.32 3.6 3.66 2.34 6.45 5.43 8.37 9.27 1.92 3.78 2.88 7.92 2.88 12.42v4.86h-43.65v-8.19h34.92l-4.68 3.78c0-2.94-.42-5.46-1.26-7.56s-2.1-3.69-3.78-4.77c-1.62-1.14-3.66-1.71-6.12-1.71-2.52 0-4.65.57-6.39 1.71s-3.06 2.82-3.96 5.04c-.9 2.16-1.35 4.83-1.35 8.01 0 2.94.42 5.52 1.26 7.74.84 2.16 2.16 3.84 3.96 5.04s4.14 1.8 7.02 1.8c2.64 0 4.8-.51 6.48-1.53s2.82-2.28 3.42-3.78h13.23c-.72 3.3-2.13 6.24-4.23 8.82s-4.74 4.59-7.92 6.03-6.84 2.16-10.98 2.16zm52.29-.18c-7.02 0-12.51-1.44-16.47-4.32s-6.06-6.93-6.3-12.15h12.78c.24 1.56 1.17 2.97 2.79 4.23 1.68 1.2 4.17 1.8 7.47 1.8 2.52 0 4.59-.42 6.21-1.26 1.68-.9 2.52-2.16 2.52-3.78 0-1.44-.63-2.58-1.89-3.42-1.26-.9-3.51-1.53-6.75-1.89l-3.87-.36c-5.94-.6-10.41-2.25-13.41-4.95-2.94-2.7-4.41-6.15-4.41-10.35 0-3.48.87-6.39 2.61-8.73s4.14-4.11 7.2-5.31c3.12-1.2 6.66-1.8 10.62-1.8 6.36 0 11.49 1.41 15.39 4.23 3.9 2.76 5.94 6.78 6.12 12.06h-12.78c-.24-1.62-1.08-2.97-2.52-4.05-1.44-1.14-3.57-1.71-6.39-1.71-2.22 0-3.99.42-5.31 1.26s-1.98 1.98-1.98 3.42c0 1.38.57 2.43 1.71 3.15s3 1.23 5.58 1.53l3.87.36c6.06.66 10.77 2.34 14.13 5.04s5.04 6.33 5.04 10.89c0 3.3-.9 6.18-2.7 8.64-1.8 2.4-4.35 4.26-7.65 5.58-3.3 1.26-7.17 1.89-11.61 1.89z" fill="#2c245e"/><path d="m69.019 416.084v173.484c.1216 4.565-1.1449 9.059-3.6306 12.89-2.4857 3.83-6.0741 6.817-10.2924 8.566-4.2183 1.748-8.868 2.176-13.3346 1.228-4.4667-.949-8.5407-3.23-11.684-6.542l-69.1341-69.134c-5.0557-5.059-8.8364-11.247-11.0323-18.054-2.1958-6.807-2.7432-14.038-1.5969-21.097 1.1463-7.06 3.9531-13.747 8.1898-19.509 4.2368-5.762 9.7818-10.436 16.1785-13.635z" fill="#2c245e"/><path d="m221.397 76.7357v234.4343c-.003 8.639-2.413 17.107-6.958 24.453-4.546 7.347-11.048 13.282-18.777 17.141l-126.6423 63.321-96.3366 48.196c-6.3967 3.199-11.9418 7.873-16.1785 13.635s-7.0435 12.449-8.1898 19.509c-1.1463 7.059-.5989 14.29 1.5969 21.097s5.9765 12.995 11.0323 18.054l-6.4896-6.491c-11.9899-11.992-21.5001-26.228-27.9879-41.896-6.4878-15.667-9.826-32.459-9.8239-49.417v-222.527c.0027-8.639 2.4111-17.107 6.9566-24.453 4.5456-7.347 11.0474-13.282 18.7771-17.141l241.8287-120.9416c3.922-1.9499 8.277-2.8669 12.653-2.6633 4.375.2035 8.626 1.5205 12.35 3.8262 3.725 2.3057 6.799 5.5241 8.932 9.35 2.132 3.8258 3.254 8.1333 3.257 12.5134z" fill="#6edbff"/><path d="m419.316 335.662-96.335 48.197v-173.484c-.121-4.565 1.144-9.059 3.629-12.89 2.486-3.83 6.074-6.817 10.293-8.566 4.218-1.748 8.868-2.176 13.334-1.227 4.467.948 8.541 3.229 11.684 6.542l62.645 62.644 6.489 6.49c5.056 5.059 8.838 11.247 11.034 18.053 2.196 6.807 2.743 14.038 1.597 21.098-1.146 7.059-3.954 13.746-8.191 19.508-4.237 5.763-9.782 10.436-16.179 13.635z" fill="#2c245e"/><path d="m475.358 361.172v222.47c.008 8.649-2.396 17.128-6.942 24.486-4.547 7.357-11.054 13.302-18.793 17.165l-241.828 120.942c-3.917 1.964-8.269 2.894-12.646 2.7-4.377-.193-8.633-1.503-12.361-3.805-3.727-2.303-6.803-5.521-8.936-9.348s-3.251-8.136-3.248-12.517v-234.435c.003-8.64 2.411-17.106 6.957-24.453 4.545-7.346 11.047-13.282 18.777-17.14l126.643-63.321 96.336-48.197c6.396-3.199 11.941-7.872 16.178-13.635 4.237-5.762 7.045-12.449 8.191-19.508 1.147-7.06.599-14.291-1.597-21.098-2.196-6.806-5.978-12.994-11.033-18.053l6.489 6.434c24.194 24.233 37.793 57.07 37.813 91.313z" fill="#ff88a3"/><path d="m671.207 455.494v10.688c.007.281-.069.558-.219.794s-.367.42-.622.527c-.255.108-.536.135-.806.076-.27-.058-.516-.199-.706-.403l-4.177-4.266c-.306-.311-.534-.693-.667-1.112s-.166-.865-.096-1.3c.069-.435.239-.847.495-1.202s.591-.642.977-.84z" fill="#2c2260"/><path d="m680.414 434.589v14.442c0 .532-.146 1.054-.42 1.507-.275.452-.668.818-1.135 1.055l-7.652 3.901-5.821 2.969c-.385.198-.719.486-.974.84s-.424.765-.494 1.199c-.069.434-.036.879.096 1.297.132.419.359.799.663 1.111l-.392-.4c-.725-.738-1.299-1.615-1.691-2.581-.392-.965-.594-1.999-.594-3.044v-13.702c0-.532.146-1.054.42-1.506.275-.453.668-.818 1.135-1.056l14.612-7.451c.237-.12.5-.176.764-.164.265.013.522.094.747.236s.411.34.539.576c.129.236.197.501.197.771z" fill="#69daff"/><path d="m692.373 450.54-5.821 2.983v-10.701c-.007-.281.069-.558.22-.794.15-.236.367-.42.621-.528.255-.108.536-.134.806-.076.27.059.516.199.706.403l3.785 3.86.392.399c.306.312.534.693.667 1.113.133.419.166.864.097 1.299-.07.435-.239.847-.495 1.202s-.591.643-.978.84z" fill="#2c2260"/><path d="m695.759 452.111v13.706c.001.532-.144 1.055-.419 1.508s-.668.82-1.136 1.058l-14.612 7.447c-.236.121-.499.178-.764.166-.264-.012-.521-.093-.747-.234-.225-.142-.411-.34-.54-.576-.128-.236-.196-.501-.196-.771v-14.443c0-.532.146-1.053.421-1.506.274-.453.667-.818 1.134-1.056l7.652-3.887 5.821-2.969c.387-.197.722-.485.978-.84s.425-.767.495-1.202c.069-.435.036-.88-.097-1.3-.132-.419-.361-.8-.666-1.112l.392.397c1.459 1.49 2.28 3.509 2.284 5.614z" fill="#ff86a1"/><g fill="#2c2260"><path d="m719.425 444.292c-1.108-.667-2.373-1.013-3.659-1.001h-9.149v22.55h3.887v-7.725h5.262c1.286.012 2.552-.334 3.659-1.002 1.084-.654 1.989-1.577 2.629-2.684.646-1.132.985-2.419.985-3.728 0-1.31-.339-2.597-.985-3.729-.642-1.104-1.546-2.026-2.629-2.681zm-1.961 9.408c-.515.312-1.105.475-1.705.47h-5.261v-6.933h5.261c.6-.007 1.19.156 1.705.47.51.306.937.737 1.242 1.255.303.527.462 1.127.462 1.738s-.159 1.211-.462 1.738c-.304.52-.731.954-1.242 1.262z"/><path d="m731.906 449.414c-.747.258-1.457.617-2.111 1.067v-1.519h-3.891v16.879h3.891v-7.972c-.009-.875.216-1.735.651-2.489.427-.738 1.03-1.353 1.753-1.787.739-.444 1.584-.674 2.442-.664h1.609v-3.967h-1.609c-.93-.003-1.854.149-2.735.452z"/><path d="m751.998 451.333c-.769-.782-1.676-1.407-2.674-1.843-1.026-.439-2.127-.665-3.239-.665-1.113 0-2.214.226-3.24.665-2.008.879-3.608 2.511-4.47 4.558-.432 1.045-.655 2.168-.655 3.303 0 1.134.223 2.257.655 3.303.844 2.054 2.436 3.694 4.443 4.575 1.027.434 2.128.658 3.239.658 1.112 0 2.213-.224 3.24-.658 2.017-.865 3.622-2.501 4.47-4.558.426-1.047.646-2.169.646-3.303 0-1.133-.22-2.256-.646-3.303-.411-1.018-1.012-1.946-1.769-2.732zm-5.917 10.611c-.795.008-1.577-.208-2.261-.623-.67-.405-1.229-.975-1.626-1.658-.402-.696-.609-1.491-.6-2.298-.009-.811.199-1.609.6-2.309.393-.685.954-1.255 1.626-1.655.688-.401 1.466-.612 2.258-.612s1.57.211 2.257.612c.671.404 1.231.975 1.627 1.659.4.698.61 1.493.61 2.301 0 .809-.21 1.603-.61 2.302-.402.68-.96 1.249-1.627 1.658-.68.416-1.46.632-2.254.623z"/><path d="m767.783 456.183c-.979-.509-2.035-.843-3.124-.988l-2.319-.302c-.56-.051-1.105-.219-1.599-.494-.378-.229-.573-.476-.573-.733 0-.331.297-.63.883-.887 1.484-.561 3.116-.561 4.6 0 .587.257.884.556.884.887v.166h4.006v-.166c-.002-.975-.354-1.914-.988-2.643-.713-.823-1.605-1.464-2.606-1.87-2.31-.932-4.881-.932-7.191 0-1.001.406-1.893 1.047-2.606 1.87-.634.729-.986 1.668-.989 2.643-.002.865.278 1.706.795 2.392.571.753 1.299 1.369 2.131 1.8.939.502 1.961.821 3.015.939l2.318.303c.617.06 1.214.248 1.757.552.422.258.634.539.634.835 0 .372-.324.695-.962.991-1.611.611-3.384.611-4.995 0-.638-.289-.962-.619-.962-.991v-.164h-4.01v.153c.003 1.005.367 1.973 1.023 2.723.738.851 1.665 1.51 2.704 1.922 2.404.946 5.067.946 7.471 0 1.038-.413 1.965-1.072 2.704-1.922.657-.75 1.02-1.718 1.023-2.723-.007-.881-.297-1.735-.825-2.433-.587-.78-1.339-1.416-2.199-1.86z"/><path d="m788.352 454.003c-.857-2.051-2.459-3.685-4.471-4.558-1.025-.439-2.127-.665-3.239-.665s-2.214.226-3.24.665c-2.008.879-3.608 2.51-4.47 4.558-.432 1.045-.655 2.168-.655 3.303 0 1.134.223 2.257.655 3.303.854 2.053 2.457 3.687 4.47 4.558 1.029.441 2.134.665 3.25.657 1.134.005 2.256-.231 3.294-.696 1.008-.452 1.922-1.095 2.694-1.894.771-.797 1.379-1.743 1.787-2.782l.089-.229h-4.437l-.047.059c-.421.491-.936.889-1.515 1.168-.72.342-1.517.483-2.309.408-.791-.075-1.549-.364-2.195-.836-.679-.498-1.211-1.176-1.538-1.961h12.327l.024-.132c.109-.535.164-1.08.164-1.627.008-1.132-.209-2.254-.638-3.299zm-7.713-1.262c.923-.009 1.826.281 2.578.827.676.479 1.209 1.139 1.537 1.909h-8.228c.326-.767.854-1.427 1.524-1.909.755-.549 1.661-.839 2.589-.827z"/></g></g></svg>